<?xml version="1.0" standalone="no"?>
<!DOCTYPE svg PUBLIC "-//W3C//DTD SVG 20010904//EN"
 "http://www.w3.org/TR/2001/REC-SVG-20010904/DTD/svg10.dtd">
<svg version="1.0" xmlns="http://www.w3.org/2000/svg"
 width="1280.000000pt" height="1206.000000pt" viewBox="0 0 1280.000000 1206.000000"
 preserveAspectRatio="xMidYMid meet">
<metadata>
Created by potrace 1.15, written by Peter Selinger 2001-2017
</metadata>
<g transform="translate(0.000000,1206.000000) scale(0.100000,-0.100000)"
fill="#000000" stroke="none">
<path d="M1997 12050 c-55 -14 -75 -27 -91 -58 -14 -28 -39 -132 -33 -138 2
-2 18 18 35 45 38 58 73 83 117 83 94 0 155 -33 252 -136 63 -65 167 -205 160
-213 -2 -1 -45 19 -97 45 -115 57 -181 80 -280 93 -137 19 -350 -20 -490 -91
-59 -30 -144 -89 -138 -95 2 -2 31 4 63 14 203 63 539 48 614 -27 l26 -26 -45
-9 c-25 -5 -126 -6 -225 -3 -228 6 -364 -6 -425 -37 -25 -13 -67 -36 -95 -50
-27 -15 -98 -49 -156 -76 -122 -57 -207 -127 -245 -203 -13 -26 -22 -48 -19
-48 3 0 26 16 52 36 65 49 148 90 240 116 63 18 104 22 215 23 159 0 190 -12
101 -39 -88 -27 -217 -94 -280 -145 -79 -64 -111 -119 -126 -217 l-12 -79
-105 -55 c-142 -74 -225 -135 -344 -253 -108 -106 -106 -107 19 -5 174 142
296 207 400 215 35 3 76 2 92 -2 26 -7 24 -9 -37 -29 -192 -66 -327 -189 -425
-390 -69 -138 -97 -262 -97 -421 0 -141 18 -237 67 -343 30 -65 35 -54 -91
-197 -69 -79 -97 -121 -134 -200 -83 -177 -104 -247 -105 -355 0 -117 6 -132
122 -265 170 -198 213 -287 213 -444 0 -185 -55 -316 -190 -452 -95 -95 -165
-144 -355 -248 -134 -73 -139 -85 -23 -52 168 48 321 133 603 334 105 75 211
148 238 162 l47 26 0 -31 c0 -23 -12 -46 -44 -83 -108 -127 -254 -380 -311
-537 -86 -241 -96 -456 -30 -651 24 -71 93 -204 101 -196 2 2 -8 53 -22 113
-34 146 -43 354 -20 469 18 92 87 239 140 300 l35 40 1 -52 c1 -217 90 -582
200 -818 45 -98 107 -205 120 -205 8 0 -5 74 -44 245 -52 221 -52 401 -3 509
25 55 130 168 134 145 1 -8 9 -86 17 -174 8 -89 23 -184 33 -215 17 -49 18
-78 13 -280 -7 -250 -15 -285 -85 -377 -92 -120 -119 -339 -70 -563 20 -92 13
-179 -20 -254 -49 -112 -116 -509 -100 -595 l7 -36 40 79 c21 43 41 76 42 75
2 -2 0 -29 -5 -59 -16 -112 -10 -371 11 -496 21 -122 51 -204 76 -204 18 0 38
37 24 45 -30 18 -2 135 53 219 l32 50 12 -124 c6 -69 19 -159 28 -200 28 -136
78 -311 85 -303 4 4 17 44 29 88 27 99 61 195 70 195 3 0 14 -26 23 -58 18
-62 80 -162 172 -277 31 -38 56 -75 56 -82 0 -6 -32 -72 -72 -145 -100 -186
-184 -365 -197 -420 -27 -115 -10 -254 65 -514 50 -176 53 -183 147 -337 82
-135 95 -169 167 -447 53 -205 105 -354 169 -478 55 -108 199 -166 268 -109
21 18 42 24 81 26 97 3 233 66 307 141 27 27 41 56 59 120 61 212 70 345 27
427 -22 44 -96 134 -146 178 -23 21 -38 47 -49 85 -44 155 -63 479 -31 540 9
17 19 30 23 30 5 0 28 -43 52 -95 23 -53 46 -98 51 -100 4 -3 28 32 53 77 67
121 57 113 103 90 56 -29 120 -103 159 -185 18 -40 57 -154 85 -255 29 -100
55 -182 59 -182 6 0 70 157 146 362 16 43 32 78 35 78 11 0 59 -195 83 -341
70 -413 68 -910 -3 -1177 -8 -27 -25 -51 -61 -81 -65 -55 -213 -241 -250 -314
-61 -121 -50 -202 38 -285 31 -29 80 -64 109 -79 29 -14 53 -31 53 -38 0 -8
12 -23 26 -34 33 -26 86 -27 247 -4 112 15 122 15 193 -1 43 -10 89 -15 108
-12 55 10 236 124 298 187 91 93 116 161 193 518 32 151 65 264 111 388 43
116 142 328 150 321 3 -3 -13 -65 -36 -138 -22 -74 -39 -137 -38 -141 5 -14
95 99 173 216 88 132 155 263 186 365 19 62 24 71 29 50 9 -34 -10 -107 -53
-214 -20 -49 -35 -91 -33 -93 1 -2 19 23 39 54 19 32 62 87 95 123 82 90 132
169 221 355 43 88 83 171 89 185 11 22 12 16 8 -40 -3 -39 -24 -120 -51 -202
-50 -152 -55 -179 -29 -157 9 8 73 86 142 174 68 88 141 177 161 198 39 42
104 79 190 108 63 22 95 48 122 101 11 21 21 38 22 38 9 0 -5 -239 -20 -328
-9 -56 -13 -105 -10 -108 24 -25 96 132 187 411 40 121 76 223 80 228 3 4 14
-1 23 -11 30 -33 40 -125 33 -302 l-6 -165 24 45 c13 25 61 131 106 235 46
105 87 194 91 199 11 12 12 -4 14 -199 1 -132 5 -164 32 -266 17 -64 38 -129
46 -145 l15 -28 6 30 c13 65 25 198 32 351 4 90 10 163 13 163 3 0 22 -30 41
-67 50 -96 137 -233 168 -265 34 -36 53 -36 47 0 -3 15 -14 97 -25 182 -11 85
-23 169 -26 185 -8 50 10 10 60 -130 64 -178 116 -282 172 -344 41 -45 100
-89 109 -79 1 2 17 66 34 143 72 317 84 361 92 340 4 -11 8 -44 8 -72 1 -62
20 -114 75 -205 65 -107 157 -231 166 -221 5 4 13 51 20 103 21 185 42 221
170 298 l35 21 -3 -104 c-4 -116 10 -176 53 -235 29 -39 31 -28 10 50 -17 63
-19 166 -5 225 5 22 14 69 20 104 6 35 20 82 32 105 l21 41 13 -30 c7 -17 41
-100 74 -185 33 -85 75 -180 92 -210 30 -52 32 -54 39 -30 4 14 7 118 8 231 1
113 4 241 8 283 l6 78 32 -80 c66 -166 186 -338 281 -400 57 -39 79 -41 70
-10 -3 13 -11 60 -18 105 -17 119 -7 122 84 24 70 -77 76 -87 112 -193 34 -99
38 -122 38 -207 -1 -110 -20 -216 -63 -348 -46 -139 -55 -149 -184 -197 -224
-84 -283 -142 -305 -298 -13 -86 -6 -153 20 -196 10 -17 47 -50 82 -73 61 -41
66 -42 193 -56 152 -16 226 -11 354 23 209 56 437 170 609 305 34 28 67 47 72
44 6 -3 10 -32 10 -63 0 -82 -47 -387 -65 -421 -8 -16 -45 -56 -81 -88 -150
-130 -164 -146 -200 -218 -21 -43 -37 -93 -41 -126 -5 -49 -3 -58 22 -87 14
-17 36 -50 48 -73 44 -83 160 -122 333 -112 78 5 97 3 138 -16 58 -25 92 -26
171 -6 202 52 471 246 569 409 65 108 81 174 79 316 -2 112 2 146 38 323 88
439 191 759 304 952 l36 60 -7 -55 c-3 -30 -28 -144 -56 -254 -46 -187 -69
-326 -54 -326 29 0 211 569 311 970 29 118 58 233 63 255 24 98 10 -509 -28
-1170 -5 -93 -9 -183 -9 -200 0 -29 1 -29 10 -6 18 45 68 256 93 394 37 198
69 443 121 927 54 505 97 831 122 930 6 24 6 23 14 -10 18 -78 21 -297 10
-705 -6 -236 -8 -446 -3 -465 7 -31 10 -26 31 70 67 310 161 800 225 1185 l16
90 -6 -120 c-3 -66 -14 -203 -24 -305 -10 -101 -17 -186 -16 -188 5 -4 89 225
143 388 131 400 265 932 324 1294 12 69 14 75 22 50 5 -16 9 -114 9 -219 1
-265 -21 -409 -132 -870 -86 -357 -116 -567 -93 -670 8 -37 10 -31 31 90 26
153 69 326 147 595 88 305 138 526 179 800 14 89 28 165 32 169 12 11 -6 -248
-27 -394 -25 -173 -65 -397 -124 -681 -25 -119 -43 -219 -41 -221 9 -10 105
275 161 482 47 171 100 422 120 565 27 195 33 207 28 55 -12 -372 -47 -674
-148 -1270 -54 -322 -95 -591 -95 -629 0 -25 14 19 83 269 42 149 112 399 156
557 163 581 193 716 255 1128 97 641 130 970 130 1300 0 224 -2 267 -21 353
-29 131 -59 206 -147 367 l-74 135 49 45 c88 83 115 190 85 339 -43 209 -215
492 -372 610 -59 45 -61 48 -79 121 -46 193 -152 436 -266 610 -76 116 -187
229 -294 299 -190 125 -531 267 -735 306 -359 68 -770 15 -1081 -140 -139 -69
-215 -124 -339 -248 -127 -126 -154 -146 -164 -121 -19 48 43 153 144 247 69
64 79 70 213 131 42 19 77 40 77 47 0 17 -229 5 -297 -16 -74 -22 -469 -215
-540 -263 -86 -58 -174 -150 -211 -220 -26 -48 -34 -79 -42 -158 -6 -53 -12
-100 -15 -102 -3 -3 -12 12 -21 34 -68 162 164 488 468 658 65 36 174 69 437
131 286 68 429 125 507 203 40 40 62 77 51 88 -2 3 -20 -4 -39 -16 -107 -63
-413 -175 -575 -210 -84 -19 -116 -21 -223 -15 -96 5 -148 3 -225 -10 -425
-72 -772 -323 -902 -653 -94 -242 -97 -491 -7 -760 29 -86 33 -107 22 -117
-30 -29 -209 -128 -283 -157 -69 -27 -93 -31 -175 -31 -62 -1 -115 5 -152 16
l-58 17 -52 -29 c-60 -34 -172 -61 -253 -61 -54 0 -54 0 -45 26 25 64 14 66
-150 24 -63 -17 -130 -30 -148 -30 -29 0 -32 2 -22 19 5 11 10 24 10 30 0 13
-53 26 -165 41 -174 22 -295 50 -449 104 -331 116 -364 169 -197 314 85 74
121 133 121 197 0 39 8 68 32 114 41 81 47 144 19 242 -12 41 -21 93 -21 115
0 21 -12 86 -26 143 -25 97 -26 108 -14 172 l13 69 33 -133 c59 -235 88 -282
219 -352 39 -21 78 -45 88 -53 30 -26 19 -6 -54 105 -86 130 -166 290 -178
359 -6 30 -6 66 -1 90 24 102 5 245 -45 344 -14 27 -25 52 -25 56 0 3 18 -10
40 -29 36 -34 108 -75 165 -97 21 -8 16 2 -29 63 -96 131 -178 260 -231 368
-28 59 -66 125 -84 148 -18 22 -30 41 -27 41 19 0 145 -68 193 -105 61 -45
104 -93 165 -184 50 -73 48 -44 -2 55 -52 104 -119 191 -225 293 -47 45 -77
80 -66 76 12 -3 21 -3 21 2 0 4 -34 48 -75 96 -42 48 -73 87 -69 87 19 0 209
-155 312 -254 49 -47 52 -49 52 -25 0 39 -29 129 -57 179 -14 25 -53 78 -85
118 l-60 73 59 -27 c176 -78 426 -184 429 -182 1 2 -40 33 -93 68 -150 100
-283 211 -378 314 -89 97 -140 132 -260 177 l-60 23 31 9 c27 8 54 0 195 -56
143 -57 316 -117 337 -117 4 0 -22 17 -57 38 -57 33 -123 84 -339 259 -77 62
-164 110 -218 119 -28 5 -48 18 -73 46 l-34 39 23 24 c20 21 33 25 81 25 32 0
89 -7 127 -15 61 -12 91 -22 187 -60 l20 -8 -20 22 c-50 57 -218 148 -333 180
-159 44 -287 36 -407 -25 -52 -25 -72 -31 -82 -23 -7 6 -13 18 -13 25 0 7 -23
57 -51 111 -29 54 -65 124 -80 155 -36 71 -46 78 -55 33 -3 -19 -9 -35 -13
-35 -3 0 -22 13 -41 29 -45 37 -96 62 -210 105 -51 19 -118 50 -149 69 -31 19
-82 43 -114 52 -45 13 -76 32 -129 78 -87 77 -156 127 -174 127 -13 0 -19 -12
-39 -67 -3 -9 -11 -10 -30 -3 -14 5 -78 15 -142 21 -97 10 -134 18 -218 52
-135 54 -223 62 -279 23 -21 -14 -44 -33 -50 -41 -8 -11 -42 -18 -116 -25 -58
-5 -148 -21 -199 -35 -52 -14 -101 -25 -108 -25 -7 0 -53 -16 -102 -35 -49
-19 -109 -37 -133 -41 -23 -4 -60 -15 -80 -26 l-38 -18 -27 42 c-14 24 -37 69
-49 101 -33 83 -57 118 -124 180 -112 104 -235 156 -385 162 -49 3 -107 0
-128 -5z m2325 -361 c16 -12 43 -43 59 -69 33 -53 60 -74 122 -96 26 -9 57
-31 83 -61 40 -44 42 -45 63 -30 24 16 42 13 116 -18 71 -31 191 -104 239
-146 l47 -42 24 23 24 23 15 -34 c8 -19 26 -65 41 -104 15 -38 33 -85 41 -103
30 -70 13 -194 -55 -403 -28 -85 -35 -116 -23 -107 32 27 6 -82 -72 -295 -43
-116 -44 -128 -11 -97 14 13 25 20 25 15 0 -15 -62 -210 -91 -285 l-29 -75
-102 0 c-87 0 -110 -4 -150 -23 -68 -33 -132 -95 -169 -160 -42 -75 -67 -102
-96 -102 -18 0 -23 -6 -23 -24 0 -13 7 -27 16 -30 9 -4 80 -6 158 -5 138 1
142 0 211 -31 160 -73 176 -82 189 -108 22 -42 56 -191 56 -241 0 -79 -7 -89
-78 -121 -96 -44 -223 -132 -281 -195 -28 -31 -85 -115 -128 -188 -164 -278
-365 -417 -641 -444 -55 -5 -67 -3 -92 16 -31 23 -75 28 -86 10 -9 -16 54 -77
94 -90 115 -38 381 48 539 173 98 77 173 167 237 281 85 152 181 245 340 327
100 52 152 54 190 10 31 -37 42 -75 61 -216 32 -231 39 -254 97 -319 38 -45
106 -81 121 -66 10 10 0 28 -74 127 -26 35 -33 57 -50 175 -35 244 -70 341
-138 383 -23 15 -41 34 -41 44 -1 83 -21 254 -33 282 -14 32 -14 37 5 63 11
15 37 36 57 47 44 22 51 43 51 149 0 92 14 133 62 180 22 23 43 40 45 37 2 -2
-9 -24 -25 -49 -15 -25 -37 -73 -47 -107 -15 -51 -17 -67 -7 -94 17 -47 15
-65 -13 -102 -39 -51 -34 -64 27 -64 46 0 55 -4 87 -38 20 -20 57 -54 84 -76
128 -104 248 -376 248 -561 0 -101 -17 -187 -86 -447 -46 -173 -70 -241 -143
-405 -84 -190 -90 -199 -135 -230 -25 -17 -67 -39 -92 -49 -46 -17 -47 -17
-145 11 -88 25 -109 27 -187 22 -168 -13 -245 -45 -368 -152 -122 -106 -150
-117 -308 -123 -135 -5 -262 7 -415 39 -82 16 -99 24 -139 59 -67 58 -135 95
-254 134 -154 51 -284 68 -584 75 l-259 6 -22 33 c-37 55 -56 161 -55 307 1
176 5 190 71 243 30 24 73 59 95 77 l40 33 -52 22 c-29 13 -53 26 -53 29 0 4
46 21 103 39 56 19 113 38 127 44 l25 10 -23 9 c-14 5 -52 4 -97 -3 -41 -6
-78 -9 -82 -5 -3 4 -1 18 5 32 9 18 37 37 95 64 l82 38 -75 23 c-41 13 -79 27
-83 30 -4 4 70 24 165 45 227 50 218 46 166 75 -24 13 -74 31 -111 40 l-68 16
152 18 c96 10 182 27 231 43 l79 26 108 -36 c184 -63 323 -68 436 -18 49 22
60 35 74 86 8 31 20 46 56 68 57 36 83 73 107 150 36 115 81 170 231 277 85
62 93 70 104 114 6 26 24 63 38 82 15 20 31 51 37 70 13 48 65 103 145 155 63
42 69 48 110 137 45 96 73 186 73 235 0 19 4 26 12 21 29 -18 -17 224 -54 285
-15 23 -22 53 -23 95 -1 47 -11 82 -42 151 -22 50 -43 101 -47 115 l-7 25 20
-24 c29 -32 26 -21 -13 58 -32 62 -83 121 -107 121 -5 0 -34 49 -64 109 -30
61 -75 133 -100 161 -25 28 -81 105 -125 170 -44 66 -86 120 -93 121 -6 1 -21
1 -32 0 -20 -1 -82 75 -71 87 3 3 41 -2 83 -10 l78 -15 40 28 c48 34 68 35
107 8z m-2797 -529 c3 -4 -12 -11 -33 -14 -62 -11 -139 -55 -181 -102 -33 -38
-59 -88 -86 -169 -6 -20 -7 -20 -21 -1 -33 46 -12 105 63 177 98 95 232 151
258 109z m15 -87 c0 -11 -75 -56 -133 -81 -55 -24 -67 -47 -67 -130 0 -79 -13
-95 -34 -43 -9 23 -16 53 -16 68 0 36 53 115 98 146 46 33 152 60 152 40z
m-340 -543 c11 -21 20 -43 20 -47 0 -4 -38 -15 -84 -24 -315 -61 -425 -278
-387 -762 11 -135 11 -150 -6 -177 -32 -55 -38 -40 -53 137 -32 365 76 691
273 827 47 32 170 84 204 85 7 1 22 -17 33 -39z m2699 -452 c72 -27 116 -75
179 -197 50 -94 58 -104 108 -132 62 -35 66 -49 32 -116 -27 -53 -124 -154
-182 -188 -122 -72 -419 -74 -563 -4 -30 14 -62 45 -100 93 -31 39 -102 118
-157 175 l-101 105 53 12 c32 7 69 25 95 46 88 73 265 186 316 203 116 38 221
39 320 3z m1579 -358 c34 -21 62 -72 62 -112 0 -23 0 -23 -23 4 -12 14 -42 39
-67 54 -61 38 -81 55 -74 65 10 16 68 9 102 -11z m-649 -82 c0 -29 -3 -71 -7
-93 -7 -40 -8 -40 -52 -40 -39 0 -45 3 -48 23 -6 39 71 162 100 162 4 0 8 -24
7 -52z m218 -31 c31 -46 65 -128 59 -144 -9 -21 -55 -15 -81 12 -24 23 -31 53
-27 114 3 59 18 64 49 18z m385 -36 c15 -54 7 -95 -19 -99 -25 -4 -63 30 -63
56 0 29 39 84 57 80 9 -2 21 -18 25 -37z m58 -205 c-31 -54 -31 -54 -14 -95 9
-23 14 -44 11 -48 -7 -6 -107 67 -107 78 0 4 8 10 18 13 10 3 40 28 67 56 27
27 51 50 52 50 2 0 -11 -24 -27 -54z m5048 -691 c145 -16 283 -43 396 -76 76
-22 219 -79 214 -85 -2 -2 -58 14 -124 35 -435 140 -858 134 -1245 -18 -58
-23 -145 -65 -193 -93 -89 -53 -196 -141 -185 -152 3 -4 51 11 106 33 127 50
252 86 401 113 172 31 466 31 646 -1 309 -54 511 -144 658 -293 79 -80 140
-194 163 -303 25 -122 18 -128 -31 -30 -104 205 -240 350 -415 444 -90 48
-157 68 -252 77 -65 5 -186 -8 -211 -23 -5 -3 29 -17 75 -30 107 -31 253 -100
333 -157 136 -99 225 -216 273 -361 24 -71 27 -96 27 -225 1 -208 -44 -388
-158 -632 -47 -102 -156 -302 -161 -296 -2 2 8 57 21 123 76 389 73 792 -10
1032 -44 130 -94 212 -181 299 -90 91 -143 123 -265 164 -303 102 -731 46
-1485 -194 -60 -19 -111 -34 -112 -32 -3 3 356 251 521 360 273 179 491 290
631 321 83 19 398 18 563 0z m-582 -570 c419 -71 706 -329 769 -690 8 -48 15
-108 14 -134 0 -46 0 -46 -34 47 -64 174 -155 342 -185 342 -6 0 -1 -18 10
-40 37 -73 53 -158 54 -295 1 -136 -9 -225 -25 -225 -5 0 -9 9 -9 19 0 30 -68
217 -107 295 -211 421 -582 638 -1000 587 -70 -9 -560 -134 -848 -218 -131
-38 396 153 705 256 69 22 161 47 205 55 109 19 341 20 451 1z m-361 -299 c99
-28 180 -74 238 -135 101 -106 132 -205 124 -396 -3 -66 -12 -150 -21 -187
-55 -228 -189 -493 -302 -598 l-38 -35 23 35 c138 220 208 420 218 620 6 134
-5 203 -48 288 -64 128 -193 216 -399 269 -96 25 -121 27 -285 27 -187 0 -174
2 -425 -59 -18 -5 -21 -4 -10 3 31 20 340 125 465 158 123 33 137 34 265 30
84 -2 157 -10 195 -20z m-4014 -29 c67 -45 119 -170 119 -287 0 -80 -19 -218
-35 -257 -20 -47 -109 -138 -171 -173 -29 -17 -78 -39 -110 -50 -65 -23 -160
-27 -167 -7 -4 12 27 104 103 302 24 61 60 169 80 240 21 72 52 159 69 193 36
71 55 78 112 39z m-2411 -282 c165 -27 307 -85 370 -150 51 -53 39 -57 -143
-50 -285 12 -501 -26 -713 -125 -160 -74 -298 -189 -349 -291 -14 -27 -32 -52
-41 -56 -45 -17 -134 66 -159 149 -23 77 -30 209 -15 312 l12 88 29 -28 c15
-16 48 -69 73 -119 l45 -90 1 142 c0 78 4 144 8 147 5 3 21 -4 38 -15 82 -56
299 -144 429 -174 l30 -7 -21 24 c-11 13 -31 41 -44 63 -13 22 -46 64 -73 92
l-51 52 35 15 c31 13 105 29 184 40 52 8 258 -4 355 -19z m1738 -38 c5 -23
-42 -96 -142 -222 -235 -296 -609 -700 -737 -798 -42 -32 -235 -89 -374 -112
-213 -35 -395 -2 -469 85 -14 17 -26 35 -26 38 0 4 62 29 138 56 291 104 545
223 707 331 114 76 200 153 316 285 146 166 239 241 388 312 85 40 108 47 156
45 29 -2 41 -7 43 -20z m382 0 c0 -8 -14 -62 -30 -122 -68 -241 -165 -386
-360 -540 -41 -32 -106 -89 -145 -126 -145 -139 -432 -287 -592 -306 -33 -3
-53 -2 -53 4 0 32 102 137 262 272 101 84 136 129 204 261 134 261 354 471
579 551 61 22 135 25 135 6z m6195 -111 c414 -199 856 -546 1061 -833 86 -120
160 -308 152 -386 l-3 -32 -13 40 c-28 81 -143 302 -194 370 -71 94 -203 224
-324 316 -90 69 -175 126 -589 397 -110 72 -193 131 -265 190 -34 28 48 -1
175 -62z m-9910 14 c15 -68 -20 -261 -74 -408 -30 -83 -95 -202 -111 -202 -16
0 -21 80 -10 157 19 132 59 273 108 388 42 98 74 122 87 65z m6717 -84 c164
-32 285 -94 381 -196 107 -113 165 -257 188 -467 11 -104 6 -384 -8 -443 -6
-24 -5 -24 14 -8 33 30 112 192 134 274 26 103 27 273 1 397 -10 48 -15 87
-12 87 18 0 106 -68 145 -113 93 -106 150 -258 181 -474 31 -225 9 -615 -56
-983 -36 -198 -143 -655 -185 -785 -17 -51 38 34 99 153 116 228 205 478 260
723 37 169 49 289 45 462 -2 85 -3 154 -1 152 7 -7 43 -168 62 -275 86 -502
39 -918 -189 -1660 -88 -285 -134 -447 -122 -434 4 5 55 108 113 229 177 368
326 765 359 954 31 186 49 398 56 678 5 204 9 261 18 253 20 -16 131 -239 169
-336 79 -204 110 -386 109 -629 -2 -389 -83 -670 -378 -1320 -125 -275 -179
-404 -172 -411 2 -2 14 15 27 39 41 74 158 244 299 436 234 316 316 448 381
609 21 51 40 95 43 98 8 8 44 -113 58 -193 15 -86 6 -373 -15 -478 -56 -277
-134 -472 -295 -739 -86 -142 -111 -190 -111 -213 0 -43 165 158 279 340 86
136 159 274 231 432 34 77 66 144 70 149 15 16 23 -149 17 -354 -11 -388 -92
-774 -221 -1045 -52 -110 -92 -171 -159 -242 -28 -29 -45 -53 -39 -53 29 0
198 81 275 133 192 128 348 332 414 540 10 31 22 57 27 57 13 0 0 -204 -19
-295 -26 -125 -76 -263 -199 -553 -166 -392 -212 -542 -223 -737 -4 -82 -1
-137 12 -218 20 -122 13 -189 -31 -286 -93 -207 -364 -424 -557 -447 -76 -9
-121 2 -157 37 -40 41 -38 67 10 168 22 46 39 86 36 88 -8 9 -85 -68 -115
-115 -17 -27 -37 -68 -46 -92 -9 -24 -21 -48 -28 -52 -23 -14 -91 -8 -133 13
-42 20 -114 89 -114 109 0 5 29 33 65 61 58 45 85 75 85 93 0 3 -13 6 -28 6
-38 0 -127 -46 -153 -78 l-22 -27 7 50 c4 28 21 78 37 113 27 55 42 72 122
131 115 86 141 113 160 176 65 201 165 943 143 1056 -6 33 -16 42 -92 89 -199
122 -363 266 -417 367 -15 29 -36 91 -47 138 -10 48 -21 89 -24 92 -3 3 -8 -7
-12 -22 -11 -43 4 -160 41 -325 19 -85 35 -159 35 -164 0 -18 -60 48 -109 118
-61 90 -140 247 -198 396 -25 63 -47 117 -50 120 -8 7 5 -83 38 -279 35 -206
35 -208 13 -190 -36 29 -101 141 -195 332 l-98 202 -95 78 c-127 103 -137 126
-171 365 -45 321 -127 611 -166 587 -16 -10 -10 -167 11 -281 28 -156 93 -414
130 -517 36 -98 106 -212 168 -271 l41 -39 -32 -16 c-41 -21 -46 -63 -18 -161
11 -38 16 -70 11 -70 -36 0 -188 235 -335 518 -21 40 -40 71 -42 69 -2 -3 1
-114 6 -248 10 -249 6 -373 -11 -362 -16 9 -55 104 -125 298 -36 99 -66 181
-67 182 -1 2 -17 -36 -36 -85 -18 -48 -46 -113 -61 -144 -29 -58 -88 -133 -96
-124 -3 3 14 38 37 78 55 95 85 188 105 323 21 145 25 423 6 488 -16 55 -34
75 -23 25 14 -63 6 -358 -13 -463 -37 -210 -90 -348 -176 -454 -26 -33 -54
-72 -63 -88 -18 -35 -46 -168 -46 -220 l0 -38 -21 25 c-36 45 -109 174 -130
229 -11 30 -24 94 -28 144 -5 56 -14 94 -24 104 -13 13 -18 10 -46 -31 -68
-98 -131 -277 -146 -410 -5 -44 -10 -55 -18 -47 -15 15 -16 341 -3 716 8 222
3 406 -9 393 -2 -2 -11 -147 -20 -323 -20 -403 -34 -638 -40 -643 -2 -2 -60
108 -129 244 -142 283 -138 282 -106 14 20 -169 24 -228 14 -218 -3 3 -43 96
-88 207 -86 207 -124 279 -138 258 -4 -7 -8 -95 -9 -197 -1 -102 -4 -212 -8
-245 l-6 -60 -7 50 c-4 28 -19 142 -33 255 -15 113 -31 209 -35 214 -11 11
-61 -97 -131 -286 -33 -88 -64 -168 -69 -177 -5 -10 -7 42 -4 134 5 121 2 161
-11 205 -9 30 -23 139 -31 242 -21 269 -29 295 -38 123 -8 -154 -24 -259 -62
-409 -31 -122 -144 -470 -150 -463 -3 3 8 82 25 176 29 164 29 173 14 223 -19
66 -46 120 -69 139 -16 13 -17 12 -9 -11 15 -41 10 -152 -9 -207 -24 -73 -66
-106 -173 -139 -147 -44 -156 -52 -278 -239 -59 -91 -108 -165 -110 -165 -2 0
-1 8 1 18 31 134 94 450 92 461 -2 9 -28 -17 -64 -66 -64 -84 -151 -249 -245
-460 -30 -68 -62 -133 -71 -145 -17 -23 -17 -23 -12 17 3 22 14 85 25 139 10
54 19 113 18 130 0 26 -7 16 -44 -60 -29 -62 -59 -108 -94 -144 -28 -29 -51
-56 -51 -61 0 -29 -196 -426 -205 -417 -2 2 13 46 34 99 42 103 57 159 44 159
-20 0 -85 -66 -127 -129 -112 -168 -224 -492 -301 -868 -41 -201 -73 -281
-135 -337 -60 -54 -290 -166 -340 -166 -63 0 -129 20 -141 42 -16 30 16 103
67 155 27 27 38 43 28 43 -33 0 -58 -25 -120 -121 -37 -57 -76 -104 -92 -113
-65 -33 -179 -27 -200 11 -21 36 18 111 106 205 l67 72 -44 -25 c-45 -25 -128
-108 -158 -160 -15 -26 -21 -28 -53 -23 -64 11 -80 28 -80 85 0 59 17 104 61
158 17 22 30 44 28 50 -7 19 -72 -23 -103 -66 -26 -37 -32 -41 -44 -29 -12 11
-12 21 -2 50 23 71 85 142 283 325 59 54 83 99 97 182 17 97 24 607 11 840
-21 402 -63 570 -169 678 -44 44 -47 49 -57 131 -15 110 -47 282 -51 277 -2
-2 1 -50 6 -108 14 -155 12 -311 -5 -392 -14 -67 -72 -258 -75 -247 -31 133
-67 250 -95 308 -37 79 -123 177 -206 237 l-46 33 -59 -59 c-32 -32 -61 -55
-65 -51 -4 4 -35 74 -70 155 -74 178 -135 283 -218 374 -80 89 -132 191 -202
395 -34 102 -66 179 -82 198 -25 29 -47 86 -47 122 0 9 -5 20 -12 24 -13 8 -6
-132 17 -355 8 -74 13 -137 11 -139 -2 -2 -15 32 -29 75 -14 43 -61 191 -105
328 -44 138 -88 278 -97 313 -17 60 -18 62 -37 46 -10 -10 -33 -46 -50 -81
-42 -86 -44 -159 -6 -224 51 -86 81 -92 54 -10 -17 54 -21 107 -8 115 5 3 39
-77 77 -177 37 -100 76 -203 86 -229 l18 -47 -67 51 c-37 27 -103 86 -148 130
l-81 80 4 146 c4 132 3 145 -11 128 -15 -19 -46 -137 -46 -178 0 -13 -4 -29
-9 -36 -15 -24 -85 166 -136 373 l-7 30 -10 -25 c-5 -14 -25 -91 -45 -173 -19
-81 -39 -145 -44 -142 -44 28 -46 389 -3 640 l5 30 -21 -25 c-11 -14 -48 -74
-82 -134 -60 -104 -62 -108 -70 -80 -20 72 -49 345 -55 511 l-6 183 -24 -6
c-29 -8 -29 -10 29 186 66 218 73 240 78 240 3 0 41 -31 85 -69 44 -39 81 -66
83 -61 5 13 -24 65 -73 131 -99 135 -77 292 68 480 l52 66 22 -121 c12 -67 23
-133 23 -147 0 -50 50 -224 85 -297 23 -50 54 -93 95 -134 34 -33 63 -59 65
-56 2 2 -9 46 -26 98 -16 52 -42 151 -56 220 -24 111 -27 147 -27 315 0 174 3
198 27 290 44 165 109 284 245 450 85 105 99 136 118 267 9 62 18 115 20 117
11 12 34 -27 39 -67 11 -90 28 -134 72 -190 l45 -57 -4 -101 -5 -102 -56 -98
c-106 -188 -137 -333 -140 -654 l-2 -205 62 -145 c34 -80 96 -255 138 -390
120 -383 142 -419 129 -217 -9 153 -9 235 -1 244 14 13 60 -44 97 -122 37 -77
62 -151 149 -447 67 -226 69 -228 70 -60 1 156 11 177 40 86 9 -27 33 -78 53
-114 40 -73 179 -274 209 -305 17 -18 17 -13 -5 37 -44 100 -107 220 -158 305
-27 45 -54 99 -59 120 -4 21 -11 106 -15 188 -4 83 -10 156 -14 163 -9 19 -67
-54 -90 -115 l-17 -46 -26 34 c-94 124 -208 440 -223 622 -6 70 -17 82 -47 50
-30 -34 -41 -105 -42 -262 0 -144 -1 -151 -13 -105 -7 27 -33 117 -59 199 -25
83 -54 184 -64 225 -66 267 -33 646 73 830 85 148 88 157 88 250 l0 87 73 -18
c39 -10 128 -24 197 -30 l124 -11 176 -95 c105 -57 187 -108 205 -128 43 -48
62 -55 188 -66 112 -10 344 0 517 22 41 5 151 14 243 19 203 13 355 48 494
115 79 39 108 61 228 175 198 187 298 244 605 339 74 23 144 48 155 56 11 8
60 44 109 80 74 54 96 65 128 65 42 0 108 -29 146 -64 22 -19 52 -67 52 -81 0
-9 -50 -5 -71 5 -39 21 -17 -1 54 -54 135 -101 208 -126 294 -101 59 17 87 9
57 -16 -11 -9 -48 -15 -101 -18 -45 -1 -83 -7 -83 -12 0 -5 4 -9 9 -9 15 0
101 -82 116 -111 16 -31 19 -77 7 -97 -6 -9 -13 1 -21 28 -22 74 -105 102
-229 76 -39 -8 -83 -21 -99 -29 l-28 -15 45 -12 c63 -17 134 -54 212 -112 67
-49 178 -160 199 -199 10 -20 9 -21 -15 -15 -34 8 -33 0 8 -102 l34 -82 -26
18 c-64 43 -131 54 -166 29 -25 -18 -17 -31 82 -142 45 -49 79 -91 77 -93 -3
-3 -100 23 -135 36 -8 3 6 -21 32 -54 82 -105 92 -145 64 -251 -25 -93 -83
-203 -107 -203 -4 0 -17 41 -28 92 -12 50 -30 106 -41 123 -19 31 -74 64 -86
52 -3 -3 5 -77 17 -166 20 -149 21 -162 5 -185 -32 -50 -16 -211 34 -323 10
-24 16 -43 14 -43 -3 0 -31 20 -63 45 -31 25 -60 45 -64 45 -4 0 -2 -11 3 -24
40 -107 69 -407 41 -440 -21 -25 -28 -12 -36 70 -4 42 -10 72 -15 68 -4 -5
-26 -83 -49 -174 -23 -90 -43 -166 -45 -167 -1 -1 -23 37 -49 85 -26 48 -57
98 -67 112 l-20 25 6 -95 c9 -155 -38 -292 -162 -473 -30 -43 -54 -80 -54 -82
0 -2 48 21 108 51 127 63 219 139 346 283 48 56 92 101 96 101 14 0 42 -39 56
-77 7 -22 13 -81 14 -138 0 -104 11 -143 30 -115 34 49 146 243 184 317 58
117 83 200 91 312 l8 93 15 -34 c25 -51 140 -160 207 -195 108 -56 114 -51 34
28 -89 88 -170 207 -238 350 -47 97 -59 129 -46 129 11 0 257 -141 376 -215
214 -133 396 -282 434 -355 18 -35 35 -31 35 8 0 61 -136 245 -354 482 -63 68
-113 126 -111 128 2 2 51 -29 109 -69 292 -200 588 -472 705 -649 35 -52 64
-96 66 -98 11 -12 -32 165 -56 236 -105 298 -292 531 -597 741 l-107 73 110
-5 c241 -13 469 -115 647 -290 110 -108 178 -201 265 -362 47 -88 55 -77 22
30 -73 239 -253 486 -417 573 -34 18 -62 34 -62 36 0 5 195 -24 330 -49 326
-62 859 -213 1144 -324 16 -6 30 -10 32 -8 7 7 -304 288 -456 413 -111 91
-310 244 -429 328 -51 36 -91 66 -87 66 6 0 579 -261 629 -286 15 -8 27 -11
27 -6 0 11 -94 152 -168 251 -31 42 -106 127 -167 189 -61 61 -106 112 -101
112 30 0 175 -85 302 -176 213 -153 206 -149 164 -90 -56 78 -220 228 -326
299 -150 99 -353 205 -592 307 -107 46 -40 28 154 -40 207 -74 394 -133 401
-126 5 4 -66 38 -265 127 -84 37 -162 76 -175 85 -21 15 -15 16 103 10 69 -3
131 -2 138 2 21 14 4 38 -57 80 -38 27 -66 57 -84 90 -41 76 -42 76 76 69 56
-4 122 -9 147 -13 36 -6 -8 20 -205 119 -234 117 -383 202 -373 212 2 3 56
-11 119 -31 105 -32 377 -89 386 -81 2 2 -92 44 -208 92 -211 88 -211 88 -187
106 58 45 152 82 219 87 91 6 132 -9 284 -108 122 -79 235 -135 258 -127 5 1
-51 56 -126 120 -130 112 -217 200 -217 218 0 13 38 11 122 -5z m-4437 -40
c78 -22 165 -64 165 -81 0 -43 -223 -158 -261 -134 -112 70 -530 -16 -726
-149 -111 -75 -157 -153 -151 -253 1 -32 2 -59 0 -59 -1 0 -28 18 -60 39 -106
73 -198 101 -327 101 -82 0 -152 21 -158 48 -6 28 19 98 48 136 65 86 221 177
418 245 168 58 348 95 607 125 85 10 387 -3 445 -18z m393 -78 c-50 -91 -206
-222 -403 -340 -235 -140 -723 -362 -827 -376 -31 -4 -44 0 -63 18 -126 119
35 370 299 466 108 39 220 49 336 29 140 -23 190 -7 442 144 154 91 171 99
211 100 l28 1 -23 -42z m6965 -79 c142 -94 266 -311 422 -743 93 -259 121
-382 144 -643 27 -306 10 -482 -103 -1025 -57 -274 -84 -486 -93 -725 l-7
-188 -13 75 c-50 293 -58 593 -39 1505 11 526 -1 694 -70 955 -53 202 -149
404 -269 565 -41 54 -73 106 -71 115 2 8 10 43 16 78 7 34 18 62 25 62 6 0 33
-14 58 -31z m-1023 -1089 c85 -170 151 -345 195 -520 66 -258 72 -558 17 -790
l-18 -75 1 320 c0 291 -2 332 -23 446 -35 194 -98 398 -202 649 -16 38 -27 70
-25 70 3 0 27 -45 55 -100z m-8000 -2362 c0 -22 88 -309 122 -396 20 -54 42
-93 62 -110 75 -67 111 -114 157 -207 27 -55 49 -107 49 -116 0 -9 -13 -33
-30 -54 -16 -20 -34 -54 -40 -74 -25 -90 -2 -284 65 -555 43 -171 39 -163 110
-261 99 -137 111 -185 80 -330 -35 -166 -90 -265 -146 -265 -31 0 -110 84
-135 143 -10 26 -23 47 -28 47 -4 0 -6 -27 -4 -60 5 -67 25 -102 76 -135 39
-25 39 -34 5 -67 -44 -42 -70 -43 -138 -7 -97 51 -122 81 -159 197 -18 53 -29
64 -40 36 -22 -57 12 -152 78 -221 54 -55 53 -63 -6 -63 -84 0 -154 146 -288
604 -67 229 -112 342 -180 454 -105 174 -210 516 -210 687 0 144 39 231 195
441 66 88 125 169 131 180 12 18 14 18 69 -11 61 -32 85 -59 130 -142 15 -28
41 -67 56 -85 l29 -33 -6 37 c-10 60 -20 378 -11 378 4 0 7 -6 7 -12z m6738
-1468 c69 -126 114 -175 174 -188 24 -5 46 -7 50 -5 4 2 14 37 23 78 10 41 18
75 20 75 1 0 15 -19 30 -42 16 -24 76 -90 134 -148 123 -121 145 -158 136
-228 -13 -97 -37 -205 -64 -285 -35 -103 -52 -135 -88 -168 -93 -87 -406 -251
-606 -318 -108 -36 -138 -41 -194 -39 -64 3 -68 5 -77 30 -6 18 -6 49 0 88 6
33 7 60 4 60 -12 0 -49 -45 -59 -73 -6 -16 -8 -46 -5 -68 l7 -39 -36 0 c-33 0
-38 4 -62 53 -23 45 -26 62 -23 126 5 121 -31 98 -52 -33 -5 -32 -11 -61 -13
-63 -3 -2 -14 19 -26 46 -41 96 -20 174 69 254 52 47 215 136 291 158 38 12
43 18 84 103 74 153 135 364 135 468 0 30 -14 72 -45 138 -62 131 -60 172 3
61 49 -89 135 -191 148 -179 6 7 -3 72 -35 238 -8 40 -8 43 5 25 8 -11 41 -67
72 -125z"/>
<path d="M3630 10051 c-75 -16 -163 -74 -256 -168 -51 -51 -96 -93 -101 -93
-6 0 -18 -9 -29 -21 -19 -21 -19 -21 10 -43 16 -11 52 -46 80 -76 147 -158
159 -167 244 -194 205 -65 386 -32 536 96 52 45 76 88 76 138 0 30 -1 31 -45
29 -45 -3 -74 16 -75 47 0 7 -18 47 -40 91 -50 101 -106 166 -157 181 -50 14
-199 23 -243 13z m130 -76 c72 -37 52 -85 -43 -105 -72 -15 -85 -29 -52 -60
30 -28 32 -64 5 -107 -28 -46 -55 -58 -86 -38 -14 9 -27 24 -30 33 -3 9 -14
35 -26 56 l-21 40 22 14 22 15 -23 24 -23 25 63 59 c59 56 65 59 113 59 27 0
63 -7 79 -15z m-320 -173 c0 -95 51 -172 143 -217 72 -35 130 -41 206 -21 119
30 153 74 161 206 l6 85 18 -40 c51 -117 69 -147 95 -158 14 -6 28 -12 30 -14
9 -6 -28 -39 -83 -75 -158 -102 -356 -105 -493 -6 -26 18 -75 68 -110 111
l-64 78 36 41 c19 23 35 46 35 50 0 5 5 6 10 3 6 -3 10 -23 10 -43z"/>
<path d="M5330 6146 c0 -3 15 -36 34 -73 131 -264 183 -676 117 -927 -22 -82
-58 -153 -71 -139 -4 4 -18 39 -30 77 -13 39 -34 81 -48 95 -24 23 -25 24 -38
6 -19 -25 -38 -94 -75 -270 -44 -210 -72 -278 -171 -410 -114 -152 -217 -256
-315 -322 -46 -30 -95 -70 -109 -89 -14 -18 -57 -102 -96 -186 -38 -84 -74
-157 -79 -162 -13 -14 -11 64 6 248 8 88 13 162 11 163 -5 6 -51 -72 -170
-287 -104 -189 -168 -290 -184 -290 -10 0 1 110 22 240 18 107 20 140 8 140
-10 0 -129 -368 -138 -429 l-7 -44 29 7 c16 4 61 22 101 41 94 46 154 112 184
203 12 37 29 83 38 102 16 35 16 33 21 -97 3 -81 10 -137 17 -144 15 -15 68
17 107 67 37 47 135 233 136 257 0 33 43 108 86 152 24 24 79 68 121 98 87 60
160 135 265 271 103 133 141 217 200 441 19 70 28 44 12 -33 -14 -70 -11 -92
16 -92 29 0 65 36 99 99 17 33 51 83 75 111 104 122 123 355 56 678 -38 182
-122 395 -185 470 -23 28 -45 41 -45 28z"/>
<path d="M1633 5083 c6 -102 41 -259 79 -353 42 -106 176 -370 209 -412 108
-136 656 -720 750 -799 l53 -44 -28 49 c-16 27 -64 99 -107 159 -96 134 -131
202 -137 270 l-4 52 72 -105 c110 -159 212 -283 341 -411 113 -112 341 -296
347 -279 2 5 -11 36 -27 69 -39 76 -81 171 -76 171 1 0 45 -60 96 -132 52 -73
133 -182 181 -242 49 -60 93 -126 100 -147 14 -49 0 -143 -42 -272 -16 -50
-28 -92 -27 -94 4 -3 35 22 220 175 76 63 142 111 146 106 4 -5 16 -37 26 -71
17 -59 35 -75 35 -33 0 57 44 132 128 222 133 143 263 311 250 324 -3 3 -48
-41 -99 -97 -52 -56 -136 -144 -186 -195 -51 -51 -93 -98 -93 -104 0 -19 -18
-10 -24 13 -16 60 -19 59 -181 -103 l-156 -155 29 60 c41 82 52 128 52 211 0
58 -5 80 -27 122 -45 84 -408 486 -490 543 -79 55 -81 39 -13 -99 27 -56 47
-102 44 -102 -10 0 -250 176 -292 214 -56 52 -116 144 -192 296 -80 159 -114
212 -188 291 -54 58 -122 110 -122 94 0 -4 13 -37 29 -73 16 -37 36 -97 45
-134 9 -37 27 -94 40 -128 14 -33 23 -60 22 -60 -5 0 -310 353 -383 443 -108
133 -189 259 -222 347 -17 42 -53 155 -81 251 -52 175 -83 259 -96 259 -4 0
-4 -44 -1 -97z"/>
</g>
</svg>
