<?xml version="1.0" standalone="no"?>
<!DOCTYPE svg PUBLIC "-//W3C//DTD SVG 20010904//EN"
 "http://www.w3.org/TR/2001/REC-SVG-20010904/DTD/svg10.dtd">
<svg version="1.0" xmlns="http://www.w3.org/2000/svg"
 width="1280.000000pt" height="1148.000000pt" viewBox="0 0 1280.000000 1148.000000"
 preserveAspectRatio="xMidYMid meet">
<metadata>
Created by potrace 1.15, written by Peter Selinger 2001-2017
</metadata>
<g transform="translate(0.000000,1148.000000) scale(0.100000,-0.100000)"
fill="#000000" stroke="none">
<path d="M3840 11469 c-65 -10 -353 -35 -495 -44 -483 -30 -715 -77 -865 -177
-75 -50 -136 -115 -287 -302 -215 -268 -256 -289 -379 -191 -46 36 -78 55 -96
55 -61 0 -188 -158 -188 -234 0 -96 50 -119 270 -126 l165 -5 -3 -25 c-3 -33
-83 -164 -141 -232 -26 -30 -86 -112 -135 -181 -48 -69 -105 -146 -127 -171
-94 -107 -211 -463 -273 -831 -14 -82 -35 -183 -46 -223 -23 -81 -223 -490
-277 -566 -95 -133 -177 -357 -217 -593 -14 -84 -31 -173 -37 -197 -8 -32 -9
-165 -5 -458 4 -227 6 -433 6 -458 0 -58 -60 -185 -128 -274 -60 -78 -91 -155
-104 -256 -8 -70 -16 -107 -53 -250 -15 -57 -40 -283 -75 -690 -12 -129 -28
-263 -35 -297 -8 -34 -24 -126 -35 -204 -28 -186 -56 -280 -139 -463 -94 -206
-100 -220 -122 -311 -24 -102 -24 -157 1 -237 22 -73 88 -181 116 -192 11 -4
98 -10 194 -13 116 -3 193 -10 227 -20 43 -13 89 -15 255 -10 216 6 287 15
383 50 59 22 66 22 620 20 308 0 765 -6 1015 -13 371 -9 464 -9 505 2 l50 13
-1 42 -1 42 59 -2 c43 -1 62 3 75 16 27 27 6 37 -98 48 -108 12 -249 3 -276
-16 -24 -18 -14 -25 49 -40 l53 -12 -115 -6 c-290 -16 -348 -16 -361 -1 -7 9
-8 18 -3 24 5 4 73 10 151 12 116 2 145 6 159 20 26 26 8 38 -59 39 -65 1 -59
5 38 26 50 10 58 36 17 51 -18 6 -72 8 -131 5 l-101 -6 0 31 c0 17 -5 34 -11
38 -7 4 -91 6 -188 5 -97 -1 -224 4 -283 10 l-108 12 -23 -25 c-31 -33 -67
-27 -112 19 l-33 34 -23 -48 c-19 -38 -29 -48 -49 -48 -20 0 -26 6 -30 30 -4
20 -12 31 -30 36 -31 9 -472 11 -494 3 -9 -3 -16 -15 -16 -26 0 -35 -28 -2
-44 51 -22 75 -63 149 -136 247 l-68 90 14 327 c23 560 51 726 171 1019 50
124 77 232 93 373 13 118 43 253 66 298 9 17 34 54 55 81 22 27 39 54 39 61 0
7 20 37 44 67 23 29 53 73 66 98 13 25 64 110 115 190 51 80 109 179 128 220
39 81 95 152 287 364 69 76 139 160 157 188 52 83 163 208 190 214 32 8 75 1
148 -27 80 -29 130 -80 140 -139 4 -25 30 -101 57 -170 28 -69 62 -161 75
-205 46 -148 143 -327 214 -393 47 -44 132 -86 213 -106 38 -9 81 -23 95 -31
29 -15 83 -70 125 -127 l27 -36 -82 -127 -83 -128 2 -436 c3 -503 19 -1106 31
-1177 36 -200 41 -218 76 -268 120 -174 208 -257 310 -295 65 -25 104 -26 131
-7 27 21 8 48 -42 61 -79 21 -108 53 -123 138 -7 39 -9 42 -39 41 -59 -3 -42
25 105 179 137 145 139 186 3 65 -70 -62 -158 -123 -166 -115 -4 3 41 54 98
112 93 94 108 105 140 105 42 0 102 -37 106 -66 2 -13 -14 -39 -43 -71 -52
-59 -56 -76 -17 -71 26 3 27 1 30 -47 2 -27 -4 -133 -12 -235 -25 -290 -36
-508 -36 -725 0 -244 25 -795 42 -925 16 -118 15 -440 -1 -580 -36 -305 -120
-568 -227 -708 -18 -24 -43 -69 -54 -100 -11 -32 -27 -75 -35 -98 -9 -23 -49
-81 -90 -130 -140 -167 -156 -237 -86 -381 22 -45 56 -100 76 -122 54 -60 102
-71 304 -72 91 0 209 -6 261 -13 113 -16 124 -11 115 48 -9 53 -29 75 -76 82
-57 9 -73 33 -66 98 7 71 109 285 161 341 47 50 56 66 56 104 0 21 -11 43 -36
71 l-36 39 64 29 c84 38 135 102 94 118 -14 5 -108 -38 -178 -82 -28 -18 -38
-31 -38 -49 0 -42 -51 -231 -71 -264 -15 -25 -25 -31 -53 -31 -36 0 -46 -12
-46 -56 0 -26 -1 -26 -77 -24 -74 2 -129 -30 -145 -84 -8 -25 -34 -63 -70
-101 l-58 -60 6 52 c6 48 5 52 -22 69 -43 26 -54 44 -54 87 0 44 8 61 57 126
20 25 55 87 79 137 42 88 67 114 109 114 18 0 19 14 3 40 -19 30 18 91 63 106
46 16 80 2 131 -52 87 -92 106 -28 27 93 -56 86 -58 117 -20 383 46 331 56
454 43 573 -7 56 -14 179 -17 272 -7 182 -27 487 -50 755 -17 191 -19 280 -6
280 11 0 22 -34 51 -150 20 -81 41 -122 57 -107 4 4 -3 59 -15 122 -34 174
-45 358 -38 645 13 491 32 698 67 736 21 23 39 136 39 253 0 100 -20 62 -39
-73 -9 -64 -18 -116 -21 -116 -34 1 -49 61 -50 191 0 125 23 255 61 340 16 38
34 95 40 126 18 98 75 213 105 213 18 0 18 -6 -6 -76 -22 -67 -27 -192 -9
-273 11 -53 44 -105 60 -96 5 4 9 59 9 124 0 105 2 120 20 136 31 28 26 48
-10 43 -17 -3 -33 -1 -35 3 -15 23 74 232 118 277 22 23 28 35 20 43 -18 18
-52 0 -72 -39 l-19 -37 -11 29 c-20 52 30 181 115 295 l39 52 7 -53 c3 -29 6
-79 7 -110 1 -32 8 -76 17 -98 11 -28 14 -54 10 -85 -18 -115 36 2 79 173 32
127 45 223 75 541 6 63 18 146 26 185 8 39 19 103 23 141 6 53 22 100 65 193
31 67 59 136 63 154 6 31 6 31 -16 16 -36 -25 -64 -74 -116 -200 -26 -65 -54
-126 -61 -135 -12 -16 -13 -15 -13 12 0 34 38 178 65 247 18 45 18 47 0 67
-26 28 -17 72 54 284 116 343 189 461 354 576 33 23 63 41 67 41 19 0 -30
-106 -111 -240 -114 -189 -122 -207 -126 -259 -2 -24 -10 -54 -19 -67 -8 -13
-15 -36 -15 -51 0 -16 -16 -53 -35 -83 -53 -83 -58 -120 -14 -120 30 0 65 44
94 119 14 37 46 96 70 131 29 41 45 75 45 94 0 17 7 39 15 50 8 10 17 39 21
63 5 32 18 58 46 91 61 70 110 200 127 338 5 44 17 83 29 100 11 16 23 52 26
79 11 91 71 259 112 312 19 25 24 44 24 91 0 121 101 351 265 607 123 191 164
244 193 252 12 3 30 19 38 35 9 17 78 94 155 173 76 79 139 148 139 154 0 18
-22 13 -73 -17 -175 -101 -493 -465 -603 -690 -30 -63 -77 -152 -105 -200 -27
-47 -49 -92 -49 -100 0 -14 -5 -24 -92 -197 -31 -60 -91 -203 -133 -317 -44
-118 -93 -230 -114 -262 -20 -30 -81 -106 -136 -168 -56 -62 -127 -147 -160
-188 -32 -41 -77 -96 -101 -121 -49 -53 -40 -21 -104 -412 -27 -169 -57 -324
-65 -344 -9 -21 -45 -67 -80 -104 -60 -62 -77 -89 -57 -89 5 0 35 20 66 45 32
25 62 45 67 45 25 0 -6 -62 -55 -109 -50 -48 -48 -68 4 -39 30 18 42 20 51 11
9 -9 2 -23 -30 -59 -22 -26 -41 -53 -41 -60 0 -19 -59 -84 -76 -84 -11 0 -9 7
7 29 27 36 20 64 -14 56 -25 -7 -50 13 -46 37 5 43 -25 53 -56 18 -23 -26 -35
-25 -35 1 0 28 16 56 58 103 42 47 26 64 -18 21 -44 -42 -59 -29 -62 57 l-3
73 -32 3 c-18 2 -33 5 -33 8 0 3 10 18 21 33 23 31 19 51 -10 51 -28 0 -42 23
-50 84 -4 31 -11 59 -14 63 -23 22 -36 -61 -37 -219 0 -150 -3 -157 -53 -117
-33 25 -49 82 -41 142 4 25 3 102 -1 171 l-7 126 -48 -40 c-48 -40 -73 -49
-85 -29 -4 5 -6 65 -6 133 2 137 0 140 -64 151 -76 14 -75 7 -24 268 17 81 27
152 24 157 -25 40 -60 -34 -95 -195 -11 -55 -25 -111 -31 -124 -9 -23 -10 -23
-35 14 -22 33 -25 45 -19 89 8 62 24 130 59 259 26 92 27 117 6 117 -17 0 -52
-44 -76 -95 l-24 -50 3 105 c2 100 1 105 -19 108 -42 6 -44 -8 -34 -324 4
-164 12 -308 16 -319 5 -11 18 -35 31 -54 28 -41 31 -133 7 -196 -26 -69 -27
-74 -6 -100 12 -16 18 -33 15 -43 -6 -15 -5 -15 11 -3 37 31 48 71 53 208 l6
136 23 -111 c29 -141 74 -273 130 -382 63 -121 88 -228 89 -370 l0 -115 -50 1
c-27 1 -63 8 -80 15 l-30 14 53 3 c65 4 72 17 72 132 0 107 -29 125 -44 28 -7
-45 -53 -98 -84 -98 -13 0 -24 11 -33 33 -7 17 -29 48 -49 68 -19 20 -51 56
-72 79 -33 38 -39 41 -73 34 l-37 -7 7 64 c6 55 4 68 -13 88 l-19 24 -37 -22
-36 -23 0 31 c0 21 6 34 18 38 37 14 32 53 -8 53 -43 0 -52 57 -12 75 38 17
29 38 -35 75 -31 19 -32 21 -26 69 5 42 3 52 -11 57 -9 3 -23 18 -30 31 -12
24 -13 21 -19 -41 -11 -121 -37 -110 -37 17 l0 78 35 20 c19 12 35 24 35 27 0
4 -9 22 -20 39 -19 32 -21 33 -82 30 -62 -2 -63 -1 -61 23 0 14 6 43 11 65 6
22 13 61 16 87 5 29 18 60 37 84 40 50 38 61 -13 60 -39 -1 -44 2 -60 37 -10
20 -23 37 -29 37 -20 0 -41 -77 -47 -172 -2 -54 -9 -98 -14 -98 -15 0 -45 60
-52 103 -4 23 -15 51 -25 62 -10 11 -23 38 -29 61 -15 51 -79 126 -129 149
-31 15 -53 17 -132 12 -169 -11 -319 -62 -350 -120 -7 -14 -31 -33 -53 -43
-51 -23 -171 -151 -250 -266 -34 -50 -76 -99 -92 -109 -31 -19 -48 -17 -28 3
18 18 14 57 -9 89 -26 38 -37 37 -41 -3 -2 -24 -9 -34 -23 -36 -56 -8 -63 -12
-69 -43 -7 -37 -34 -37 -53 1 -13 25 -13 25 -13 -8 0 -25 10 -46 40 -79 45
-52 49 -63 20 -63 -43 0 -32 -99 12 -108 22 -4 48 25 48 53 0 13 8 31 18 41
16 17 17 17 20 -5 7 -47 -74 -232 -151 -346 -22 -33 -79 -104 -126 -158 -166
-191 -179 -211 -197 -317 -14 -80 -53 -215 -59 -208 -3 2 0 44 6 93 5 49 7
102 4 117 -8 33 -34 37 -42 8 -4 -16 -12 -20 -37 -18 l-31 3 -11 -90 c-25
-194 -76 -410 -156 -650 -128 -385 -193 -670 -163 -712 6 -8 36 -21 66 -27
l54 -13 -1 -54 c-3 -251 -19 -616 -27 -626 -6 -9 -22 -11 -47 -7 -21 3 -40 2
-43 -3 -11 -18 27 -76 136 -211 59 -73 107 -136 107 -141 0 -5 20 -35 45 -67
43 -55 52 -83 39 -118 -10 -26 -20 -19 -32 22 -13 41 -45 78 -60 68 -5 -3 -12
-24 -16 -47 -9 -57 -24 -40 -47 51 -21 86 -65 161 -140 242 -43 46 -62 59 -80
56 -42 -6 -36 -43 14 -97 25 -27 56 -70 70 -97 29 -57 63 -187 51 -191 -42
-15 -63 -37 -99 -106 -55 -108 -82 -120 -111 -51 -23 54 -18 107 12 135 53 50
69 118 24 106 -37 -9 -65 51 -78 164 -7 61 -8 63 -40 70 -39 8 -64 29 -104 87
-48 70 -68 52 -68 -63 0 -100 14 -133 66 -155 56 -25 72 -55 55 -110 -15 -50
-56 -99 -98 -116 -40 -17 -53 -40 -53 -93 0 -22 -4 -42 -10 -46 -11 -7 -107
40 -138 68 -30 27 -29 80 3 182 32 101 42 194 25 235 -17 42 -46 40 -59 -5 -5
-19 -34 -69 -64 -112 -30 -43 -57 -90 -61 -105 -3 -14 -24 -58 -47 -97 -35
-62 -44 -71 -63 -65 -68 20 -78 96 -27 204 17 36 31 80 31 98 0 41 40 163 79
240 65 129 131 396 151 606 8 96 16 129 37 170 24 46 27 62 27 166 1 103 4
123 30 188 24 60 28 77 18 90 -38 52 -44 86 -39 202 7 159 54 317 115 390 l21
25 1 -24 c0 -13 -14 -46 -32 -73 -33 -53 -50 -139 -29 -152 21 -13 47 4 70 45
13 22 29 43 36 45 24 9 58 106 58 164 0 40 5 58 18 70 10 8 22 30 26 49 10 38
41 65 61 52 23 -14 32 -83 47 -344 7 -139 17 -260 21 -270 12 -32 41 8 53 76
10 53 8 90 -14 260 -32 252 -32 265 4 330 35 62 101 220 101 241 0 8 -10 18
-22 21 -28 9 -48 -18 -78 -104 -39 -112 -62 -161 -76 -161 -18 0 -18 34 1 96
20 67 19 81 -10 106 -55 48 -79 212 -79 528 1 395 77 889 173 1123 70 169 81
192 93 192 6 0 17 -20 23 -45 31 -125 95 11 205 435 22 83 55 227 75 320 92
439 207 752 351 955 95 134 216 320 319 494 103 171 150 228 231 275 33 19
110 68 172 109 146 95 190 114 279 120 88 6 115 -1 128 -30 14 -32 52 -26 88
12 54 59 22 106 -70 102 -66 -3 -93 15 -93 61 0 107 150 226 337 267 305 66
694 94 983 71 139 -11 667 -75 720 -88 14 -3 55 -18 92 -34 36 -16 133 -49
215 -75 81 -25 170 -58 196 -75 27 -16 59 -31 73 -34 13 -3 34 -7 47 -10 13
-2 38 -18 55 -35 26 -24 37 -29 63 -23 25 5 35 1 52 -20 12 -15 65 -50 117
-78 52 -28 109 -64 127 -80 19 -16 46 -31 61 -34 55 -12 152 -66 205 -114 30
-27 86 -67 123 -89 129 -75 135 -106 25 -117 -70 -7 -105 -25 -80 -41 20 -12
523 -8 623 5 l88 12 67 -39 c36 -22 73 -42 81 -44 17 -6 5 -10 -114 -34 -43
-8 -109 -27 -145 -41 -36 -14 -100 -37 -141 -51 -75 -26 -400 -186 -518 -256
-190 -113 -386 -291 -491 -446 -36 -52 -85 -120 -109 -150 -72 -88 -124 -225
-92 -245 18 -11 45 20 111 127 33 54 108 158 166 231 57 72 116 151 130 174
19 33 39 49 99 79 50 25 79 45 85 61 5 12 16 23 26 23 10 0 62 29 117 65 54
36 104 65 111 65 6 0 44 23 83 50 39 28 82 50 94 50 33 0 236 90 288 128 50
35 224 99 217 79 -2 -7 -46 -39 -99 -72 -52 -33 -131 -88 -174 -122 -43 -35
-99 -77 -123 -95 -52 -39 -66 -59 -58 -83 6 -15 16 -12 85 25 42 24 154 94
248 156 190 126 299 182 418 213 87 23 198 27 243 10 28 -11 28 -11 -49 -50
-42 -21 -85 -51 -96 -66 -11 -15 -43 -41 -71 -57 -30 -18 -57 -43 -65 -60 -8
-17 -38 -53 -65 -80 -28 -27 -51 -57 -51 -67 0 -10 -20 -41 -45 -69 -25 -28
-48 -63 -51 -78 -3 -15 -17 -65 -30 -112 -32 -114 -54 -234 -54 -293 0 -26 -7
-64 -15 -84 -20 -47 -19 -79 5 -132 26 -56 25 -69 -2 -73 -19 -2 -24 -11 -29
-53 -4 -27 -15 -67 -25 -88 -24 -49 -14 -65 56 -88 83 -27 117 -87 105 -184
-4 -33 -2 -55 4 -60 33 -20 92 66 71 104 -5 11 -14 21 -18 23 -10 3 2 394 17
595 9 116 12 127 52 205 38 75 40 86 30 113 -11 28 -9 32 24 61 35 31 44 57
25 69 -20 12 -9 34 27 52 37 18 41 24 62 76 8 19 18 27 36 27 14 0 25 -2 25
-4 0 -2 -16 -33 -35 -70 -19 -37 -35 -81 -35 -97 0 -16 -7 -41 -16 -54 -14
-22 -15 -55 -10 -277 4 -139 9 -284 12 -323 4 -44 0 -121 -11 -205 -18 -134
-18 -136 4 -219 11 -47 37 -116 56 -154 19 -38 47 -110 61 -160 29 -105 59
-167 107 -225 20 -23 40 -57 46 -75 6 -18 31 -51 55 -73 25 -25 45 -54 49 -72
5 -23 14 -33 31 -38 35 -8 108 29 141 72 33 43 55 45 55 4 0 -43 -59 -104
-123 -128 -28 -11 -56 -26 -61 -34 -14 -24 1 -48 34 -54 41 -9 45 -18 16 -47
-27 -27 -39 -74 -34 -128 3 -32 5 -34 39 -34 48 0 74 -24 100 -94 73 -194 10
-387 -199 -612 -42 -46 -88 -99 -100 -116 -22 -31 -22 -33 -4 -33 48 0 194
139 283 270 51 74 79 102 65 63 -18 -47 -133 -235 -179 -293 -74 -91 -134
-130 -203 -130 -48 0 -59 -4 -118 -50 -63 -48 -96 -62 -96 -40 0 6 11 38 25
71 14 33 23 64 21 68 -3 5 -19 11 -34 14 -23 5 -31 13 -35 36 -7 35 -39 43
-56 13 -8 -12 -10 11 -11 86 0 80 -3 102 -14 102 -7 0 -21 -11 -30 -25 -33
-51 -39 -31 -33 103 7 129 -1 175 -23 142 -36 -54 -52 -220 -30 -302 6 -21 22
-51 37 -68 14 -17 23 -34 19 -37 -9 -10 -58 29 -85 68 -22 32 -23 40 -18 149
3 63 13 148 22 189 10 51 12 78 5 85 -16 16 -39 -14 -74 -100 -85 -214 -85 38
1 294 14 42 45 116 69 164 45 91 51 112 34 123 -16 10 -39 -13 -66 -68 -14
-27 -28 -47 -31 -44 -7 7 39 139 79 227 20 45 35 104 48 195 10 71 27 175 36
231 20 122 14 177 -19 172 -23 -3 -24 -5 -46 -154 -12 -81 -59 -224 -121 -368
-38 -89 -41 -103 -31 -131 26 -74 -2 -144 -72 -178 -35 -18 -36 -20 -22 -40
20 -28 19 -92 -2 -127 -9 -15 -35 -36 -57 -46 -39 -18 -41 -22 -50 -74 -8 -56
-22 -84 -36 -75 -4 3 -13 -1 -19 -9 -9 -11 -6 -18 15 -33 33 -24 27 -53 -11
-53 -30 0 -31 -4 -5 -45 l20 -32 -25 -21 c-32 -28 -32 -57 0 -78 39 -25 31
-69 -22 -125 -25 -27 -25 -27 -6 -55 14 -22 18 -47 17 -124 0 -115 -30 -220
-76 -271 l-29 -34 5 53 c5 47 2 57 -19 78 -37 37 -62 32 -70 -16 -12 -74 -75
-70 -75 4 0 18 -6 40 -13 51 -13 17 -15 17 -30 -6 -24 -34 -21 -86 8 -135 15
-25 21 -45 15 -49 -16 -10 -67 23 -97 62 -28 37 -28 38 -25 171 2 90 -1 131
-8 127 -25 -15 -50 -89 -60 -176 -15 -134 -17 -139 -53 -154 -18 -7 -42 -27
-54 -43 -13 -17 -33 -32 -45 -34 -23 -3 -34 -20 -72 -111 -17 -41 -39 -45 -44
-9 -5 30 -27 28 -49 -4 -45 -66 -93 -106 -173 -146 -139 -71 -110 -110 35 -47
81 35 171 48 198 27 20 -15 59 -153 51 -180 -2 -9 -11 -19 -20 -22 -11 -4 -13
0 -8 19 4 18 1 27 -11 31 -25 10 -46 -17 -56 -72 -15 -81 -102 -154 -221 -188
-47 -14 -65 -25 -105 -71 l-48 -54 -20 42 c-20 41 -22 42 -68 41 l-48 0 2 35
c1 20 1 42 0 49 -2 19 -26 14 -47 -9 -15 -16 -26 -20 -54 -15 -24 4 -43 1 -58
-10 -42 -29 -19 -68 24 -39 35 23 54 13 126 -63 56 -60 74 -90 109 -180 7 -17
16 -22 32 -20 20 3 22 8 20 56 -3 56 10 67 39 35 30 -34 31 -62 5 -101 -15
-22 -28 -59 -32 -92 -9 -70 -45 -146 -94 -201 l-39 -44 -24 22 c-36 34 -126
55 -238 55 -83 1 -104 -2 -120 -17 -11 -10 -20 -25 -20 -33 0 -15 67 -82 82
-82 5 0 31 16 59 35 41 28 61 35 98 35 48 0 105 -27 129 -61 27 -39 48 -41
103 -13 34 17 55 22 61 16 15 -15 0 -65 -34 -117 -17 -26 -35 -66 -39 -91 -5
-24 -30 -106 -58 -181 -64 -180 -78 -249 -96 -453 -12 -129 -22 -192 -44 -262
-16 -51 -35 -114 -41 -140 -7 -26 -28 -71 -46 -100 -38 -59 -37 -52 -24 -150
5 -40 14 -194 20 -341 6 -153 15 -277 21 -289 9 -16 17 -19 42 -14 45 9 51 20
30 52 -33 51 -17 262 17 228 17 -17 41 -190 47 -334 5 -139 5 -146 -16 -164
-29 -26 -62 -10 -87 41 -15 31 -25 39 -51 41 -46 5 -43 -11 22 -108 62 -94 74
-134 21 -77 -42 46 -76 50 -76 9 0 -69 70 -247 101 -255 23 -6 25 -35 3 -65
-20 -29 -27 -28 -68 13 -38 38 -54 43 -62 20 -12 -31 101 -196 145 -210 23 -7
31 -33 20 -63 -11 -29 -34 -28 -56 4 -47 67 -66 85 -87 82 -23 -3 -23 -11 -4
-76 11 -37 10 -46 -4 -70 -26 -42 -43 -49 -77 -29 -16 9 -32 17 -35 17 -11 0
15 -42 51 -84 30 -37 44 -76 25 -76 -24 0 -152 136 -152 163 0 8 3 8 12 -1 7
-7 16 -12 20 -12 14 0 8 37 -8 51 -23 19 -58 94 -82 175 -29 96 -41 105 -91
65 -77 -61 -86 -86 -89 -259 -5 -185 -1 -202 36 -202 55 0 178 -102 203 -168
6 -15 17 -79 25 -142 25 -204 26 -207 108 -306 34 -42 58 -83 70 -121 10 -32
38 -105 63 -162 44 -98 46 -106 33 -135 -18 -41 -18 -145 0 -223 10 -46 11
-66 3 -74 -17 -17 -47 5 -68 50 -10 23 -24 41 -31 41 -19 0 -34 -33 -34 -77 0
-71 -30 -78 -44 -10 -3 15 -8 39 -11 53 -4 16 -16 29 -34 35 -16 6 -32 20 -35
32 -5 20 -6 20 -26 2 -24 -22 -25 -43 -3 -90 16 -33 16 -36 0 -52 -16 -16 -18
-16 -44 3 -37 28 -41 49 -35 190 7 178 -23 304 -74 304 -20 0 -23 -26 -27
-245 -3 -212 -10 -248 -51 -261 -15 -5 -27 2 -52 31 -35 42 -64 43 -64 2 0
-25 -34 -64 -43 -50 -3 5 -1 30 4 57 11 60 4 70 -61 86 -27 6 -54 17 -59 24
-5 6 -11 43 -13 81 -3 62 -5 70 -23 70 -25 0 -65 -75 -65 -124 0 -23 14 -58
39 -100 22 -36 51 -102 66 -147 34 -100 51 -123 97 -130 33 -6 41 -2 97 50 58
54 63 56 115 56 30 0 113 -14 184 -30 72 -17 140 -30 152 -30 11 0 65 19 118
42 82 35 111 42 182 46 136 7 189 47 268 199 47 90 89 133 131 133 41 0 79 35
92 83 16 60 -1 70 -117 65 -97 -4 -129 -17 -121 -50 7 -23 -14 -23 -43 0 -21
17 -21 19 -6 35 9 9 34 21 54 26 62 16 195 33 236 29 35 -3 41 -7 51 -38 l12
-35 78 -1 c66 -1 80 -4 94 -22 26 -33 65 -42 189 -42 171 0 624 55 675 82 10
5 20 23 24 40 9 44 44 55 234 73 90 8 214 22 274 31 61 9 135 14 165 11 44 -3
63 1 99 19 24 13 59 24 77 24 47 0 64 9 64 34 0 47 -13 52 -87 33 -94 -23
-173 -32 -173 -19 0 6 11 19 24 29 14 10 25 27 26 38 5 47 -1 92 -13 109 -12
17 -18 17 -98 2 -113 -21 -312 -42 -554 -61 -298 -22 -405 -37 -405 -57 0 -7
55 -8 168 -3 251 11 331 -11 152 -42 -95 -16 -130 -28 -130 -44 0 -12 86 -9
222 7 49 6 59 4 64 -10 9 -24 -20 -52 -71 -66 -38 -11 -51 -10 -93 5 -49 18
-51 18 -103 -4 -43 -17 -175 -40 -234 -41 -5 0 -25 -9 -44 -21 -32 -19 -33
-21 -15 -40 9 -10 14 -22 11 -25 -3 -4 -46 -9 -95 -12 -88 -5 -88 -5 -125 28
-23 20 -37 41 -37 56 0 13 1 24 3 25 1 0 84 11 184 24 180 23 253 39 253 55 0
10 -45 27 -93 36 -48 8 -66 26 -60 58 6 32 -1 32 -172 11 -138 -17 -225 -19
-225 -5 0 10 8 12 94 27 46 7 51 11 59 43 11 44 20 50 82 50 l50 0 -52 -25
c-29 -13 -53 -27 -53 -31 0 -10 143 2 355 31 105 14 280 32 390 40 272 20 303
24 320 41 20 20 9 41 -24 47 -20 4 -32 15 -39 36 -8 23 -18 31 -47 37 -19 3
-49 4 -64 1 -41 -8 -86 7 -127 42 -26 23 -44 31 -74 31 -41 0 -159 -22 -201
-39 -14 -5 -70 -14 -125 -21 -107 -12 -634 -102 -879 -150 -186 -36 -398 -65
-419 -57 -12 5 -15 14 -10 30 8 33 -10 95 -57 200 -51 113 -54 146 -33 297 12
90 17 199 18 390 l1 265 34 115 c44 148 44 224 0 540 -23 169 -32 274 -33 375
0 133 2 148 41 295 37 139 134 436 208 640 83 227 249 647 263 663 8 9 23 17
33 17 10 0 35 21 56 47 64 78 171 136 350 189 77 22 110 26 258 28 132 3 192
8 270 26 83 18 114 21 185 15 169 -15 227 -11 325 25 148 54 183 60 360 70 94
5 194 16 225 24 158 45 211 57 291 67 99 13 177 5 186 -18 3 -8 -4 -58 -16
-111 -33 -151 -40 -231 -56 -648 -18 -484 -36 -698 -86 -1064 -42 -307 -81
-508 -156 -809 -43 -174 -41 -221 9 -263 67 -56 79 -73 98 -137 10 -36 21
-106 25 -156 8 -120 29 -242 70 -401 28 -109 48 -158 115 -290 56 -107 104
-187 151 -244 38 -47 69 -91 69 -98 0 -7 -7 -24 -16 -37 -28 -43 -6 -55 100
-55 50 0 116 -7 146 -15 140 -37 269 -47 610 -49 314 -1 338 0 365 18 18 12
58 22 106 27 142 14 166 46 156 200 -8 101 -15 95 119 105 l82 7 28 -44 c64
-102 78 -120 109 -139 18 -11 43 -20 57 -20 33 0 82 53 122 131 26 51 41 69
77 88 24 13 68 39 98 58 53 34 53 34 72 15 10 -11 31 -23 48 -27 37 -8 56 -30
70 -80 11 -41 50 -86 85 -99 34 -12 80 12 107 57 17 28 51 59 98 91 40 26 75
54 78 62 3 8 -4 25 -16 38 -28 29 -28 79 0 107 18 18 29 20 64 16 47 -7 83 13
106 56 17 31 -19 57 -81 57 -60 0 -97 13 -132 47 l-28 27 -39 -22 c-38 -22
-41 -22 -75 -5 -34 16 -38 16 -71 0 -42 -20 -71 -22 -81 -5 -5 7 -11 37 -15
66 -13 94 -56 121 -162 102 -84 -15 -107 -31 -107 -76 0 -44 19 -80 62 -120
50 -48 91 -64 179 -71 65 -5 83 -10 94 -27 21 -29 19 -65 -7 -116 -28 -55 -50
-58 -59 -8 -13 83 -71 109 -241 107 -114 -1 -127 1 -172 25 -27 14 -60 26 -72
26 -23 0 -64 42 -64 67 0 27 -44 31 -175 13 -71 -10 -158 -25 -193 -34 -76
-20 -92 -16 -157 39 -69 58 -140 96 -279 149 -65 25 -129 54 -141 66 -12 11
-38 23 -58 27 -102 16 -200 226 -214 454 -7 112 8 246 43 408 35 157 81 284
185 510 49 106 99 225 110 265 12 39 47 157 80 261 32 105 63 222 69 260 21
132 79 296 144 403 42 72 66 142 105 312 39 174 47 227 66 445 20 226 31 293
55 326 15 21 19 44 19 110 0 99 27 193 97 336 53 108 94 172 198 312 99 133
139 213 171 342 43 173 42 172 205 269 144 86 213 134 257 179 33 33 46 39 97
45 63 7 183 52 233 89 17 12 47 35 66 50 l36 29 61 -51 c108 -90 235 -138 335
-128 69 7 337 98 435 147 162 81 427 309 418 359 -2 9 7 26 19 38 12 12 30 48
40 80 24 78 23 326 0 428 -9 39 -23 182 -32 320 -18 298 -28 382 -61 495 -21
70 -28 126 -39 325 -16 263 -24 324 -62 429 -33 92 -82 174 -158 261 -95 109
-95 110 -95 197 0 170 -94 472 -185 593 -34 45 -65 111 -65 138 0 13 -6 30
-12 39 -12 15 -20 13 -83 -13 -105 -43 -144 -38 -220 29 -51 45 -225 140 -385
210 -281 123 -388 149 -700 165 -322 17 -448 14 -630 -16 -85 -14 -178 -28
-207 -31 -70 -9 -260 -74 -539 -184 -126 -51 -239 -92 -250 -92 -11 0 -60 9
-109 19 -220 48 -304 45 -430 -13 -96 -45 -167 -100 -322 -250 -98 -95 -139
-141 -157 -181 -30 -62 -55 -84 -166 -145 -45 -24 -108 -67 -139 -95 -32 -28
-72 -57 -90 -65 -38 -15 -63 -11 -216 33 -118 35 -346 73 -515 87 -274 22
-287 27 -594 229 -392 257 -723 414 -1146 543 -91 28 -208 64 -260 80 -129 39
-249 62 -528 103 -130 19 -266 41 -302 49 -70 17 -152 19 -240 5z m6703 -160
c13 -6 32 -26 40 -45 14 -29 22 -34 52 -34 20 0 47 -8 62 -17 l25 -17 -7 32
c-8 39 -1 40 105 11 41 -11 100 -22 130 -25 47 -5 58 -3 80 16 46 41 147 16
394 -96 131 -59 217 -109 224 -131 7 -23 -45 -25 -93 -4 -26 12 -49 21 -51 21
-2 0 -14 -12 -27 -26 l-24 -25 -21 50 c-22 54 -32 60 -52 36 -18 -21 -61 -19
-196 10 -131 29 -217 30 -222 4 -2 -12 12 -21 50 -33 83 -26 197 -48 268 -51
63 -4 65 -5 68 -32 6 -44 20 -53 81 -53 134 -1 313 -55 345 -105 9 -13 54 -47
101 -75 117 -71 241 -187 221 -207 -3 -3 -51 20 -107 50 -56 31 -110 59 -120
62 -27 9 -23 -10 6 -29 14 -9 25 -24 25 -32 0 -14 -9 -16 -54 -12 -76 6 -90
20 -82 81 5 48 5 49 -13 33 -18 -17 -20 -16 -26 3 -4 12 -15 21 -27 21 -19 0
-19 -2 6 -34 14 -19 26 -39 26 -45 0 -20 -50 -23 -167 -11 -132 14 -207 10
-273 -13 -73 -26 -178 -41 -285 -42 -100 0 -100 0 -103 -26 -4 -37 28 -61 101
-74 46 -8 63 -16 65 -29 2 -11 -4 -19 -17 -23 -12 -3 -21 -13 -21 -24 0 -13
10 -20 38 -24 66 -11 104 -26 250 -96 302 -144 331 -170 388 -351 15 -46 29
-87 31 -92 16 -25 23 38 23 201 0 100 4 193 10 207 12 33 31 42 141 66 145 33
156 59 27 68 -115 7 -146 -6 -230 -98 l-72 -79 -63 60 c-35 32 -72 59 -83 59
-11 0 -30 11 -42 25 -30 31 -124 65 -183 65 -37 0 -47 4 -61 25 -15 23 -15 27
1 51 50 77 344 115 490 64 33 -11 101 -30 150 -41 194 -43 276 -86 290 -152 4
-17 19 -58 33 -91 25 -57 26 -59 6 -73 -12 -9 -33 -13 -58 -10 -31 4 -53 -2
-106 -29 -37 -19 -74 -34 -82 -34 -41 0 -60 -57 -77 -228 -6 -57 -16 -112 -21
-123 -15 -27 -70 -26 -77 1 -3 12 -12 19 -22 18 -11 -2 -28 21 -56 75 -66 128
-167 237 -268 289 -40 20 -98 21 -104 1 -6 -17 37 -53 64 -53 37 0 90 -26 108
-53 8 -13 20 -50 25 -81 5 -34 19 -69 35 -90 47 -62 58 -155 16 -141 -15 4
-17 0 -13 -25 3 -20 -4 -44 -22 -74 -29 -51 -47 -60 -73 -41 -24 19 -43 19
-43 0 0 -11 -12 -15 -47 -15 -27 -1 -59 -7 -73 -15 -38 -22 -63 -18 -93 13
-31 33 -33 51 -11 95 33 63 67 97 126 126 l60 28 -52 38 c-62 46 -98 91 -106
136 -10 51 -22 69 -57 84 -35 15 -47 12 -47 -12 0 -10 6 -14 20 -10 13 3 20 0
20 -8 0 -27 -22 -27 -50 0 -28 27 -30 27 -63 12 -19 -9 -68 -24 -108 -32 -89
-19 -126 -40 -108 -61 6 -8 17 -14 24 -14 7 0 29 -11 49 -25 27 -18 50 -25 87
-25 57 0 73 -18 44 -50 -23 -25 -33 -25 -117 2 -62 20 -74 21 -129 9 -57 -11
-61 -11 -77 9 l-17 22 -95 -42 c-156 -68 -208 -100 -265 -161 -29 -32 -67 -87
-84 -121 -32 -66 -71 -203 -71 -248 0 -51 75 -130 125 -130 23 0 18 -32 -11
-71 -37 -50 -66 -108 -58 -120 3 -6 -3 -13 -14 -16 -28 -7 -32 -23 -17 -59 17
-40 93 -134 108 -134 17 0 61 47 78 84 9 20 25 33 46 38 19 5 44 23 60 45 15
20 42 42 60 50 18 7 33 17 33 22 0 19 -32 42 -51 36 -47 -15 -8 31 51 60 49
24 80 55 80 79 0 20 2 20 20 -4 10 -14 26 -44 36 -68 16 -43 16 -43 -10 -80
-68 -96 -138 -206 -192 -305 -32 -59 -69 -120 -81 -135 l-23 -27 -20 24 c-11
13 -27 47 -36 77 -12 41 -23 58 -48 74 -92 56 -97 -7 -11 -130 57 -81 73 -146
56 -235 -14 -79 -99 -305 -150 -400 -21 -38 -48 -95 -60 -127 -13 -31 -37 -74
-55 -95 -49 -57 -60 -81 -45 -99 19 -23 53 -16 82 17 22 26 32 30 55 24 l27
-7 -24 26 -24 26 47 50 c29 31 46 58 44 69 -2 11 8 31 21 45 15 15 31 53 41
93 24 100 40 94 40 -15 0 -71 3 -91 15 -96 10 -4 15 -20 15 -51 0 -25 -7 -62
-15 -82 -20 -48 -19 -54 11 -51 15 2 29 -3 31 -10 8 -20 -72 -90 -116 -102
-48 -13 -57 -34 -73 -172 -9 -75 -9 -106 1 -137 6 -23 15 -41 20 -41 4 0 20
13 35 29 16 16 35 27 42 24 19 -7 19 51 0 66 -12 11 -13 18 -1 50 36 104 126
251 154 251 11 0 9 -5 -7 -20 -32 -30 -35 -133 -5 -155 12 -9 15 -22 10 -56
l-7 -44 30 35 c35 40 36 51 13 87 -17 26 -17 27 2 19 69 -28 97 -26 162 7 35
19 103 94 103 114 0 33 -94 44 -110 12 -8 -14 -19 -19 -38 -17 -25 3 -27 7
-30 56 -3 48 -5 52 -28 52 -27 0 -30 14 -9 50 23 39 19 53 -11 46 -27 -7 -27
-7 -21 41 3 26 11 74 18 105 12 54 12 59 -6 72 -18 13 -19 18 -7 60 17 64 15
85 -9 131 -37 68 -39 265 -3 265 8 0 14 6 13 13 -3 25 2 36 37 78 20 24 54 79
76 122 22 44 61 114 87 156 26 42 63 105 83 141 20 36 56 84 80 106 89 85 134
122 158 129 14 4 37 21 51 38 23 27 29 29 43 18 30 -25 14 -81 -24 -81 -17 0
-56 -38 -82 -80 -27 -44 -53 -139 -41 -151 16 -16 77 13 99 47 25 39 255 266
262 259 3 -3 -4 -15 -15 -28 -33 -36 -83 -119 -83 -139 0 -10 -18 -55 -41 -99
-61 -123 -95 -279 -60 -279 18 0 40 39 51 93 17 85 55 192 91 256 38 68 106
141 133 141 18 0 19 -6 12 -117 -3 -65 -12 -148 -19 -184 -7 -36 -12 -70 -10
-75 2 -6 17 -8 33 -6 27 4 30 1 30 -21 0 -29 -37 -62 -79 -72 -16 -3 -37 -15
-47 -26 -16 -18 -16 -20 1 -39 26 -29 66 -25 99 9 16 16 39 32 51 35 15 4 28
19 36 41 13 35 13 35 26 13 18 -33 16 -62 -6 -82 -43 -39 -35 -106 13 -106 25
0 46 -17 46 -38 0 -10 -8 -13 -25 -10 -21 4 -25 1 -25 -18 0 -12 5 -35 11 -51
8 -22 0 -17 -39 27 -59 64 -70 57 -55 -35 8 -42 7 -61 -4 -81 -7 -15 -20 -54
-28 -88 -24 -93 -35 -116 -62 -122 -32 -8 -28 -46 6 -54 13 -3 29 -14 35 -23
9 -15 6 -22 -13 -38 -20 -16 -24 -28 -22 -61 1 -31 -3 -44 -19 -55 -11 -8 -20
-22 -20 -32 0 -22 -16 -36 -52 -45 -60 -14 -91 -129 -50 -185 20 -27 20 -28 1
-40 -11 -6 -24 -22 -28 -34 -8 -20 -9 -19 -18 13 -6 24 -16 36 -31 38 -17 3
-26 -7 -47 -52 -48 -102 -260 -303 -371 -352 -28 -12 -54 -29 -57 -37 -3 -8
-25 -17 -49 -21 -23 -4 -99 -25 -168 -47 -82 -27 -151 -43 -202 -46 -75 -6
-77 -5 -138 33 -109 69 -116 78 -124 173 -6 65 -4 97 10 147 l17 64 -26 37
c-37 56 -65 184 -52 244 9 38 53 62 108 57 37 -3 42 0 45 20 2 13 -3 31 -12
41 -12 13 -16 47 -18 156 l-3 140 -26 3 c-35 4 -60 -28 -66 -85 -3 -26 -12
-53 -20 -60 -11 -8 -16 -34 -18 -85 -2 -74 -33 -168 -55 -168 -25 0 -58 49
-69 101 -6 30 -17 158 -26 286 -9 128 -22 254 -31 282 -11 38 -12 60 -4 93 5
24 10 160 11 303 1 250 7 331 23 294 4 -9 6 -29 4 -45 -2 -23 1 -29 16 -29 15
0 23 12 32 45 7 25 23 74 35 110 12 36 29 85 37 109 8 24 37 68 63 98 53 57
57 68 34 77 -8 3 -15 12 -15 19 0 8 7 20 15 27 21 18 19 43 -8 68 -52 49 -129
32 -93 -20 9 -12 16 -26 16 -30 0 -18 -33 -6 -60 20 -22 22 -29 41 -35 93 -4
35 -12 73 -18 83 -9 19 -10 19 -28 -3 -11 -13 -19 -31 -19 -40 0 -9 -11 -56
-25 -104 -37 -127 -53 -250 -70 -537 -8 -140 -20 -317 -26 -393 -11 -144 -7
-213 17 -259 15 -29 13 -31 -23 -29 -27 3 -35 -10 -49 -84 -11 -56 -12 -50
-10 90 l1 150 -37 49 c-21 27 -38 53 -38 57 0 5 16 15 35 23 32 14 35 18 35
58 0 47 -22 88 -47 88 -13 0 -15 -8 -10 -42 5 -37 4 -40 -7 -25 -21 27 -49 20
-91 -23 -21 -22 -43 -40 -48 -40 -4 0 -19 12 -32 27 -19 24 -33 29 -86 33
l-63 5 -11 54 c-5 30 -15 56 -22 58 -18 6 -25 -52 -21 -180 l3 -114 43 -46
c34 -38 42 -54 42 -85 0 -48 -35 -99 -55 -82 -8 6 -15 26 -17 43 -2 24 -8 33
-25 35 -28 4 -45 58 -36 118 3 28 2 44 -5 44 -19 0 -24 35 -32 218 -8 191 -16
227 -46 188 -10 -14 -14 -49 -14 -124 0 -103 0 -104 -30 -130 -36 -32 -42 -85
-11 -101 12 -7 17 -18 14 -34 -3 -14 6 -46 22 -77 32 -63 22 -83 -23 -45 -39
32 -70 114 -78 205 -6 59 -4 74 15 111 16 31 23 60 23 106 0 35 -2 67 -5 70
-3 3 -23 -9 -44 -26 -68 -56 -67 -58 -60 192 11 381 26 523 68 624 26 64 -20
54 -58 -12 -11 -21 -24 -59 -28 -84 -4 -25 -29 -135 -55 -243 -27 -108 -53
-227 -58 -263 -9 -65 -8 -67 15 -78 30 -13 39 -51 23 -94 -7 -22 -9 -53 -5
-81 24 -169 86 -534 95 -556 12 -33 27 -33 70 -1 45 33 49 17 11 -45 -33 -54
-38 -79 -18 -99 6 -6 12 -24 12 -39 0 -17 5 -27 15 -27 12 0 14 11 12 53 -3
51 9 82 29 82 5 0 9 -7 9 -15 0 -28 90 -114 131 -125 21 -6 45 -17 53 -25 21
-22 35 -18 42 10 3 14 10 25 15 25 18 0 8 -57 -16 -90 -17 -23 -25 -47 -25
-75 0 -47 -22 -87 -35 -65 -5 8 -11 49 -13 92 -3 43 -9 81 -14 84 -5 3 -18 -2
-29 -12 -22 -20 -23 -19 -36 20 -12 39 -30 44 -44 13 -15 -33 9 -117 51 -178
17 -24 42 -61 56 -81 16 -23 30 -64 38 -109 11 -64 17 -77 53 -113 23 -23 48
-58 57 -79 8 -21 31 -57 50 -79 20 -23 41 -57 47 -77 20 -64 36 -81 74 -81 28
0 37 -5 45 -24 6 -18 18 -26 42 -28 25 -2 34 -9 38 -28 3 -14 12 -25 20 -25
12 0 14 13 12 58 -2 56 -2 57 25 57 34 0 103 -31 122 -53 27 -33 34 -19 28 53
-4 42 -2 70 4 70 21 0 29 -59 28 -200 -1 -81 1 -152 5 -158 4 -6 23 -16 44
-21 55 -16 62 0 23 54 -18 26 -31 49 -28 52 12 12 55 -8 90 -42 31 -30 37 -43
37 -78 0 -23 -8 -64 -17 -90 -19 -54 -76 -127 -99 -127 -17 0 -17 8 1 40 43
75 -1 64 -84 -20 -78 -80 -94 -87 -79 -34 10 37 4 51 -22 54 -35 5 -50 -1 -50
-20 0 -45 -105 -2 -116 48 -3 15 -7 32 -9 38 -2 6 -22 14 -46 17 -53 7 -89 33
-113 81 -17 34 -21 37 -55 34 -34 -3 -36 -1 -37 27 -1 17 -2 35 -3 41 0 6 -23
20 -50 31 -38 16 -49 27 -54 49 -4 16 -44 70 -91 123 -95 105 -153 208 -162
286 -5 44 -3 53 20 78 20 21 26 38 26 73 0 24 -3 44 -7 44 -5 0 -20 -14 -35
-32 l-27 -33 -11 30 c-6 17 -10 54 -8 83 2 33 -1 52 -8 52 -19 0 -46 37 -106
148 -96 175 -128 249 -155 351 -23 89 -24 107 -18 246 7 171 21 347 36 452 9
66 8 77 -11 120 -34 73 -40 111 -28 172 18 100 75 183 148 216 22 10 39 23 37
29 -2 5 -28 18 -59 28 -36 12 -59 26 -65 41 -17 39 -6 47 64 47 76 0 117 17
173 71 39 38 100 144 100 174 0 34 -32 11 -59 -43 -16 -32 -46 -73 -65 -90
-41 -35 -98 -51 -121 -32 -22 18 -19 25 19 38 60 22 165 159 136 177 -16 10
-36 -6 -68 -55 -38 -58 -55 -64 -155 -58 -82 5 -128 25 -145 63 -20 43 -14 78
28 163 41 83 49 119 28 140 -20 20 -35 14 -47 -19 -10 -29 -12 -30 -55 -24
-41 6 -46 5 -63 -21 -15 -24 -18 -50 -19 -174 -1 -222 -28 -302 -116 -340 -36
-16 -57 -19 -68 -13 -27 17 -41 56 -35 97 12 84 25 298 19 321 -4 16 -13 25
-25 25 -40 0 -16 34 125 177 72 74 97 106 89 114 -12 12 -56 -4 -121 -45 -23
-14 -45 -26 -49 -26 -11 0 95 107 149 150 46 37 49 38 118 35 60 -2 74 -6 86
-24 8 -11 24 -21 34 -21 12 0 27 -14 39 -37 11 -21 50 -77 88 -124 37 -47 77
-98 88 -113 l20 -27 38 31 c56 47 63 67 36 96 -12 13 -21 25 -18 27 2 2 17 11
32 21 15 9 32 28 37 41 9 23 14 24 85 23 80 -1 155 22 155 48 0 16 -13 20
-140 39 -123 19 -166 31 -199 56 -13 11 -34 19 -47 19 -12 0 -36 11 -52 25
-55 46 -121 69 -198 70 -62 0 -74 -3 -102 -27 -17 -14 -55 -33 -84 -42 -29 -8
-75 -30 -103 -47 -27 -18 -65 -38 -84 -46 l-34 -14 6 31 c8 39 59 113 95 138
15 10 43 25 62 32 45 18 101 53 170 105 68 53 104 71 155 80 22 4 60 14 83 23
37 13 51 13 93 3 27 -7 134 -19 238 -25 270 -18 283 -27 297 -209 9 -114 44
-115 100 -1 24 49 25 54 10 82 -9 17 -20 34 -26 37 -13 8 -13 52 1 61 6 3 8
17 5 30 -7 28 -6 28 38 10 34 -14 50 -44 58 -105 4 -34 26 -38 38 -7 7 19 4
46 -10 102 -26 102 -25 126 6 158 58 58 479 148 700 150 94 1 103 -1 140 -26
52 -36 81 -36 95 -1 16 43 33 50 72 32z m-7719 -48 c9 -13 -151 -187 -259
-281 -143 -125 -309 -256 -401 -316 -45 -30 -84 -61 -88 -69 -19 -51 -233 -93
-321 -63 -80 27 -47 48 143 94 177 42 228 76 322 213 99 144 270 299 415 374
95 50 176 70 189 48z m6630 -137 c24 -9 19 -41 -6 -48 -29 -7 -163 -8 -156 0
4 4 134 52 145 54 1 0 8 -3 17 -6z m2306 -175 c13 -24 8 -34 -15 -26 -16 7
-21 47 -5 47 5 0 14 -9 20 -21z m-10030 -298 c0 -11 -48 -51 -61 -51 -16 0 -9
39 9 49 22 13 52 14 52 2z m5999 -451 l-31 -60 21 -36 c12 -19 21 -39 21 -45
0 -18 -39 -9 -68 16 -38 32 -47 31 -89 -5 -50 -44 -70 -36 -59 23 7 38 55 98
62 80 10 -23 30 -14 88 37 79 69 95 66 55 -10z m4541 -150 c19 -16 51 -45 70
-65 19 -21 59 -53 88 -72 28 -18 52 -37 52 -41 0 -14 -24 -32 -43 -32 -28 0
-71 -28 -93 -61 -10 -16 -24 -31 -31 -33 -6 -3 -32 11 -58 30 -65 50 -76 42
-74 -52 2 -84 -9 -104 -58 -104 -36 0 -55 56 -57 167 0 51 -1 93 -2 93 0 0
-15 -11 -34 -25 -42 -31 -58 -32 -66 -1 -7 30 27 110 64 149 47 50 144 91 187
80 11 -3 36 -18 55 -33z m-3762 -123 c54 -58 48 -191 -15 -327 -34 -73 -34
-76 -22 -133 14 -68 6 -344 -10 -360 -13 -13 -39 45 -48 108 -7 51 -23 58 -60
23 -16 -15 -26 -19 -34 -11 -13 13 -28 77 -29 121 0 17 -3 32 -7 32 -4 0 -22
-14 -39 -31 -22 -21 -38 -29 -50 -25 -27 10 -15 114 19 163 28 40 34 67 17 78
-5 3 -18 -3 -30 -15 -11 -11 -22 -20 -25 -20 -12 0 -3 58 13 88 20 38 113 151
125 151 4 1 7 -32 7 -72 0 -46 5 -80 14 -92 13 -18 14 -18 25 3 6 11 11 32 11
46 0 14 9 48 20 76 24 61 24 60 5 60 -40 0 -16 67 48 138 26 28 38 28 65 -1z
m-668 -37 c0 -10 -12 -28 -26 -39 -48 -38 -124 -51 -124 -22 0 21 47 62 85 75
45 16 65 11 65 -14z m-92 -142 c18 -18 15 -28 -8 -28 -13 0 -20 7 -20 20 0 23
10 26 28 8z m-122 -19 c37 -22 54 -47 54 -76 -1 -17 -1 -17 -14 -1 -20 27 -57
36 -127 31 -37 -2 -70 0 -79 7 -13 9 -11 14 13 35 36 32 105 34 153 4z m3243
-70 c3 -24 3 -24 -18 -5 -11 10 -18 23 -15 28 10 16 29 2 33 -23z m139 -41
c24 -24 14 -85 -19 -123 -32 -37 -67 -60 -76 -52 -2 3 9 29 25 58 17 30 33 71
36 92 7 39 14 45 34 25z m875 -1 c18 -8 38 -21 46 -30 12 -16 8 -17 -52 -17
-73 0 -97 6 -97 25 0 12 35 33 58 34 7 1 27 -5 45 -12z m-3847 -19 c4 -6 0
-16 -8 -22 -23 -17 -38 -51 -38 -85 0 -32 -14 -42 -24 -16 -8 23 -35 18 -48
-9 -14 -32 -32 -38 -63 -24 -30 14 -31 18 -5 69 36 69 161 128 186 87z m-630
-23 c13 -20 14 -28 4 -40 -25 -30 -70 -11 -70 30 0 43 41 49 66 10z m164 10
c10 -12 10 -19 1 -28 -14 -14 -44 2 -49 27 -4 21 31 22 48 1z m2799 -45 c12
-27 26 -72 31 -100 17 -90 67 -158 139 -189 99 -42 77 -68 -30 -37 -99 29
-122 45 -159 109 -41 71 -47 109 -25 157 12 26 16 52 12 75 -8 50 7 43 32 -15z
m142 -52 c30 -60 32 -88 3 -52 -19 24 -53 95 -54 112 0 25 21 0 51 -60z m209
2 c0 -23 -35 -28 -43 -6 -7 18 1 26 25 26 11 0 18 -7 18 -20z m414 -56 c17
-16 22 -64 7 -64 -5 0 -15 7 -22 16 -10 13 -27 15 -76 12 -35 -2 -63 -3 -63
-1 0 1 21 14 48 27 55 29 85 32 106 10z m-3361 -34 c-12 -118 -13 -120 -47
-120 -20 0 -40 -8 -51 -20 -10 -11 -24 -20 -32 -20 -19 0 -53 37 -53 59 0 23
41 65 100 103 55 35 86 34 83 -2z m3764 -44 c-16 -24 -94 -76 -81 -54 4 7 26
35 48 62 30 35 42 44 44 32 2 -9 -3 -27 -11 -40z m657 32 c26 -11 42 -40 32
-57 -3 -5 -23 -12 -43 -16 -51 -9 -54 -12 -43 -40 11 -29 12 -29 -32 -11 -24
10 -53 13 -92 9 -52 -5 -58 -4 -63 15 -5 22 -5 22 -35 -4 -37 -30 -101 -64
-123 -64 -27 0 -16 37 20 69 94 82 299 136 379 99z m356 -88 c0 -33 -11 -38
-30 -15 -10 12 -10 18 0 30 19 23 30 18 30 -15z m-5037 -66 c26 -9 47 -20 47
-24 0 -13 -85 -42 -111 -38 -16 2 -25 11 -27 26 -8 55 13 63 91 36z m638 -76
c-3 -77 -3 -77 30 -108 44 -39 18 -39 -41 1 -32 22 -52 29 -70 25 -63 -14
-118 -18 -124 -8 -10 16 12 64 47 101 48 51 87 72 127 69 l35 -3 -4 -77z
m4075 23 c-9 -13 -46 -15 -46 -1 0 14 34 30 44 20 4 -4 5 -13 2 -19z m-4347
-127 c42 -54 10 -164 -43 -150 -25 6 -40 -2 -49 -26 -7 -21 -37 -24 -55 -6
-32 32 5 123 77 185 33 29 45 29 70 -3z m4291 -35 c0 -10 -4 -19 -10 -19 -13
0 -30 34 -30 62 l1 23 19 -24 c11 -13 20 -32 20 -42z m418 16 c2 -25 11 -44
24 -53 17 -12 19 -22 15 -55 -7 -50 -34 -78 -78 -80 -39 -2 -39 -10 -13 136
14 78 21 97 33 95 11 -2 17 -16 19 -43z m-350 2 c2 -10 -3 -17 -12 -17 -18 0
-29 16 -21 31 9 14 29 6 33 -14z m-4061 -74 c-8 -9 -37 -18 -63 -20 -59 -6
-51 8 16 30 50 17 70 12 47 -10z m688 -14 c12 -19 -4 -61 -23 -57 -30 6 -28
68 2 68 8 0 18 -5 21 -11z m-1505 -12 c0 -8 -9 -22 -20 -32 -23 -21 -25 -16
-8 20 12 27 28 34 28 12z m4630 -72 c0 -20 -38 -57 -50 -50 -15 9 -12 26 7 47
20 22 43 24 43 3z m-3620 -70 c14 -8 36 -14 49 -15 19 0 22 -4 17 -22 -4 -13
-9 -39 -13 -58 -8 -46 -18 -58 -47 -53 -19 4 -26 -1 -33 -24 l-10 -28 -13 44
c-8 23 -20 45 -28 48 -8 3 -34 -14 -61 -41 -26 -25 -51 -46 -57 -46 -15 0 -34
46 -34 83 0 43 29 99 60 114 34 17 139 16 170 -2z m4270 -5 c28 -28 24 -120
-5 -120 -14 0 -95 84 -95 99 0 14 41 41 62 41 10 0 27 -9 38 -20z m-4981 -24
c24 -26 21 -46 -7 -46 -34 0 -62 -29 -62 -66 0 -19 -3 -34 -8 -34 -4 0 -31 27
-60 60 l-53 60 43 19 c66 28 71 29 99 30 15 1 35 -9 48 -23z m4695 -210 c10
-21 15 -49 12 -62 -5 -17 -1 -26 13 -34 23 -12 75 -116 65 -131 -8 -14 -50 25
-79 76 -39 66 -76 193 -81 280 l-4 80 29 -85 c15 -47 36 -103 45 -124z m-2891
170 c3 -12 -30 -32 -39 -24 -11 12 5 40 21 36 9 -2 17 -7 18 -12z m-2073 -91
c0 -13 -4 -27 -10 -30 -6 -4 -10 8 -10 30 0 22 4 34 10 30 6 -3 10 -17 10 -30z
m1930 -4 c0 -24 18 -36 48 -32 16 2 22 -3 22 -18 0 -25 -14 -34 -40 -26 -32
10 -68 95 -40 95 6 0 10 -9 10 -19z m-1256 -6 c23 -23 39 -92 28 -123 -6 -21
-17 -28 -43 -32 l-34 -5 0 -60 0 -60 -58 0 c-38 0 -61 -5 -66 -14 -7 -11 -13
-10 -35 4 -36 24 -54 13 -62 -34 -7 -47 -25 -65 -52 -57 -21 7 -42 46 -42 76
0 25 71 95 109 108 22 8 38 5 75 -11 58 -25 66 -18 66 66 0 67 18 118 51 141
29 20 43 20 63 1z m1476 -22 c0 -19 -3 -24 -10 -17 -6 6 -8 18 -4 27 9 24 14
21 14 -10z m2650 -8 c0 -20 -39 -40 -52 -27 -6 6 -8 18 -5 26 8 20 57 21 57 1z
m-2741 -75 c-5 -19 -9 -39 -9 -43 0 -5 -4 -5 -10 -2 -14 8 -13 71 2 98 11 21
11 21 18 2 4 -11 3 -35 -1 -55z m3189 58 c13 -13 17 -88 4 -88 -13 0 -54 79
-47 90 8 14 28 13 43 -2z m-5145 -64 c45 -58 207 -381 207 -412 0 -36 -41 -27
-94 19 -26 23 -55 58 -64 77 -11 23 -26 38 -42 42 -23 6 -25 10 -22 57 3 45 0
54 -25 77 -24 22 -28 35 -31 96 -7 116 8 126 71 44z m966 -5 c-30 -38 -32 -49
-14 -92 7 -16 3 -17 -33 -11 -38 6 -40 5 -35 -15 5 -19 3 -21 -20 -12 -33 13
-40 2 -32 -43 4 -20 2 -36 -4 -40 -16 -11 -13 -36 4 -36 9 0 42 -13 75 -30 33
-16 62 -30 66 -30 3 0 -8 25 -25 55 -28 50 -39 85 -26 85 3 0 22 -9 42 -20 21
-11 45 -20 55 -20 44 0 48 -92 6 -137 -21 -23 -21 -25 -5 -52 9 -16 17 -31 17
-33 0 -1 -19 -3 -42 -3 -39 0 -44 -3 -63 -37 -15 -28 -31 -41 -60 -51 -33 -11
-49 -26 -88 -85 -53 -79 -65 -84 -125 -53 -104 53 -221 163 -208 196 5 14 11
12 40 -10 42 -32 57 -26 49 19 -9 54 38 125 177 272 69 72 133 143 142 157 19
27 115 80 130 71 5 -3 -6 -23 -23 -45z m3691 12 c0 -26 -135 -181 -157 -181
-26 0 -12 30 32 66 27 22 48 49 53 68 9 35 72 76 72 47z m498 -78 c5 -10 12
-30 16 -45 5 -23 3 -28 -12 -28 -28 0 -87 54 -79 73 9 23 63 23 75 0z m-3142
-134 c7 -76 -1 -128 -18 -111 -13 13 -23 171 -13 208 l8 29 8 -29 c4 -16 11
-60 15 -97z m215 39 c18 -42 18 -181 0 -231 -7 -21 -15 -36 -17 -34 -18 18
-42 276 -27 290 14 15 31 5 44 -25z m2810 -118 c36 -20 21 -110 -18 -110 -20
0 -53 38 -53 60 0 18 32 60 46 60 3 0 14 -5 25 -10z m-673 -12 c22 -22 13 -59
-23 -95 -19 -19 -40 -33 -47 -31 -7 3 -14 25 -16 51 -2 36 2 51 17 66 24 24
51 27 69 9z m-4038 -48 c19 -19 27 -50 13 -50 -12 0 -53 43 -53 57 0 19 17 16
40 -7z m1800 -55 c0 -13 -4 -27 -10 -30 -6 -4 -10 8 -10 30 0 22 4 34 10 30 6
-3 10 -17 10 -30z m2675 -6 c88 -12 155 -43 155 -71 0 -23 -12 -22 -135 6 -38
8 -105 16 -147 16 -42 0 -79 4 -82 9 -10 15 21 32 71 41 66 11 60 11 138 -1z
m-377 -42 c5 -27 -15 -45 -58 -52 -38 -6 -80 7 -80 25 0 18 84 51 120 46 8 0
16 -9 18 -19z m-3298 -69 c0 -27 25 -73 83 -151 27 -37 47 -71 43 -74 -3 -3
-40 27 -83 67 -42 41 -78 69 -80 63 -2 -5 5 -30 16 -54 22 -49 15 -59 -24 -33
-26 17 -28 17 -61 -1 -36 -19 -50 -15 -56 20 -2 14 3 20 20 21 12 1 31 9 42
19 19 17 50 94 50 125 0 9 5 21 12 28 15 15 38 -3 38 -30z m-830 -12 c0 -18
-7 -41 -15 -52 -13 -16 -16 -17 -25 -4 -19 27 8 109 31 94 5 -3 9 -20 9 -38z
m1437 -28 c-9 -75 -27 -86 -27 -17 0 55 5 69 23 69 6 0 7 -21 4 -52z m443 2
c18 -10 47 -77 37 -86 -7 -8 -64 23 -88 47 -34 34 5 64 51 39z m-383 -97 c-4
-17 -4 -17 -12 0 -4 9 -4 25 0 35 8 16 8 16 12 0 3 -10 3 -26 0 -35z m117 24
c13 -20 5 -30 -18 -21 -9 3 -16 15 -16 26 0 22 18 20 34 -5z m-1387 -112 c34
-36 66 -79 70 -95 5 -20 20 -36 42 -48 51 -26 73 -62 76 -124 1 -29 7 -63 13
-74 16 -30 70 -74 90 -74 9 0 26 -12 37 -27 26 -32 50 -23 40 15 -9 34 11 44
54 26 54 -22 90 -62 106 -118 8 -27 22 -58 32 -68 13 -15 14 -23 5 -43 -17
-36 -46 -31 -83 15 -18 22 -36 40 -40 40 -5 0 -25 -15 -45 -32 l-37 -33 6 33
c5 25 3 34 -10 39 -9 4 -19 1 -21 -5 -8 -24 -31 -39 -70 -46 -22 -3 -45 -13
-52 -21 -18 -22 -40 -18 -40 8 -1 22 -1 22 -16 2 -29 -36 -5 -239 25 -220 5 3
14 28 21 56 20 84 62 74 76 -17 3 -25 10 -46 14 -49 4 -2 25 25 48 60 41 65
70 86 57 43 -20 -66 -143 -218 -176 -218 -10 0 -23 9 -29 20 -6 11 -15 20 -19
20 -5 0 -31 -35 -57 -77 -27 -43 -86 -117 -133 -166 -46 -48 -81 -90 -78 -93
13 -13 82 22 212 107 130 85 187 119 200 119 3 0 -14 -25 -39 -56 -36 -44 -46
-64 -46 -93 0 -20 -7 -46 -15 -58 -35 -50 -234 -90 -315 -63 -36 12 -42 11
-95 -19 -60 -34 -61 -30 -9 34 73 90 295 492 294 532 -1 44 -91 -93 -120 -181
-12 -38 -98 -146 -178 -222 -24 -23 -76 -58 -115 -77 -40 -19 -78 -42 -86 -51
-16 -20 -45 -21 -60 -2 -13 15 -1 29 36 40 33 10 153 132 212 216 69 98 133
217 165 308 26 73 34 142 17 142 -13 0 -41 29 -41 41 0 6 12 22 26 36 22 22
27 35 26 80 0 67 -11 133 -22 133 -4 0 -15 -21 -25 -46 -20 -52 -30 -46 -41
22 -5 33 -1 50 18 83 28 49 18 73 -33 81 -30 4 -34 9 -37 39 -2 23 -9 35 -23
38 -27 7 -29 65 -3 115 16 32 26 36 84 37 42 1 48 -2 107 -64z m1408 -1 c8
-19 40 -65 72 -101 54 -62 56 -66 38 -79 -10 -8 -27 -14 -36 -14 -38 0 -160
177 -146 213 4 10 17 17 32 17 19 0 28 -8 40 -36z m2382 20 c4 -10 -12 -33
-46 -68 -54 -54 -61 -75 -35 -97 13 -10 21 -10 47 0 55 22 61 22 82 6 19 -14
19 -16 2 -29 -10 -8 -39 -17 -65 -21 -26 -4 -76 -20 -111 -36 -35 -16 -66 -27
-68 -25 -10 10 32 154 55 189 53 79 124 120 139 81z m593 -42 c0 -24 -28 -62
-46 -62 -19 0 -18 6 7 46 23 37 39 44 39 16z m-3692 -8 c27 -18 29 -44 4 -44
-18 0 -40 19 -56 48 -10 18 25 15 52 -4z m2798 -40 c8 -33 -10 -54 -30 -34
-10 11 -11 22 -5 38 11 29 27 28 35 -4z m515 -65 c23 -44 -10 -129 -51 -129
-9 0 -27 11 -39 24 l-23 25 38 18 c32 15 40 24 42 51 4 37 16 41 33 11z m205
6 c19 -15 18 -16 -9 -40 -15 -14 -37 -25 -48 -25 -20 0 -62 57 -53 72 9 14 89
9 110 -7z m269 -26 c0 -8 -10 -15 -22 -17 -25 -4 -30 7 -11 26 15 15 33 10 33
-9z m-2846 -20 c33 -12 38 -27 19 -60 -10 -17 -10 -23 -1 -26 30 -11 56 -41
50 -56 -10 -26 -52 -21 -71 8 -15 22 -20 24 -39 14 -12 -7 -37 -25 -55 -41
-39 -33 -52 -29 -52 16 0 40 15 56 56 56 41 0 55 18 47 63 -6 40 -2 43 46 26z
m1831 -28 c13 -25 13 -108 0 -116 -12 -7 -30 36 -30 70 0 29 -16 35 -60 20
-28 -9 -36 -18 -38 -41 -4 -34 -19 -54 -39 -54 -18 0 -11 51 11 85 33 50 136
73 156 36z m-2906 3 c20 -8 21 -54 2 -54 -8 0 -24 8 -36 18 -35 28 -11 53 34
36z m206 -174 c0 -11 -33 -30 -52 -30 -7 1 -3 9 11 20 25 22 41 26 41 10z
m-6790 -176 c0 -18 -14 -18 -30 1 -16 19 -3 40 16 24 8 -6 14 -18 14 -25z
m6720 -14 c0 -47 -16 -93 -30 -85 -13 8 -13 91 1 116 15 29 29 14 29 -31z
m-1852 -23 c5 -17 7 -38 4 -46 -9 -23 -52 35 -52 70 0 26 2 29 20 19 11 -6 23
-25 28 -43z m2032 -56 c0 -20 -9 -37 -31 -55 -34 -29 -62 -35 -53 -11 13 32
-48 8 -67 -27 -9 -16 -8 -22 2 -29 9 -6 1 -9 -23 -9 -33 0 -39 -4 -52 -34 -8
-18 -32 -48 -55 -66 -47 -38 -55 -64 -16 -54 50 12 26 -29 -72 -123 -76 -73
-95 -95 -85 -105 22 -22 13 -28 -38 -28 l-50 0 26 43 c44 69 82 111 122 133
23 13 38 29 40 44 3 18 0 21 -13 16 -27 -10 -36 3 -21 32 15 29 156 168 222
220 56 43 125 82 147 82 12 0 17 -8 17 -29z m253 -33 c3 -13 2 -39 -2 -58 l-8
-35 -11 26 c-6 16 -22 29 -39 34 l-28 7 30 24 c37 30 51 30 58 2z m892 -59
c-6 -32 -3 -40 11 -46 11 -4 22 0 30 12 12 17 14 16 24 -10 6 -16 18 -34 27
-40 14 -10 12 -13 -15 -18 -23 -5 -35 -15 -45 -39 -19 -44 -91 -108 -122 -108
-33 0 -32 7 12 52 31 32 34 38 18 38 -11 0 -27 5 -35 10 -12 8 -11 12 7 32 27
28 53 89 53 121 0 26 18 49 32 41 5 -4 6 -24 3 -45z m-3200 21 c0 -16 -28 -25
-52 -16 -12 5 -13 9 -3 22 16 18 55 15 55 -6z m1759 -12 c-12 -38 -53 -85 -90
-103 -20 -9 -38 -15 -40 -12 -11 10 112 137 133 137 2 0 1 -10 -3 -22z m-5206
-60 c7 -7 12 -20 12 -30 0 -16 -3 -17 -20 -8 -11 6 -20 20 -20 30 0 23 10 26
28 8z m3453 -70 c6 -11 14 -58 16 -102 5 -72 3 -84 -16 -106 -17 -21 -22 -23
-30 -10 -17 26 -23 114 -12 175 6 32 11 60 11 62 0 12 21 -1 31 -19z m2009 -2
c0 -23 -62 -98 -98 -119 -26 -15 -35 -17 -47 -7 -21 18 -9 30 31 30 39 0 54
21 36 51 -17 27 -15 34 11 47 32 16 67 14 67 -2z m512 -93 c62 -32 113 -62
113 -68 0 -5 -18 -11 -41 -13 -29 -2 -55 5 -97 27 -62 32 -90 31 -85 -3 2 -15
14 -24 43 -31 22 -6 56 -19 75 -29 26 -15 234 -55 284 -56 6 0 4 -6 -3 -12
-22 -23 -166 -14 -256 16 -139 45 -172 76 -182 170 -5 52 -4 56 15 56 12 0 72
-26 134 -57z m-322 20 c-1 -5 -15 -17 -33 -28 -37 -23 -34 -41 6 -37 23 3 27
0 27 -23 0 -35 -23 -77 -60 -108 -41 -35 -69 -42 -87 -24 -20 19 -10 34 34 52
l36 15 -6 61 c-4 51 -2 64 14 80 18 18 69 27 69 12z m790 -23 c0 -5 -11 -10
-25 -10 -14 0 -25 5 -25 10 0 6 11 10 25 10 14 0 25 -4 25 -10z m-670 -24 c0
-8 -12 -24 -27 -36 -26 -20 -28 -21 -32 -4 -2 10 7 26 19 36 27 22 40 23 40 4z
m1058 -43 c-3 -24 -7 -28 -30 -25 -37 4 -46 -17 -17 -39 20 -16 22 -20 9 -28
-29 -20 -91 -24 -107 -8 -13 12 -13 21 -3 51 12 36 25 46 32 24 2 -6 18 2 39
20 18 17 44 32 57 32 20 0 23 -4 20 -27z m-638 -33 c0 -5 -11 -10 -25 -10 -14
0 -25 5 -25 10 0 6 11 10 25 10 14 0 25 -4 25 -10z m404 -67 c4 -9 -5 -40 -21
-70 -22 -44 -25 -58 -15 -73 10 -16 7 -20 -17 -28 -16 -6 -49 -32 -74 -58 -26
-26 -50 -45 -54 -41 -3 4 12 33 36 65 23 31 60 94 81 140 40 83 53 96 64 65z
m-234 -16 c0 -7 9 -30 21 -51 11 -21 18 -40 16 -43 -3 -2 -19 3 -36 12 -31 16
-36 30 -25 73 7 23 24 31 24 9z m-2520 -97 c9 -30 -13 -76 -31 -65 -10 7 -12
108 -2 119 8 8 22 -14 33 -54z m1597 2 c-9 -8 -32 -24 -53 -36 -21 -11 -45
-34 -54 -51 -26 -47 -95 -47 -126 0 -22 33 -4 55 45 55 40 0 100 25 158 64 38
26 38 26 41 5 2 -12 -3 -28 -11 -37z m198 4 c28 -94 36 -167 22 -195 -16 -34
-101 -101 -273 -215 -147 -98 -327 -200 -343 -194 -11 4 375 294 464 348 106
64 155 115 103 108 -24 -3 -24 -1 -13 45 11 43 -18 45 -67 3 -40 -34 -58 -44
-58 -29 0 3 22 30 50 59 27 29 57 68 67 88 9 20 20 36 25 36 4 0 14 -24 23
-54z m1090 2 c6 -21 4 -28 -8 -28 -17 0 -49 28 -44 38 2 4 7 16 11 26 6 17 9
18 21 5 7 -8 17 -26 20 -41z m-771 -47 c-5 -4 -29 -13 -54 -20 -55 -15 -120
-56 -120 -75 0 -19 -21 -26 -42 -14 -23 11 -23 25 2 73 11 22 20 50 20 62 0
27 0 27 47 8 19 -8 49 -15 65 -15 28 0 29 2 23 33 l-6 32 36 -38 c21 -22 33
-42 29 -46z m121 19 c0 -51 2 -55 22 -53 12 2 47 18 77 38 59 38 89 45 79 20
-9 -24 -88 -75 -143 -91 -41 -12 -60 -27 -117 -92 -144 -163 -283 -300 -283
-277 0 2 22 30 50 60 27 30 60 76 74 102 13 27 45 65 70 86 66 54 78 77 87
167 4 44 11 84 14 90 4 6 21 10 38 8 32 -3 32 -4 32 -58z m-2334 -74 c-7 -8
-19 -12 -27 -9 -13 5 -12 8 2 24 21 23 45 9 25 -15z m2614 24 c16 -26 -110
-160 -151 -160 -9 0 -14 -11 -14 -29 0 -26 -4 -29 -40 -34 -55 -7 -193 -73
-226 -108 -27 -29 -54 -38 -54 -19 0 14 90 83 192 149 133 86 128 82 91 78
-18 -2 -33 0 -33 4 0 12 92 84 135 107 43 23 90 28 100 12z m-2282 -24 c7 -17
-21 -58 -34 -51 -10 7 -12 48 -2 58 11 12 31 8 36 -7z m-597 -22 c14 -57 -13
-151 -57 -195 -12 -12 -19 -33 -19 -58 0 -22 -5 -52 -10 -67 -10 -25 -12 -26
-26 -12 -19 19 -12 59 35 188 17 47 35 104 41 128 12 48 27 54 36 16z m144 1
c0 -14 -4 -25 -10 -25 -5 0 -10 11 -10 25 0 14 5 25 10 25 6 0 10 -11 10 -25z
m1240 -36 c13 -24 8 -34 -15 -26 -16 7 -21 47 -5 47 5 0 14 -9 20 -21z m-1501
-75 c-13 -16 -59 -19 -59 -3 0 6 15 25 33 42 l32 32 3 -28 c2 -16 -2 -35 -9
-43z m2181 60 c0 -9 -16 -21 -153 -117 -65 -45 -132 -92 -149 -105 -38 -27
-59 -15 -36 21 32 48 119 135 145 145 16 6 52 16 81 21 30 6 63 18 75 26 23
16 37 19 37 9z m340 -9 c0 -8 -50 -50 -112 -92 -207 -145 -233 -166 -233 -193
0 -22 -16 -33 -137 -93 -81 -40 -138 -74 -138 -83 0 -23 21 -17 132 35 113 54
158 69 158 53 0 -5 -29 -28 -64 -50 -35 -23 -71 -53 -80 -67 -22 -34 -46 -45
-251 -115 -97 -33 -194 -69 -214 -80 -43 -22 -143 -42 -154 -31 -17 16 9 45
62 68 31 14 109 43 175 65 159 52 196 72 196 103 0 13 -4 27 -10 30 -39 24 23
81 175 160 64 34 93 55 101 74 13 31 66 68 234 165 114 65 160 80 160 51z
m-1172 -7 c-6 -17 -40 -26 -63 -18 -19 8 -19 8 5 18 34 14 63 15 58 0z m537
-50 c-23 -44 -194 -212 -276 -270 -35 -26 -78 -49 -94 -53 -84 -19 -175 -71
-175 -100 0 -17 -79 -77 -91 -70 -13 9 19 87 48 117 25 26 116 68 148 68 8 0
40 9 70 21 73 27 125 72 125 108 0 29 24 72 64 115 24 25 29 26 39 12 11 -13
21 -9 82 39 38 30 71 52 73 50 2 -2 -4 -18 -13 -37z m-1595 12 c0 -6 -11 -22
-25 -35 -13 -14 -29 -25 -35 -25 -16 0 -12 31 7 52 17 19 53 25 53 8z m1223
-24 c3 -12 -30 -32 -39 -24 -11 12 5 40 21 36 9 -2 17 -7 18 -12z m1747 4 c0
-12 -59 -50 -79 -50 -21 0 7 30 44 46 37 16 35 16 35 4z m-9206 -23 c13 -20
-2 -50 -28 -55 -22 -5 -31 24 -17 54 12 28 28 28 45 1z m6084 -85 c-13 -25
-29 -48 -37 -50 -22 -7 -7 50 26 100 25 37 28 39 31 19 2 -12 -7 -43 -20 -69z
m302 78 c0 -15 -38 -32 -45 -20 -3 5 -3 15 0 20 8 13 45 13 45 0z m2600 -25
c-11 -10 -19 -11 -30 -4 -13 8 -12 11 4 24 26 19 47 2 26 -20z m-9080 -60 c0
-63 -38 -178 -70 -209 -21 -21 -21 -21 -36 -2 -8 11 -14 38 -14 60 0 67 85
226 111 210 5 -3 9 -29 9 -59z m3529 51 c21 -25 -23 -95 -46 -72 -8 7 -6 62 2
76 9 14 31 12 44 -4z m3554 -25 c-23 -19 -151 -56 -161 -46 -18 18 90 63 153
64 l30 0 -22 -18z m-1505 -19 c15 -23 13 -26 -63 -99 -43 -41 -98 -84 -123
-95 -40 -18 -46 -18 -60 -4 -14 14 -13 19 13 56 16 23 56 65 89 94 96 84 116
90 144 48z m237 6 c-4 -13 -9 -31 -12 -41 -4 -16 -11 -18 -41 -12 -41 7 -82
30 -82 45 0 6 21 10 48 10 26 0 54 5 62 10 24 16 32 12 25 -12z m-2425 -4 c0
-2 -14 -4 -31 -4 -16 0 -28 4 -25 9 5 8 56 3 56 -5z m2881 -31 c-9 -16 -10
-14 -11 12 0 21 3 26 11 18 8 -8 8 -16 0 -30z m1054 26 c11 -17 -1 -22 -68
-30 -34 -5 -84 -20 -111 -34 -27 -14 -55 -25 -62 -25 -19 0 -40 -37 -53 -95
-13 -55 -35 -95 -52 -95 -7 0 -9 13 -4 36 6 36 6 36 -22 30 -56 -14 -193 -87
-210 -112 -62 -90 -127 -137 -229 -167 -59 -17 -97 -6 -102 30 -2 16 5 23 29
32 18 6 41 11 52 11 11 0 49 5 84 11 80 14 119 44 128 99 9 54 47 84 137 105
92 22 138 41 138 55 0 8 -16 11 -45 8 -67 -5 -51 12 46 50 46 18 107 42 134
53 106 44 197 61 210 38z m1086 -37 c-43 -61 -142 -139 -162 -127 -13 9 -5 61
14 83 15 19 125 71 150 72 17 0 17 -2 -2 -28z m-2763 -34 c19 -19 15 -130 -7
-180 -22 -50 -75 -105 -86 -89 -3 7 -9 36 -12 65 -5 46 -2 57 16 75 11 11 30
21 40 21 11 0 23 5 26 10 10 16 -15 40 -41 40 -31 0 -30 7 3 42 29 31 43 34
61 16z m540 -41 c3 -12 -3 -17 -21 -17 -31 0 -40 10 -25 27 15 18 42 12 46
-10z m2667 -21 c-59 -51 -199 -126 -233 -126 -16 0 -35 6 -41 14 -16 19 26 52
83 66 84 20 173 50 191 65 39 29 39 14 0 -19z m-2380 -6 c3 -6 -6 -15 -21 -20
-39 -15 -79 1 -57 23 10 11 71 8 78 -3z m180 0 c3 -5 -1 -10 -9 -10 -25 0 -66
-22 -66 -36 0 -16 -28 -26 -36 -13 -9 15 25 48 60 58 42 12 44 12 51 1z m115
-33 c0 -15 -44 -39 -54 -30 -8 9 24 43 41 43 7 0 13 -6 13 -13z m1571 -14
c-64 -89 -175 -202 -187 -190 -15 15 75 124 148 180 60 44 66 46 39 10z
m-4846 -23 c8 -13 -8 -38 -88 -138 -35 -43 -71 -97 -80 -120 -17 -43 -24 -182
-9 -182 9 1 73 83 124 159 34 50 38 63 38 117 0 77 12 89 81 81 70 -9 108 -34
130 -84 18 -42 18 -43 -7 -88 -13 -25 -48 -78 -78 -118 -58 -78 -174 -194
-161 -162 4 11 11 40 14 64 5 38 10 46 34 52 36 10 54 25 83 71 30 47 31 68 4
61 -33 -9 -24 18 31 84 28 34 49 68 47 75 -6 17 -69 -50 -167 -176 -90 -116
-275 -315 -285 -305 -4 3 7 23 24 44 34 43 37 60 13 75 -16 9 -15 10 7 9 61
-3 63 2 19 57 -17 22 -35 50 -40 63 -12 29 -3 61 17 61 15 0 17 9 14 47 -1 17
3 21 14 17 9 -3 19 3 27 18 6 13 36 49 66 81 58 64 67 87 29 80 -21 -4 -24 -2
-19 16 3 12 15 28 26 36 25 17 83 20 92 5z m2610 -15 c-1 -5 -25 -22 -55 -36
-61 -29 -68 -42 -69 -122 -1 -77 15 -106 96 -163 81 -58 143 -113 143 -126 0
-14 -64 -1 -116 24 -128 60 -223 273 -164 366 11 19 39 42 63 53 43 19 102 22
102 4z m-748 -40 c-27 -24 -67 -34 -67 -16 0 18 38 37 80 40 9 0 4 -9 -13 -24z
m852 -11 c20 -14 28 -15 61 -4 47 16 76 6 95 -30 21 -41 19 -67 -10 -86 -30
-19 -60 -11 -82 22 -25 39 -50 48 -79 29 -13 -8 -24 -22 -24 -31 0 -39 74
-104 119 -104 29 0 89 -55 75 -70 -6 -5 -55 -11 -109 -13 l-99 -2 -9 55 c-12
78 -5 213 12 233 17 21 21 21 50 1z m391 0 c0 -11 -8 -14 -27 -12 -39 4 -42
28 -4 28 21 0 31 -5 31 -16z m-1080 -15 c0 -18 -78 -91 -92 -87 -7 3 -14 18
-16 35 -2 23 3 35 20 47 26 18 88 22 88 5z m165 -78 c-15 -29 -35 -42 -35 -22
0 19 21 66 33 73 19 12 20 -17 2 -51z m409 -26 c4 -25 4 -54 1 -65 -9 -27 -51
-26 -66 1 -14 27 -7 113 12 135 12 15 15 14 30 -5 9 -11 20 -41 23 -66z m1686
75 c-22 -15 -180 -64 -186 -58 -7 7 41 37 84 53 45 16 125 20 102 5z m1009 -6
c-16 -19 -83 -54 -104 -54 -27 0 -16 18 28 44 49 30 98 36 76 10z m-2939 4 c1
-32 53 -235 64 -254 10 -13 44 -46 76 -71 67 -51 79 -83 32 -83 -17 0 -37 9
-48 21 -10 12 -36 30 -58 41 -49 25 -56 17 -56 -77 0 -100 -10 -111 -110 -120
-44 -4 -80 -10 -80 -13 0 -3 7 -13 16 -23 9 -10 14 -25 11 -34 -7 -17 -39 -19
-141 -5 -89 11 -97 8 -94 -44 l3 -41 -46 -3 c-30 -2 -50 2 -57 11 -14 17 -27
149 -18 174 7 17 8 17 22 -1 8 -11 14 -32 14 -46 0 -14 7 -35 15 -46 14 -17
15 -12 13 60 -2 53 1 81 9 83 6 2 34 -16 62 -41 29 -26 54 -46 56 -46 2 0 1
92 -2 205 -4 138 -3 205 4 205 6 0 13 -22 17 -49 4 -34 15 -57 36 -79 17 -18
36 -55 45 -89 24 -84 24 -85 35 -78 6 4 10 64 10 150 0 149 4 175 25 175 20 0
34 -47 45 -149 6 -52 13 -97 15 -100 13 -13 20 23 30 167 12 150 23 202 45
202 6 0 10 -1 10 -2z m3531 -19 c7 -14 8 -24 1 -31 -17 -17 -42 -1 -42 27 0
31 25 34 41 4z m-936 -28 c3 -5 -5 -11 -17 -13 -19 -2 -24 -10 -26 -40 -4 -43
-8 -45 -34 -21 -23 21 -23 59 0 72 22 13 69 14 77 2z m-5035 -86 c0 -22 -55
-79 -68 -71 -22 14 28 84 61 86 4 0 7 -7 7 -15z m4555 -1 c-11 -8 -67 -40
-125 -71 -58 -31 -126 -71 -152 -89 l-47 -33 -21 26 c-31 40 -26 59 18 67 21
3 76 23 123 45 102 48 166 70 199 70 24 0 25 0 5 -15z m1195 8 c0 -14 -56 -96
-90 -132 -45 -47 -51 -24 -11 39 50 78 101 125 101 93z m-756 -48 c27 -10 18
-34 -19 -50 -22 -9 -35 -21 -35 -33 0 -21 -19 -31 -56 -31 -29 0 -30 7 -6 33
16 20 16 20 -3 13 -11 -4 -46 -10 -77 -13 -59 -6 -74 -17 -38 -28 31 -10 24
-23 -27 -56 -63 -39 -120 -56 -135 -41 -7 7 -29 12 -50 12 -26 0 -38 4 -38 14
0 14 22 25 95 47 22 6 60 26 85 44 59 42 104 65 160 81 49 13 119 17 144 8z
m-1308 -84 c-20 -22 -36 -48 -36 -58 0 -23 -25 -47 -63 -61 -34 -13 -34 -5 0
31 33 34 28 41 -20 27 -43 -12 -107 -64 -107 -87 0 -20 -29 -52 -47 -52 -9 0
-12 11 -11 32 3 28 -1 34 -20 36 -12 2 -33 -5 -47 -16 -27 -22 -107 -47 -127
-40 -18 7 115 73 205 102 82 27 188 79 257 125 36 25 46 28 48 16 2 -9 -12
-34 -32 -55z m224 2 c-31 -41 -108 -104 -123 -99 -7 2 20 36 62 78 71 70 107
83 61 21z m1568 31 c-10 -2 -26 -2 -35 0 -10 3 -2 5 17 5 19 0 27 -2 18 -5z
m-3523 -22 c3 -5 -5 -17 -17 -25 -24 -17 -51 -5 -41 20 6 16 49 19 58 5z
m1815 -26 c-19 -19 -38 -35 -44 -35 -5 0 5 16 24 35 19 19 38 35 44 35 5 0 -5
-16 -24 -35z m-760 1 c0 -18 -41 -45 -80 -53 -23 -4 -30 -2 -30 10 0 19 21 36
57 47 42 12 53 12 53 -4z m2377 -44 c-14 -20 -31 -49 -36 -64 -11 -28 -34 -37
-46 -18 -9 15 39 94 72 120 37 29 42 9 10 -38z m317 -23 c-21 -58 -25 -274 -6
-307 16 -27 27 -149 18 -186 -8 -34 -21 -33 -63 4 -25 23 -44 30 -73 30 -22 0
-57 9 -77 20 -21 11 -47 20 -58 20 -53 1 -58 42 -8 61 22 8 35 7 61 -5 45 -22
88 -20 112 4 11 11 20 24 20 29 0 4 -9 20 -20 34 -13 17 -20 40 -20 71 0 41
-3 47 -32 62 -18 9 -34 18 -36 19 -2 2 4 15 13 29 18 27 176 169 182 163 2 -2
-4 -24 -13 -48z m-3726 -21 c16 -16 15 -34 -4 -52 -20 -21 -34 -12 -34 23 0
40 15 52 38 29z m1752 -27 c0 -14 -52 -49 -86 -57 -27 -7 -28 -6 -14 11 8 10
33 26 55 36 47 22 45 21 45 10z m-6563 -45 c-4 -9 -11 -16 -17 -16 -15 0 -24
26 -16 47 6 15 8 15 23 1 9 -9 13 -24 10 -32z m7662 20 c14 -16 -1 -132 -19
-150 -16 -16 -50 29 -50 64 0 30 -15 40 -60 40 -34 0 -47 15 -30 35 21 26 140
34 159 11z m-4867 -37 c-18 -16 -38 -26 -44 -23 -14 9 36 54 60 54 13 -1 8 -8
-16 -31z m1718 -24 c-39 -41 -150 -120 -150 -108 0 22 167 160 178 148 3 -3
-9 -21 -28 -40z m90 -35 c-9 -21 -16 -28 -23 -21 -7 7 -4 19 7 36 23 34 32 25
16 -15z m3291 -12 c34 -19 51 -38 34 -38 -7 0 -85 52 -85 56 0 8 14 3 51 -18z
m175 -15 c24 -15 27 -15 55 1 39 23 45 16 18 -17 -34 -44 -109 -33 -109 15 0
22 4 22 36 1z m-5181 -110 c-6 -34 -7 -34 -44 -28 -30 5 -40 3 -44 -9 -10 -26
3 -47 25 -40 16 5 19 2 16 -13 -2 -10 -12 -18 -23 -18 -39 -1 -61 -16 -113
-75 -51 -58 -82 -75 -82 -47 0 19 39 76 155 223 l100 127 8 -43 c5 -24 6 -58
2 -77z m1803 54 c23 -24 54 -102 45 -111 -3 -3 -16 -3 -29 0 -17 4 -29 -2 -50
-25 -15 -17 -35 -31 -45 -31 -30 0 -50 -12 -59 -36 -6 -14 -20 -26 -37 -29
-68 -14 -75 -19 -95 -72 -22 -59 -76 -113 -113 -113 -28 0 -30 10 -14 74 9 35
16 45 44 55 38 13 133 112 139 144 3 12 7 38 11 58 3 21 13 43 21 50 13 11 22
7 56 -30 22 -23 45 -40 52 -38 6 2 12 26 14 53 1 27 5 55 7 62 7 19 29 14 53
-11z m3682 14 c0 -9 -101 -64 -138 -76 -23 -7 -23 -6 -7 19 24 36 74 66 113
66 17 0 32 -4 32 -9z m-5910 -43 c0 -25 -46 -108 -60 -108 -17 0 -11 31 17 81
28 53 43 62 43 27z m4919 -58 c11 -34 26 -38 52 -14 16 15 18 12 25 -42 l7
-57 18 48 c40 106 61 82 57 -67 -4 -118 1 -119 27 -8 20 86 41 133 55 125 15
-10 12 -99 -10 -261 -25 -180 -50 -448 -50 -526 0 -32 -4 -58 -9 -58 -31 0
-40 161 -20 350 11 108 7 142 -13 122 -7 -7 -16 -93 -24 -214 -16 -256 -24
-328 -34 -328 -14 0 -21 42 -27 165 -3 76 -1 148 7 195 16 95 18 159 5 161
-10 0 -14 -14 -56 -196 l-23 -100 -11 55 -11 55 -24 -63 -25 -63 -5 43 c-8 69
8 403 24 522 26 180 42 220 65 156z m-4879 -41 c0 -28 -39 -91 -52 -83 -19 12
19 104 42 104 6 0 10 -10 10 -21z m5288 -61 c18 -18 15 -28 -8 -28 -13 0 -20
7 -20 20 0 23 10 26 28 8z m115 6 c11 -11 -5 -34 -24 -34 -22 0 -24 11 -7 28
13 13 22 15 31 6z m150 -81 c9 -9 -12 -33 -29 -33 -17 0 -18 27 -1 33 18 8 23
8 30 0z m289 -10 c8 -10 23 -49 32 -88 10 -38 26 -84 37 -101 30 -49 20 -183
-13 -172 -27 9 -33 36 -16 72 l17 35 -41 -2 c-39 -2 -42 0 -51 33 -10 39 -22
50 -53 50 -12 0 -27 7 -34 16 -20 24 9 46 69 52 58 5 73 18 46 39 -43 31 -131
2 -235 -76 -30 -23 -56 -37 -58 -31 -5 14 34 118 54 144 13 18 18 19 50 7 30
-11 38 -11 52 3 42 37 119 47 144 19z m-5502 -24 c0 -11 -8 -32 -17 -47 -26
-41 -182 -230 -236 -287 -46 -48 -48 -49 -31 -15 20 41 181 276 231 338 35 43
53 47 53 11z m5685 -74 c0 -11 -7 -21 -16 -23 -18 -3 -33 23 -23 39 10 17 39
5 39 -16z m-778 -107 c-2 -18 -4 -4 -4 32 0 36 2 50 4 33 2 -18 2 -48 0 -65z
m175 30 c-9 -20 -11 -18 -11 22 0 40 2 42 11 23 8 -17 8 -29 0 -45z m-5102 -7
c0 -13 -79 -114 -145 -186 -32 -35 -55 -53 -55 -44 0 23 57 105 124 176 55 60
76 74 76 54z m5465 -113 c65 -73 94 -123 78 -139 -19 -19 -59 -2 -120 52 -70
62 -102 84 -110 76 -8 -8 12 -37 91 -132 72 -86 111 -154 97 -168 -15 -15 -48
11 -70 55 -11 24 -36 54 -55 66 -91 62 -144 198 -101 259 35 49 105 24 190
-69z m-395 29 c13 -10 44 -17 67 -17 24 0 43 -2 43 -4 0 -2 3 -11 6 -20 4 -9
-5 -25 -23 -42 l-28 -26 22 -18 c28 -22 20 -30 -28 -30 -46 0 -69 21 -69 63 0
42 -15 66 -31 50 -7 -7 -14 -84 -18 -217 -7 -193 -15 -245 -37 -223 -21 21
-13 318 12 505 l6 43 27 -24 c14 -13 37 -31 51 -40z m-5032 -47 c-3 -38 -7
-45 -33 -53 -43 -14 -70 -41 -131 -134 -58 -87 -100 -129 -140 -139 -42 -11
-39 3 16 63 29 32 93 111 141 175 121 160 154 180 147 88z m4864 -82 c-9 -32
-10 -31 -10 22 -1 46 1 52 10 33 8 -16 8 -32 0 -55z m-5232 48 c0 -15 -21 -26
-51 -26 -26 0 -24 19 4 30 32 13 47 12 47 -4z m394 -82 c8 -20 -11 -54 -29
-54 -19 0 -30 46 -15 65 13 16 36 10 44 -11z m5253 -69 c48 -48 51 -75 5 -51
-36 18 -82 65 -82 82 0 27 33 14 77 -31z m-22 -94 c45 -32 112 -114 121 -149
8 -30 -4 -41 -48 -48 -29 -5 -41 -1 -71 25 -20 18 -55 42 -79 55 -47 25 -65
57 -54 99 16 64 58 70 131 18z m-489 -53 c-4 -46 -18 -145 -32 -221 -14 -77
-23 -145 -20 -153 3 -7 -4 -20 -15 -27 -14 -10 -23 -34 -30 -78 -12 -80 -18
-99 -30 -99 -24 0 7 233 47 352 14 43 24 86 22 96 -2 10 3 27 11 36 9 10 15
43 16 85 2 69 8 91 27 91 7 0 9 -26 4 -82z m-326 15 c0 -23 -31 -262 -44 -343
-9 -52 -25 -171 -36 -265 -25 -207 -32 -231 -41 -150 -9 68 4 254 26 395 8 52
15 130 15 172 0 66 4 83 25 114 14 21 28 48 31 61 6 21 24 33 24 16z m100 -91
c0 -60 -52 -349 -68 -381 -11 -20 -23 -57 -27 -81 -9 -55 -23 -83 -36 -74 -14
9 -4 81 37 246 18 75 38 167 44 204 11 71 24 104 40 104 6 0 10 -8 10 -18z
m611 -37 c59 -21 156 -95 191 -147 28 -41 33 -78 13 -85 -6 -2 -55 40 -109 92
-69 67 -105 95 -122 95 -13 0 -24 -6 -24 -13 0 -7 34 -46 76 -86 76 -73 124
-150 124 -199 0 -23 0 -23 -31 -5 -39 22 -99 88 -99 108 0 8 -21 26 -47 41
-66 37 -73 49 -73 116 0 45 5 63 20 78 24 24 25 24 81 5z m-281 -50 c8 -27 11
-77 8 -125 -3 -45 -1 -83 3 -86 4 -2 24 23 45 56 20 33 39 59 40 57 8 -8 -29
-124 -71 -227 -25 -60 -45 -121 -45 -136 0 -44 -30 -146 -56 -191 -13 -23 -24
-54 -24 -69 0 -17 -12 -38 -34 -59 -32 -30 -33 -32 -14 -44 16 -10 18 -21 16
-74 -2 -48 -7 -62 -20 -65 -9 -2 -19 5 -23 17 -7 23 -31 34 -56 26 -30 -10
-23 -30 24 -72 24 -21 47 -44 51 -50 4 -7 -9 -62 -28 -123 -36 -109 -45 -170
-26 -170 15 0 38 52 86 192 46 134 69 188 82 188 27 -2 112 -108 112 -140 0
-13 -19 -55 -42 -93 -36 -60 -42 -78 -45 -136 -1 -36 -7 -116 -13 -176 -12
-118 -8 -151 30 -259 24 -70 26 -106 5 -106 -55 0 -97 303 -71 518 10 85 -4
97 -28 25 -49 -156 -86 -328 -91 -430 -22 -434 -31 -830 -20 -842 12 -12 24
26 30 99 12 139 31 158 75 75 14 -27 45 -79 68 -114 39 -59 48 -81 67 -165 3
-16 22 -43 43 -60 141 -120 179 -172 207 -285 17 -64 13 -101 -10 -101 -27 0
-45 43 -45 105 0 65 -11 85 -45 85 -29 0 -46 -21 -84 -101 -17 -37 -37 -72
-45 -78 -24 -20 -85 4 -160 64 -74 59 -114 75 -186 75 -26 0 -56 7 -69 17 -22
15 -23 20 -18 94 5 60 18 108 57 208 59 154 76 268 67 450 -7 120 -19 155 -37
107 -19 -52 -40 -198 -40 -285 0 -146 -37 -231 -102 -231 -17 0 -48 -5 -69
-12 -34 -10 -42 -9 -58 6 -24 22 -41 96 -41 179 -1 82 -13 130 -44 176 -19 28
-26 50 -26 86 0 48 1 49 16 27 33 -48 43 -26 55 138 5 68 16 151 25 184 21 79
21 116 1 131 -23 16 -21 41 4 76 22 32 50 37 69 14 8 -10 17 -12 22 -7 16 16
14 163 -2 211 -12 39 -12 52 3 125 21 102 84 296 102 315 12 12 20 9 56 -18
24 -17 47 -31 51 -31 17 0 7 34 -23 75 -34 48 -36 88 -4 93 31 6 45 32 45 85
l0 50 -64 -68 c-37 -39 -68 -65 -75 -61 -17 11 -14 17 28 73 21 28 75 120 121
205 95 176 135 238 155 238 20 0 55 49 55 76 0 28 -16 31 -41 8 -22 -20 -39
-10 -39 23 0 16 15 42 40 69 l40 44 0 85 c0 47 4 85 9 85 4 0 14 -20 21 -45z
m-233 -36 c-9 -70 -57 -94 -57 -28 0 38 20 69 44 69 16 0 18 -6 13 -41z m771
-13 c4 -21 -14 -37 -35 -29 -14 5 -18 35 -6 47 12 12 38 1 41 -18z m-792 -121
c8 -30 -30 -147 -56 -170 -17 -16 -19 -15 -25 4 -8 26 10 121 30 161 19 36 42
39 51 5z m485 -33 c69 -45 175 -196 167 -239 -10 -53 -98 0 -138 83 -17 34
-35 52 -76 76 -57 32 -65 48 -38 86 20 29 31 28 85 -6z m-68 -133 c32 -16 126
-109 143 -141 12 -23 21 -138 10 -138 -2 0 -41 39 -87 86 -46 47 -99 94 -116
106 -40 24 -41 34 -6 70 31 32 28 31 56 17z m-55 -149 c45 -33 147 -133 169
-167 13 -20 11 -27 -28 -92 -23 -39 -44 -71 -46 -71 -10 0 -128 118 -154 154
-36 48 -36 56 -3 56 38 0 89 -27 133 -71 27 -28 40 -35 44 -25 9 22 -29 74
-80 109 -74 51 -113 88 -113 106 0 40 24 40 78 1z m-442 -116 c-3 -8 -10 -14
-16 -14 -14 0 -13 43 3 59 10 10 13 8 15 -9 2 -12 1 -28 -2 -36z m-5928 27
c22 -14 -14 -23 -115 -28 -65 -4 -93 -2 -93 5 0 23 178 42 208 23z m-1322 -53
c-6 -27 -17 -53 -23 -59 -13 -13 -33 -4 -33 15 0 14 59 100 65 94 2 -1 -2 -24
-9 -50z m7144 0 c0 -19 -38 -78 -51 -78 -13 0 -2 36 20 67 18 25 31 29 31 11z
m-6587 -30 l32 -31 -108 6 c-60 4 -113 10 -119 13 -18 12 15 24 67 25 28 0 59
4 70 9 11 5 21 9 23 9 2 1 18 -13 35 -31z m170 -10 c-24 -23 -40 -20 -30 7 4
8 17 15 29 15 l22 0 -21 -22z m120 4 c10 -10 14 -21 11 -24 -8 -9 -61 11 -75
28 -18 22 44 18 64 -4z m290 -1 c35 -23 21 -36 -29 -27 -25 5 -34 12 -34 26 0
25 26 26 63 1z m214 12 c-20 -2 -52 -2 -70 0 -17 2 0 4 38 4 39 0 53 -2 32 -4z
m-1070 -20 c5 -14 -29 -26 -51 -17 -13 5 -14 9 -5 21 14 16 51 14 56 -4z
m-574 -7 c3 -12 -30 -32 -39 -24 -11 12 5 40 21 36 9 -2 17 -7 18 -12z m-352
-53 c9 -29 9 -38 -4 -50 -13 -13 -17 -13 -36 6 -23 23 -28 70 -9 89 16 16 34
-1 49 -45z m8653 40 c9 -22 -25 -56 -47 -47 -9 3 -17 14 -17 23 0 37 52 57 64
24z m-364 -57 c57 -45 110 -114 110 -142 0 -13 -3 -24 -6 -24 -29 0 -184 143
-184 171 0 39 26 38 80 -5z m-6395 15 c-15 -14 -65 -25 -65 -14 0 17 12 23 44
23 18 0 26 -4 21 -9z m6650 -163 c-12 -81 -28 -118 -50 -118 -8 0 -15 1 -15 3
0 7 33 108 47 145 24 63 31 51 18 -30z m-270 -8 c27 -27 46 -52 43 -55 -6 -7
-104 36 -132 57 -25 19 -15 48 17 48 14 0 41 -18 72 -50z m-3797 -57 c12 -22
5 -43 -14 -43 -9 0 -14 11 -14 30 0 33 14 40 28 13z m3217 -66 c-8 -20 -15
-60 -15 -89 0 -81 -68 -468 -89 -503 -9 -16 -25 -32 -35 -33 -21 -4 -21 -3 8
103 8 33 25 141 36 240 24 207 32 241 73 290 35 43 43 41 22 -8z m705 -314 c0
-7 -6 -13 -14 -13 -15 0 -26 21 -26 47 0 14 3 14 20 -2 11 -10 20 -24 20 -32z
m-279 -409 c25 -60 54 -173 45 -181 -16 -16 -56 79 -75 180 -11 61 4 61 30 1z
m184 -285 c28 -35 30 -72 3 -77 -20 -4 -48 44 -48 83 0 33 13 32 45 -6z m-88
-53 c-10 -25 -37 -19 -37 7 0 13 3 27 7 31 11 11 36 -21 30 -38z m-58 -100
c13 -71 14 -146 2 -146 -5 0 -12 42 -16 93 -3 50 -9 101 -12 112 -3 13 -2 17
4 10 6 -5 15 -37 22 -69z m247 -83 c8 -29 14 -59 12 -65 -7 -20 -50 61 -56
105 -5 38 -4 41 11 28 10 -7 24 -38 33 -68z m-100 -66 c13 -29 24 -64 24 -79
0 -15 11 -39 24 -55 23 -27 25 -27 43 -10 12 10 36 17 63 17 l43 0 -7 49 c-4
30 -2 52 4 56 17 11 101 -33 157 -83 83 -72 112 -90 169 -107 121 -35 269
-186 266 -271 -1 -22 7 -39 28 -59 17 -16 30 -36 30 -45 0 -18 -27 -60 -40
-60 -9 0 -63 126 -74 172 -9 40 -154 162 -252 211 -28 14 -58 37 -68 51 -31
48 -150 91 -181 66 -42 -35 0 -73 210 -189 183 -101 180 -98 179 -224 0 -116
-19 -231 -41 -248 -18 -16 -73 -13 -141 6 -101 30 -118 49 -138 161 -22 128
-96 244 -213 338 -38 31 -78 68 -89 83 -13 19 -28 78 -46 178 -14 83 -26 155
-26 160 0 16 49 -61 76 -118z m-4110 -276 c44 -20 124 -91 124 -110 0 -17 -35
3 -83 46 l-39 35 -22 -21 c-38 -36 -76 -21 -76 30 0 42 32 49 96 20z m6184
-186 c0 -17 -36 -39 -50 -30 -16 10 8 45 30 45 11 0 20 -7 20 -15z m-6026 -57
c20 -28 20 -59 1 -84 -21 -28 -18 -50 10 -72 31 -25 31 -32 2 -32 -25 0 -47
-17 -47 -37 0 -7 6 -13 13 -13 7 0 35 -14 63 -31 44 -29 47 -32 28 -40 -32
-11 -93 6 -125 37 -72 69 -79 244 -12 283 28 16 51 13 67 -11z m1981 -148 c10
-15 -62 -42 -103 -38 -43 4 -51 28 -12 39 39 11 108 10 115 -1z m-215 -28 c0
-10 -22 -32 -32 -32 -4 0 -8 9 -8 20 0 13 7 20 20 20 11 0 20 -4 20 -8z m-218
-42 c-27 -22 -104 -40 -174 -40 -72 0 -50 14 52 35 47 9 87 18 89 21 2 2 16 4
30 4 l26 -1 -23 -19z m496 -23 c2 -10 -3 -17 -12 -17 -9 0 -16 2 -16 4 0 2 -3
12 -6 21 -5 13 -2 16 12 13 10 -2 20 -11 22 -21z m112 13 c0 -5 -11 -10 -25
-10 -14 0 -25 5 -25 10 0 6 11 10 25 10 14 0 25 -4 25 -10z m-287 -27 c-13 -2
-33 -2 -45 0 -13 2 -3 4 22 4 25 0 35 -2 23 -4z m-713 -28 c0 -25 -34 -36 -59
-19 -28 20 -18 34 25 34 23 0 34 -5 34 -15z m-120 -21 c0 -2 -14 -4 -31 -4
-16 0 -28 4 -25 9 5 8 56 3 56 -5z m-160 -20 c0 -10 -69 -34 -100 -34 -30 0
-43 23 -17 33 17 7 117 8 117 1z m115 -54 c3 -6 -6 -15 -20 -20 -30 -12 -142
-14 -131 -2 25 25 139 42 151 22z m1525 -8 c0 -19 -47 -52 -74 -52 -24 0 -20
36 6 54 31 22 68 21 68 -2z m-2383 -28 c71 -13 165 -142 222 -307 41 -117 41
-172 0 -223 -25 -32 -29 -44 -24 -75 7 -38 -5 -58 -23 -36 -5 6 -13 35 -17 64
-4 31 -19 71 -37 100 -64 100 -165 371 -174 467 -4 39 -3 47 6 34 6 -10 27
-20 47 -24z m2260 2 c4 -4 -2 -15 -14 -23 -17 -12 -21 -21 -16 -43 5 -26 2
-29 -30 -35 -46 -9 -77 8 -70 36 4 12 0 25 -8 30 -21 13 -73 11 -93 -4 -17
-12 -16 -15 17 -44 20 -17 33 -34 30 -37 -10 -10 -153 -7 -153 3 0 5 15 21 33
35 l32 26 -45 0 c-52 0 -99 25 -81 43 21 21 379 32 398 13z m-1442 -51 c-68
-31 -397 -95 -487 -95 -42 0 -49 3 -46 18 5 28 60 39 298 61 123 12 225 23
228 26 3 3 12 5 21 4 9 0 3 -7 -14 -14z m315 -50 c0 -16 -22 -25 -61 -25 -37
0 -30 16 15 35 33 14 46 12 46 -10z m-310 -59 c0 -8 -7 -17 -16 -20 -21 -8
-249 -8 -241 1 29 29 257 46 257 19z m-420 -40 c0 -30 -73 -61 -103 -44 -26
14 -22 40 6 33 12 -3 31 1 42 9 25 19 55 20 55 2z m-1490 -281 c0 -44 -40
-133 -72 -163 -14 -12 -41 -25 -60 -28 -28 -5 -39 -2 -57 17 -31 34 -38 69
-17 85 10 7 47 16 82 20 74 7 94 22 94 68 0 18 3 36 6 39 13 13 24 -5 24 -38z"/>
<path d="M11230 11127 c0 -26 11 -47 26 -47 20 0 17 24 -6 45 -17 16 -20 16
-20 2z"/>
<path d="M10595 11103 c-126 -39 -164 -54 -181 -71 -15 -14 -15 -17 1 -28 15
-11 24 -10 54 3 24 11 95 20 221 28 169 12 247 26 235 45 -2 4 -39 10 -81 14
-43 4 -93 14 -112 22 -42 17 -39 18 -137 -13z"/>
<path d="M9590 11111 c0 -17 91 -101 116 -107 43 -11 59 -1 62 39 4 44 -22 63
-45 31 -13 -18 -16 -17 -73 14 -33 19 -60 28 -60 23z"/>
<path d="M10165 11010 c-233 -61 -385 -135 -452 -219 -45 -56 -100 -158 -90
-168 14 -14 52 15 107 82 33 40 78 87 99 104 66 53 180 99 282 116 213 34 246
47 237 92 -5 28 -59 26 -183 -7z"/>
<path d="M9704 10946 c-8 -34 -1 -61 15 -61 21 0 36 52 21 70 -18 21 -29 18
-36 -9z"/>
<path d="M10884 10876 c-10 -25 4 -64 25 -71 43 -13 75 26 44 56 -27 26 -62
33 -69 15z"/>
<path d="M10654 10855 c-4 -9 -2 -21 4 -27 15 -15 44 -1 40 19 -4 23 -36 29
-44 8z"/>
<path d="M11073 10848 c-18 -24 -23 -51 -12 -64 19 -23 49 -16 59 12 17 44
-21 85 -47 52z"/>
<path d="M9140 10825 c-17 -21 1 -39 29 -30 27 8 28 45 2 45 -10 0 -24 -7 -31
-15z"/>
<path d="M10527 10826 c-7 -17 18 -40 33 -31 5 3 10 15 10 26 0 23 -35 27 -43
5z"/>
<path d="M10777 10826 c-7 -17 18 -40 33 -31 5 3 10 15 10 26 0 23 -35 27 -43
5z"/>
<path d="M11184 10815 c-9 -23 3 -45 25 -45 26 0 34 15 21 40 -13 24 -38 26
-46 5z"/>
<path d="M10431 10806 c-7 -9 -8 -17 -2 -20 13 -9 43 4 38 17 -5 17 -23 19
-36 3z"/>
<path d="M11412 10808 c-15 -15 -16 -58 -2 -58 16 0 35 49 24 60 -7 7 -14 6
-22 -2z"/>
<path d="M10224 10779 c-8 -14 21 -43 35 -35 6 4 11 16 11 27 0 21 -34 27 -46
8z"/>
<path d="M10327 10775 c-4 -8 -2 -17 4 -21 11 -6 39 13 39 27 0 15 -37 10 -43
-6z"/>
<path d="M11280 10771 c0 -27 19 -36 37 -18 18 18 9 37 -18 37 -12 0 -19 -7
-19 -19z"/>
<path d="M10062 10749 c-23 -4 -47 -11 -52 -14 -12 -7 -13 -52 -2 -58 4 -3 41
7 82 22 50 17 76 32 78 44 4 19 -29 21 -106 6z"/>
<path d="M10926 10724 c-19 -19 -30 -58 -22 -79 13 -34 112 -7 101 28 -2 7 -6
24 -9 40 -5 20 -12 27 -30 27 -14 0 -32 -7 -40 -16z"/>
<path d="M9157 10714 c-16 -16 -7 -44 14 -44 15 0 20 5 17 22 -3 22 -19 33
-31 22z"/>
<path d="M11592 10698 c-17 -17 -15 -28 7 -28 19 0 35 23 24 34 -9 9 -18 7
-31 -6z"/>
<path d="M10445 10605 c-5 -2 -22 -6 -37 -9 -22 -5 -28 -12 -28 -34 0 -52 13
-59 67 -38 26 10 69 26 95 35 56 19 67 29 48 41 -14 9 -123 13 -145 5z"/>
<path d="M9524 10579 c-12 -21 -5 -112 12 -137 l17 -25 15 29 c8 16 21 37 29
46 12 13 12 21 3 40 -28 52 -60 72 -76 47z"/>
<path d="M9785 10560 c-7 -12 12 -40 27 -40 13 0 6 43 -9 47 -6 2 -14 -1 -18
-7z"/>
<path d="M10770 10540 c0 -45 51 -120 82 -120 24 0 23 31 -2 53 -11 9 -20 27
-20 40 0 28 -17 47 -42 47 -11 0 -18 -7 -18 -20z"/>
<path d="M9657 10513 c-15 -14 -7 -43 12 -43 26 0 36 17 21 35 -14 16 -23 19
-33 8z"/>
<path d="M10260 10509 c-38 -15 -227 -214 -299 -315 -83 -116 -108 -171 -89
-191 8 -7 22 -11 31 -7 21 8 141 156 161 198 8 17 71 86 140 153 123 120 145
153 110 167 -19 7 -23 7 -54 -5z"/>
<path d="M11710 10455 c-10 -11 -10 -19 -2 -27 15 -15 44 -2 40 19 -4 23 -22
27 -38 8z"/>
<path d="M10648 10448 c-44 -12 -45 -15 -18 -69 12 -22 18 -43 16 -48 -3 -4
-29 -11 -57 -14 -28 -4 -70 -17 -93 -31 -44 -27 -276 -242 -276 -257 0 -26
104 19 165 72 l35 31 0 -25 c0 -16 -16 -44 -40 -72 -60 -69 -99 -155 -71 -155
22 0 77 49 86 77 20 62 87 113 146 113 l32 0 -21 23 c-31 33 -30 90 3 122 13
14 31 25 40 25 9 0 67 17 128 38 98 34 149 48 245 68 28 6 30 39 3 54 -15 7
-43 3 -113 -16 -51 -14 -106 -28 -122 -31 l-29 -6 7 57 c8 63 7 64 -66 44z"/>
<path d="M9480 10380 c0 -61 40 -108 60 -70 19 36 -7 100 -41 100 -14 0 -19
-7 -19 -30z"/>
<path d="M9205 10381 c-3 -6 4 -36 16 -68 43 -117 44 -126 26 -205 -10 -40
-17 -87 -17 -105 0 -18 -22 -83 -49 -145 -27 -62 -52 -124 -56 -138 -4 -14
-20 -45 -35 -70 -35 -56 -72 -174 -99 -314 -23 -118 -26 -163 -11 -186 8 -13
13 -13 37 0 36 20 53 55 53 110 1 148 52 363 117 493 13 26 22 53 21 60 -2 7
11 35 29 62 57 89 77 165 77 295 1 126 -9 159 -60 199 -30 23 -40 26 -49 12z"/>
<path d="M9581 10371 c-6 -10 -8 -21 -4 -24 9 -10 43 12 43 28 0 21 -27 18
-39 -4z"/>
<path d="M9495 10226 c-8 -13 -13 -30 -9 -39 3 -10 -7 -34 -25 -60 -32 -44
-33 -70 -4 -81 44 -17 102 73 103 157 0 43 -2 47 -25 47 -15 0 -31 -9 -40 -24z"/>
<path d="M11954 10229 c-10 -17 23 -46 37 -32 7 7 9 19 6 27 -7 18 -33 21 -43
5z"/>
<path d="M10710 10110 c-18 -11 -4 -42 17 -38 10 2 19 10 21 19 4 19 -19 31
-38 19z"/>
<path d="M10546 10008 c-8 -13 -16 -34 -18 -48 -5 -37 35 -40 58 -5 13 21 15
31 6 50 -14 31 -27 32 -46 3z"/>
<path d="M9442 9978 c-17 -17 -15 -53 4 -68 25 -22 49 11 45 63 -1 20 -31 23
-49 5z"/>
<path d="M9827 9944 c-31 -17 -33 -47 -5 -52 18 -3 68 39 68 58 0 14 -30 12
-63 -6z"/>
<path d="M10732 9918 c2 -13 10 -23 18 -23 8 0 16 10 18 23 3 17 -2 22 -18 22
-16 0 -21 -5 -18 -22z"/>
<path d="M10036 9857 c-15 -11 -17 -17 -7 -35 15 -28 33 -28 57 -1 18 20 18
21 -1 35 -23 17 -27 17 -49 1z"/>
<path d="M9403 9824 c-3 -8 -1 -20 5 -26 15 -15 43 8 35 28 -7 19 -32 18 -40
-2z"/>
<path d="M9390 9685 c-19 -23 -5 -48 22 -40 32 10 42 21 35 39 -8 20 -41 21
-57 1z"/>
<path d="M11460 9632 c0 -5 6 -16 13 -27 16 -20 33 -5 23 20 -6 16 -36 21 -36
7z"/>
<path d="M9582 9328 c-15 -15 2 -38 28 -38 26 0 43 23 28 38 -7 7 -19 12 -28
12 -9 0 -21 -5 -28 -12z"/>
<path d="M10144 9153 c-19 -47 -31 -153 -17 -153 6 0 14 16 17 36 4 19 20 49
37 66 32 34 34 40 19 69 -16 30 -38 23 -56 -18z"/>
<path d="M8885 9158 c-14 -21 -14 -24 1 -35 24 -17 54 1 54 32 0 32 -33 34
-55 3z"/>
<path d="M9569 9086 c-15 -33 0 -111 21 -111 12 0 15 14 15 64 0 70 -16 91
-36 47z"/>
<path d="M9296 8999 c-28 -33 -31 -44 -17 -53 23 -15 61 29 61 69 0 23 -16 18
-44 -16z"/>
<path d="M10058 8931 c-18 -16 -29 -33 -25 -37 9 -10 69 21 93 47 16 18 16 19
-9 19 -15 0 -41 -13 -59 -29z"/>
<path d="M10922 8917 c-26 -28 -39 -81 -22 -92 17 -11 49 24 56 62 9 46 -6 59
-34 30z"/>
<path d="M10141 8834 c-40 -50 -35 -94 11 -94 15 0 18 5 13 20 -4 11 0 29 9
42 36 51 5 81 -33 32z"/>
<path d="M10847 8743 c-13 -3 -16 -9 -10 -21 14 -30 6 -115 -17 -172 -25 -64
-46 -90 -72 -90 -12 0 -18 -7 -18 -21 0 -15 4 -19 16 -15 43 16 60 -58 24
-104 -28 -36 -25 -52 8 -50 46 3 51 1 66 -32 7 -18 27 -45 45 -61 28 -24 31
-33 31 -85 0 -34 -12 -96 -30 -156 -31 -102 -37 -146 -21 -146 6 0 31 27 56
60 25 33 55 64 65 70 18 10 18 13 5 58 -21 66 -19 85 11 113 43 40 46 54 28
119 -9 34 -20 63 -25 65 -4 3 -16 -12 -26 -32 -50 -102 -57 -11 -13 181 17 72
30 133 30 137 0 4 -22 -16 -50 -44 l-50 -52 6 35 c9 47 50 157 75 199 16 27
17 36 7 42 -14 9 -110 10 -141 2z m63 -347 c0 -47 -11 -96 -21 -96 -10 0 -12
100 -3 124 10 25 24 8 24 -28z"/>
<path d="M11244 8715 c-10 -25 4 -45 31 -45 17 0 25 5 25 18 0 36 -45 57 -56
27z"/>
<path d="M10074 8649 c-3 -6 0 -17 8 -25 12 -12 17 -12 36 2 12 8 22 19 22 25
0 13 -57 11 -66 -2z"/>
<path d="M11078 8569 c-24 -14 -23 -45 2 -52 51 -13 84 30 41 53 -23 12 -22
12 -43 -1z"/>
<path d="M11360 8475 c-16 -19 -5 -35 24 -35 31 0 50 22 34 38 -16 16 -43 15
-58 -3z"/>
<path d="M11147 8324 c-27 -27 20 -77 49 -53 23 19 13 53 -16 57 -14 2 -29 0
-33 -4z"/>
<path d="M8988 7969 c-25 -14 -22 -31 4 -27 13 2 24 11 26 21 4 19 -5 21 -30
6z"/>
<path d="M10754 7945 c-4 -9 -2 -21 3 -26 14 -14 45 1 41 20 -4 22 -37 26 -44
6z"/>
<path d="M9000 7818 c0 -7 20 -56 44 -110 68 -150 149 -261 133 -180 -29 137
-43 178 -71 202 -9 7 -16 25 -16 41 0 21 -7 32 -30 44 -35 18 -60 19 -60 3z"/>
<path d="M10752 7744 c-18 -12 -20 -19 -12 -35 13 -23 58 -25 67 -3 6 17 -6
45 -23 51 -5 2 -19 -4 -32 -13z"/>
<path d="M9307 7433 c-15 -14 -7 -43 12 -43 26 0 36 17 21 35 -14 16 -23 19
-33 8z"/>
<path d="M9654 7346 c-9 -24 0 -51 18 -54 21 -4 34 34 18 53 -16 19 -29 19
-36 1z"/>
<path d="M9535 6960 c-18 -19 -17 -20 8 -20 17 0 27 5 27 14 0 24 -16 27 -35
6z"/>
<path d="M8460 9723 c-34 -54 -90 -192 -90 -223 0 -24 28 -39 40 -20 4 7 11
30 14 52 4 22 19 65 35 96 58 116 59 187 1 95z"/>
<path d="M8220 8248 c0 -34 106 -158 135 -158 26 0 17 23 -38 95 -33 44 -60
71 -74 73 -14 2 -23 -2 -23 -10z"/>
<path d="M8346 8214 c-8 -20 12 -56 27 -51 17 5 21 35 7 52 -16 19 -26 19 -34
-1z"/>
<path d="M8151 8156 c-29 -31 -22 -54 31 -112 94 -102 148 -3 56 102 -36 40
-56 43 -87 10z"/>
<path d="M8085 8063 c7 -31 41 -71 51 -60 10 9 -4 53 -22 71 -24 25 -37 20
-29 -11z"/>
<path d="M7895 7800 c-7 -12 11 -40 26 -40 14 0 10 26 -5 39 -10 9 -16 9 -21
1z"/>
<path d="M7904 7659 c-19 -21 -19 -21 6 -18 14 2 26 12 28 22 5 23 -11 22 -34
-4z"/>
<path d="M8062 7272 c-19 -34 -20 -41 -7 -52 19 -15 49 -9 53 11 2 9 -3 31
-10 49 l-13 32 -23 -40z"/>
<path d="M8531 7181 c-17 -11 -7 -41 13 -41 22 0 30 20 15 36 -9 8 -19 10 -28
5z"/>
<path d="M8151 6544 c-24 -31 -26 -44 -8 -44 22 0 57 31 57 51 0 27 -25 24
-49 -7z"/>
<path d="M6293 5964 c-8 -22 18 -37 36 -20 7 8 10 19 7 25 -10 16 -36 13 -43
-5z"/>
<path d="M4227 5862 c-18 -19 -23 -42 -9 -42 16 0 52 32 52 46 0 20 -24 18
-43 -4z"/>
<path d="M4341 5756 c-9 -11 -8 -15 5 -20 20 -8 34 1 34 20 0 18 -24 18 -39 0z"/>
<path d="M8661 5069 c-18 -53 -46 -329 -31 -312 13 14 60 250 60 297 0 53 -13
60 -29 15z"/>
<path d="M8727 5044 c-10 -10 -9 -72 2 -78 5 -3 14 8 21 25 11 25 11 33 -2 45
-8 8 -17 11 -21 8z"/>
<path d="M8722 4902 c-8 -14 -11 -35 -7 -49 9 -39 27 -13 23 33 -3 38 -3 38
-16 16z"/>
<path d="M8597 4666 c-8 -20 20 -43 35 -28 14 14 3 42 -16 42 -7 0 -16 -6 -19
-14z"/>
<path d="M8574 1885 c-4 -9 -2 -21 4 -27 15 -15 44 -1 40 19 -4 23 -36 29 -44
8z"/>
<path d="M8670 1344 c0 -27 20 -54 40 -54 26 0 26 31 2 53 -23 21 -42 22 -42
1z"/>
<path d="M9636 1351 c-13 -15 -14 -20 -4 -23 19 -7 38 2 38 17 0 23 -16 26
-34 6z"/>
<path d="M9454 1275 c-12 -30 9 -71 63 -125 l55 -55 24 30 c32 41 77 125 70
132 -8 9 -135 32 -174 33 -20 0 -35 -6 -38 -15z"/>
<path d="M3894 10851 c-42 -19 -54 -36 -54 -76 0 -17 -23 -44 -82 -97 -154
-136 -204 -190 -221 -241 -36 -107 -128 -207 -191 -207 -60 0 -241 -228 -253
-320 -9 -64 16 -50 80 49 55 84 97 134 97 116 0 -5 -25 -53 -56 -107 -78 -137
-89 -170 -68 -213 28 -60 220 -234 315 -288 48 -26 94 -56 104 -67 18 -19 18
-22 1 -53 -9 -17 -30 -52 -46 -77 -16 -25 -34 -69 -40 -97 -5 -29 -23 -84 -39
-122 -69 -163 -91 -354 -91 -809 l0 -244 34 -41 c71 -88 107 -157 116 -219 16
-113 50 -105 50 12 0 101 -15 170 -47 216 -24 37 -25 38 -13 138 14 120 1 279
-26 325 -17 28 -16 32 20 146 38 123 42 150 26 160 -17 11 -11 44 21 118 19
42 35 100 39 138 7 59 14 77 64 152 32 46 64 106 72 133 8 27 30 74 49 106 19
31 35 66 35 79 0 35 95 150 252 306 176 174 258 244 379 318 108 66 129 83
129 102 0 22 -56 15 -127 -17 -36 -17 -89 -37 -116 -45 -27 -8 -73 -32 -101
-53 -75 -57 -247 -235 -274 -284 -44 -78 -233 -263 -259 -253 -11 3 -13 -1 -8
-16 7 -21 -27 -69 -48 -69 -21 0 -1 135 31 207 18 39 32 74 32 77 0 3 -13 3
-30 0 -35 -7 -35 -8 -15 40 24 58 -4 46 -70 -29 -32 -36 -61 -65 -66 -65 -35
0 25 128 88 187 29 27 43 48 39 58 -10 26 -35 17 -86 -31 -39 -36 -53 -59 -70
-112 -23 -69 -49 -127 -55 -120 -6 6 16 151 25 168 5 8 34 47 64 85 l56 70 -6
60 c-4 33 -8 61 -9 63 -6 7 -47 -20 -86 -55 -68 -61 -61 -31 11 47 38 41 69
81 70 89 0 8 -7 23 -17 33 -12 14 -14 23 -6 41 22 47 218 253 375 393 21 19
38 45 42 65 4 23 22 48 54 76 45 41 46 43 28 58 -26 20 -72 19 -122 -4z m-514
-884 c0 -16 -72 -116 -84 -117 -14 0 4 53 31 93 25 37 53 49 53 24z m296 -593
c-15 -14 -31 -22 -35 -19 -3 4 7 17 24 30 38 31 49 21 11 -11z"/>
<path d="M2646 10788 c-14 -19 -14 -24 -2 -36 20 -20 56 1 56 33 0 32 -33 34
-54 3z"/>
<path d="M2670 10443 c-41 -34 -57 -68 -66 -134 -3 -30 -15 -90 -25 -134 -34
-145 -50 -457 -25 -482 12 -13 33 22 70 115 37 95 43 126 26 137 -30 18 9 156
77 269 56 95 62 147 22 208 -32 49 -43 52 -79 21z"/>
<path d="M6070 10400 c-26 -26 -25 -47 0 -55 21 -7 70 17 70 35 0 11 -29 40
-41 40 -5 0 -18 -9 -29 -20z"/>
<path d="M5943 10374 c-6 -15 11 -34 32 -34 6 0 16 4 24 9 21 14 5 41 -24 41
-14 0 -28 -7 -32 -16z"/>
<path d="M5776 10345 c-55 -19 -66 -33 -41 -52 33 -25 175 -3 175 27 0 19 -33
40 -63 40 -18 -1 -49 -7 -71 -15z"/>
<path d="M5505 10264 c-68 -35 -93 -83 -55 -106 21 -14 129 38 142 68 23 51
-24 71 -87 38z"/>
<path d="M4592 10224 c-12 -21 -4 -54 13 -54 22 0 40 30 29 48 -15 23 -31 26
-42 6z"/>
<path d="M4601 10055 c-191 -92 -428 -275 -536 -415 -53 -69 -197 -284 -219
-329 -40 -76 39 -54 103 29 59 78 74 94 156 161 44 36 85 76 91 90 39 84 52
105 87 145 21 24 57 52 80 62 23 10 85 56 137 101 52 45 106 84 120 87 65 14
101 51 87 88 -9 23 -24 20 -106 -19z"/>
<path d="M2814 9918 c-11 -13 -37 -49 -57 -80 -25 -39 -48 -62 -71 -72 -44
-18 -54 -39 -68 -134 -9 -62 -8 -135 5 -358 21 -342 22 -544 3 -606 -7 -25
-43 -92 -78 -149 -57 -91 -148 -259 -148 -274 0 -3 12 -5 26 -5 20 0 46 20
104 79 64 64 87 97 131 185 l53 107 -1 172 c-2 215 -17 398 -44 548 -12 64
-19 127 -16 140 4 15 22 34 46 47 43 24 45 28 60 113 5 30 28 110 50 176 23
66 41 123 41 127 0 13 -17 5 -36 -16z m-114 -292 c0 -13 -7 -29 -15 -36 -12
-10 -15 -9 -15 8 0 27 10 52 21 52 5 0 9 -11 9 -24z"/>
<path d="M2881 9845 c-36 -41 -55 -105 -46 -153 8 -43 59 -94 89 -90 24 3 40
53 51 162 7 62 6 64 -16 68 -16 2 -25 11 -27 26 -5 30 -15 28 -51 -13z"/>
<path d="M3042 9758 c-22 -22 -12 -88 13 -88 25 0 33 55 12 83 -10 14 -15 15
-25 5z"/>
<path d="M2386 9538 c-6 -28 -26 -186 -26 -205 0 -7 11 -13 24 -13 18 0 28 10
42 38 22 45 31 151 15 181 -16 28 -49 28 -55 -1z"/>
<path d="M2839 9473 c-15 -75 -5 -191 22 -251 11 -26 27 -86 35 -135 16 -100
26 -120 72 -149 45 -28 54 -16 50 68 -2 53 -6 68 -17 66 -11 -2 -13 9 -8 62 5
51 3 67 -10 77 -12 10 -14 26 -10 66 5 51 5 53 -19 53 -17 0 -24 6 -24 19 0
10 -12 31 -26 46 -20 21 -25 35 -21 59 5 34 -7 76 -22 76 -5 0 -15 -26 -22
-57z"/>
<path d="M6652 9485 c-52 -44 -48 -119 6 -113 30 3 72 58 72 94 0 13 -9 28
-19 34 -26 13 -25 14 -59 -15z"/>
<path d="M6354 9195 c3 -9 6 -19 6 -21 0 -2 7 -4 16 -4 22 0 13 34 -10 38 -14
3 -17 0 -12 -13z"/>
<path d="M2227 9168 c-13 -18 -36 -55 -52 -83 -16 -27 -58 -79 -94 -115 -74
-73 -194 -247 -223 -323 -30 -78 -106 -206 -235 -397 -65 -97 -164 -372 -183
-510 -8 -56 -9 -145 -4 -263 l7 -180 -27 5 c-38 7 -47 -19 -15 -43 20 -15 24
-26 23 -67 -2 -50 -16 -85 -56 -135 -32 -40 -16 -61 51 -65 60 -4 76 6 84 48
4 16 23 44 43 62 20 18 47 54 60 80 l24 47 57 3 c52 3 58 5 61 27 6 42 -7 69
-38 79 -16 6 -30 16 -30 21 0 6 -15 11 -34 11 -19 0 -38 6 -43 13 -4 6 -10 86
-13 177 l-5 165 -28 13 c-21 10 -26 18 -21 34 3 11 17 60 30 110 40 149 140
341 271 520 60 82 113 182 113 213 0 8 9 39 20 69 15 39 44 80 107 147 137
149 234 311 211 352 -14 26 -34 20 -61 -15z m-674 -1976 c16 -17 14 -32 -4
-32 -11 0 -39 30 -39 41 0 15 26 10 43 -9z"/>
<path d="M3790 9180 c-14 -27 -3 -62 18 -58 23 4 30 78 8 78 -8 0 -20 -9 -26
-20z"/>
<path d="M3751 9046 c-13 -16 -5 -46 13 -46 18 0 36 21 36 42 0 22 -32 24 -49
4z"/>
<path d="M5906 8931 c-25 -28 -17 -55 17 -59 37 -4 59 15 55 47 -4 34 -46 41
-72 12z"/>
<path d="M6194 8925 c-4 -9 -2 -21 4 -27 15 -15 44 -1 40 19 -4 23 -36 29 -44
8z"/>
<path d="M6100 8852 c0 -5 -27 -41 -60 -80 -33 -40 -60 -76 -60 -82 0 -15 59
-41 87 -38 19 2 28 12 37 37 7 22 31 51 64 78 l52 43 -50 25 c-52 26 -70 31
-70 17z"/>
<path d="M6824 8775 c-4 -9 -4 -28 -1 -43 3 -17 -2 -39 -16 -61 -20 -33 -20
-34 -2 -47 25 -19 31 -18 54 7 14 16 27 20 45 15 14 -3 27 -2 31 4 8 13 -22
69 -58 108 -34 36 -45 39 -53 17z"/>
<path d="M2772 8738 c-18 -18 -14 -63 7 -82 49 -44 88 27 44 77 -19 20 -34 22
-51 5z"/>
<path d="M3110 8733 c-42 -15 -51 -76 -26 -168 17 -64 33 -95 50 -95 19 0 40
82 32 127 -4 21 -10 60 -14 87 -7 50 -15 59 -42 49z"/>
<path d="M5943 8595 c-14 -39 73 -75 105 -43 17 17 15 45 -4 52 -32 12 -94 6
-101 -9z"/>
<path d="M1352 8528 c-13 -16 -42 -167 -42 -219 0 -40 8 -52 28 -40 12 7 52
195 52 244 0 29 -20 36 -38 15z"/>
<path d="M6820 8490 c-13 -24 2 -60 25 -60 17 0 49 56 40 70 -11 18 -54 11
-65 -10z"/>
<path d="M4723 8483 c-7 -2 -13 -10 -13 -17 0 -7 -14 -31 -31 -52 -37 -47 -65
-100 -90 -171 -17 -49 -17 -54 -1 -69 15 -16 19 -13 62 33 49 54 113 167 125
221 10 47 -13 71 -52 55z"/>
<path d="M5905 8480 c-3 -5 8 -28 25 -52 38 -52 36 -79 -7 -90 -37 -10 -43
-31 -16 -60 15 -17 16 -26 5 -90 -19 -107 -55 -202 -102 -264 -23 -30 -39 -61
-36 -69 3 -8 23 -15 48 -17 l42 -3 11 -72 c8 -52 18 -80 34 -97 23 -25 24 -29
17 -135 -4 -70 -3 -111 3 -115 18 -11 49 16 72 63 24 48 38 175 25 226 -6 23
-11 26 -32 21 -20 -5 -26 -2 -34 19 -22 59 -7 226 33 375 9 30 20 88 26 128 6
40 22 95 36 122 33 65 33 98 -1 110 -33 13 -141 13 -149 0z"/>
<path d="M2729 8453 c-5 -15 -29 -48 -53 -73 -96 -102 -81 -115 66 -59 99 37
139 38 173 2 20 -23 28 -26 43 -17 34 22 25 42 -40 90 -67 50 -132 83 -161 84
-10 0 -22 -11 -28 -27z"/>
<path d="M5701 8363 c-23 -26 -56 -77 -73 -111 -36 -72 -32 -95 18 -100 31 -4
44 -17 44 -46 0 -10 11 -31 25 -48 14 -16 25 -40 25 -52 0 -13 3 -26 7 -29 13
-14 33 16 33 50 0 19 7 47 14 62 13 25 13 31 0 50 -10 13 -26 21 -45 21 -33 0
-35 6 -13 38 20 28 67 53 96 49 15 -1 23 4 26 17 4 18 -1 19 -72 13 l-76 -7
46 44 c53 51 58 89 13 94 -21 2 -35 -7 -68 -45z"/>
<path d="M3000 8275 c-15 -18 -8 -51 22 -95 25 -36 53 -58 64 -48 11 12 -7 87
-29 119 -26 39 -40 45 -57 24z"/>
<path d="M4713 8161 c-94 -74 -122 -125 -71 -133 20 -3 20 -4 -7 -36 -15 -18
-54 -51 -85 -72 -80 -55 -88 -80 -23 -80 45 0 118 38 193 101 109 90 148 185
100 237 -29 31 -51 28 -107 -17z"/>
<path d="M2380 8099 c-81 -84 -137 -221 -100 -244 20 -12 59 24 70 65 7 26 20
45 40 56 36 22 82 105 78 141 -5 45 -33 40 -88 -18z"/>
<path d="M3112 7998 c2 -21 8 -33 18 -33 19 0 25 32 10 50 -20 24 -31 17 -28
-17z"/>
<path d="M3060 7861 c0 -24 23 -43 44 -35 19 7 21 25 4 42 -19 19 -48 15 -48
-7z"/>
<path d="M4620 7837 c-30 -14 -48 -32 -55 -50 -8 -26 -6 -31 18 -49 15 -11 27
-28 27 -38 0 -9 7 -24 16 -31 14 -11 19 -10 35 10 24 29 24 67 2 80 -17 9 -17
12 1 46 27 50 12 61 -44 32z"/>
<path d="M3136 7773 c-11 -12 -6 -41 9 -53 21 -17 39 1 31 28 -7 21 -30 35
-40 25z"/>
<path d="M6856 7611 c-18 -20 -21 -37 -6 -46 15 -9 40 14 40 36 0 26 -15 31
-34 10z"/>
<path d="M2046 7514 c-21 -21 -20 -37 4 -59 25 -22 50 -13 50 19 0 20 -22 56
-35 56 -2 0 -11 -7 -19 -16z"/>
<path d="M6025 7420 c-20 -23 -14 -50 13 -50 37 0 59 51 26 64 -21 8 -18 9
-39 -14z"/>
<path d="M5990 7310 c-21 -21 -28 -84 -11 -95 16 -9 58 16 70 42 6 13 11 35
11 48 0 20 -5 25 -25 25 -14 0 -34 -9 -45 -20z"/>
<path d="M1056 7294 c-3 -9 -6 -29 -6 -45 0 -16 -11 -51 -24 -77 -22 -43 -43
-145 -64 -308 -10 -76 -1 -107 30 -102 19 2 24 11 29 48 4 25 21 91 39 145 48
149 55 355 11 355 -5 0 -12 -7 -15 -16z"/>
<path d="M6090 7110 c-19 -11 -49 -24 -67 -30 -38 -14 -42 -25 -73 -180 -25
-125 -23 -172 10 -212 20 -23 20 -23 35 -4 8 11 15 34 15 51 0 54 30 136 92
253 73 139 71 165 -12 122z"/>
<path d="M1754 7036 c-12 -51 20 -84 72 -74 29 5 26 23 -12 61 -44 44 -52 45
-60 13z"/>
<path d="M1654 6916 c-11 -28 16 -96 42 -108 35 -16 47 0 32 43 -23 69 -60
101 -74 65z"/>
<path d="M1341 6896 c-15 -17 -11 -78 5 -83 20 -7 75 48 72 71 -4 26 -58 35
-77 12z"/>
<path d="M3782 6837 c-27 -29 -28 -47 -2 -47 24 0 49 45 34 60 -7 7 -18 2 -32
-13z"/>
<path d="M4599 6811 c-42 -41 -49 -61 -23 -61 21 0 84 63 84 84 0 26 -20 19
-61 -23z"/>
<path d="M1301 6746 c-20 -24 -9 -51 19 -51 21 0 25 5 25 30 0 34 -24 45 -44
21z"/>
<path d="M1567 6754 c-8 -8 2 -33 26 -68 l20 -29 9 23 c9 25 2 61 -16 72 -13
9 -31 10 -39 2z"/>
<path d="M1454 6693 c-9 -46 5 -84 36 -100 36 -18 51 -1 38 45 -26 93 -62 120
-74 55z"/>
<path d="M3860 6711 c0 -21 26 -36 36 -20 6 11 -13 39 -27 39 -5 0 -9 -9 -9
-19z"/>
<path d="M6072 6657 c-35 -41 -42 -211 -10 -231 33 -20 43 7 46 129 3 96 1
115 -11 115 -8 0 -19 -6 -25 -13z"/>
<path d="M1211 6646 c-21 -25 -4 -58 27 -54 33 4 36 34 6 55 -18 12 -23 11
-33 -1z"/>
<path d="M954 6615 c-7 -18 2 -45 15 -45 14 0 33 38 26 50 -9 15 -35 12 -41
-5z"/>
<path d="M1030 6560 c0 -13 7 -20 20 -20 13 0 20 7 20 20 0 13 -7 20 -20 20
-13 0 -20 -7 -20 -20z"/>
<path d="M1192 6528 c-13 -13 -16 -50 -6 -61 10 -9 41 10 48 29 6 16 -9 44
-23 44 -4 0 -12 -5 -19 -12z"/>
<path d="M5630 6026 c-30 -13 -91 -40 -135 -61 -97 -45 -280 -119 -318 -129
-25 -6 -28 -4 -23 12 15 47 -56 51 -127 9 -57 -34 -185 -135 -202 -160 -16
-23 -20 -47 -7 -47 5 0 37 19 71 42 58 39 68 42 134 44 77 2 219 45 387 119
47 20 104 43 128 50 47 15 102 52 144 100 48 52 34 58 -52 21z"/>
<path d="M5770 5645 c-10 -11 -10 -19 -2 -27 15 -15 44 -2 40 19 -4 23 -22 27
-38 8z"/>
<path d="M5034 5493 l-29 -28 30 -3 c29 -4 59 21 52 42 -7 20 -24 16 -53 -11z"/>
<path d="M4937 5465 c-4 -8 -2 -17 4 -21 11 -6 39 13 39 27 0 15 -37 10 -43
-6z"/>
<path d="M4695 5384 c-12 -9 -31 -13 -47 -10 -27 5 -38 -6 -19 -18 13 -8 -3
-71 -40 -151 -72 -159 -99 -289 -99 -481 0 -247 56 -612 126 -816 37 -109 62
-212 80 -334 9 -60 24 -134 34 -165 26 -75 39 -197 48 -419 7 -177 8 -185 27
-182 11 2 25 10 32 19 17 22 27 146 27 371 1 181 -1 205 -16 216 -32 24 -33
88 -2 253 6 31 5 32 -41 38 -27 5 -49 14 -52 22 -3 8 11 47 31 86 44 87 48
132 11 141 -31 8 -33 19 -38 180 -2 107 -6 130 -20 141 -12 9 -17 27 -17 63 0
44 -4 53 -31 76 -17 14 -39 26 -50 26 -15 0 -17 -5 -13 -29 7 -35 -20 -96 -31
-69 -4 9 -5 115 -3 235 l3 218 44 123 c24 68 41 125 39 128 -3 2 -22 -9 -44
-26 -67 -51 -76 -40 -48 58 21 72 71 182 112 246 44 69 42 95 -3 60z m-142
-545 c-8 -29 -13 -23 -13 14 0 22 3 28 9 18 5 -7 6 -22 4 -32z m99 -667 c3 -9
1 -26 -3 -37 -6 -15 -8 -11 -8 18 -1 40 4 48 11 19z"/>
<path d="M4951 5355 c-40 -44 -52 -77 -30 -90 14 -9 46 20 81 74 33 53 34 61
9 61 -10 0 -37 -20 -60 -45z"/>
<path d="M834 5372 c-34 -22 -46 -112 -20 -147 12 -17 16 -17 31 -5 45 37 62
123 30 146 -21 16 -26 17 -41 6z"/>
<path d="M5083 5300 c-26 -11 -27 -14 -13 -41 19 -35 80 -18 80 22 0 26 -28
34 -67 19z"/>
<path d="M4826 5192 c-30 -44 -33 -70 -9 -79 24 -10 53 32 53 78 0 21 -4 39
-9 39 -4 0 -20 -17 -35 -38z"/>
<path d="M5160 5213 c0 -16 32 -39 99 -72 83 -40 97 -54 105 -101 4 -25 14
-43 27 -51 30 -16 41 0 41 59 0 66 -26 103 -97 137 -56 28 -175 46 -175 28z"/>
<path d="M762 5098 c-11 -14 1 -58 17 -58 15 0 22 30 11 51 -13 22 -14 23 -28
7z"/>
<path d="M4687 4736 c-33 -30 -47 -56 -31 -56 25 0 94 56 94 77 0 22 -25 14
-63 -21z"/>
<path d="M5214 4715 c-4 -9 -2 -21 4 -27 15 -15 44 -1 40 19 -4 23 -36 29 -44
8z"/>
<path d="M4719 4494 c-20 -24 4 -38 25 -15 14 16 15 19 2 24 -8 3 -20 -1 -27
-9z"/>
<path d="M4007 4082 c-17 -19 -23 -52 -9 -52 21 1 57 51 45 64 -10 10 -19 7
-36 -12z"/>
<path d="M3074 3720 c-30 -12 -37 -39 -19 -66 20 -31 46 -30 84 2 39 33 39 49
0 63 -37 13 -37 13 -65 1z"/>
<path d="M3522 3698 c-28 -28 2 -57 39 -38 15 9 17 15 9 30 -12 23 -30 26 -48
8z"/>
<path d="M3383 3593 c-18 -7 -16 -30 3 -37 26 -10 64 4 64 25 0 14 -7 19 -27
18 -16 0 -34 -3 -40 -6z"/>
<path d="M3835 3511 c-10 -17 31 -31 87 -31 65 0 91 13 60 29 -25 13 -139 15
-147 2z"/>
<path d="M3672 3420 c-55 -8 -82 -23 -82 -46 0 -27 51 -36 155 -30 117 7 160
17 160 37 0 34 -129 56 -233 39z"/>
<path d="M4714 3115 c-7 -18 3 -35 22 -35 20 0 30 30 13 41 -20 12 -29 11 -35
-6z"/>
<path d="M4317 3043 c-13 -12 -7 -70 8 -83 12 -10 17 -8 26 13 20 44 -7 98
-34 70z"/>
<path d="M4657 3002 c-23 -25 -21 -42 2 -42 18 0 51 34 51 52 0 15 -37 8 -53
-10z"/>
<path d="M4488 2983 c-7 -30 3 -54 20 -51 23 4 23 61 1 66 -9 2 -18 -5 -21
-15z"/>
<path d="M4305 2870 c-29 -55 -13 -80 38 -61 31 12 35 36 11 69 -20 29 -30 28
-49 -8z"/>
<path d="M4620 2886 c0 -7 7 -19 15 -26 12 -10 16 -9 21 3 3 9 3 21 -1 27 -9
15 -35 12 -35 -4z"/>
<path d="M4486 2771 c-19 -36 -31 -160 -17 -180 16 -24 38 3 50 60 15 69 14
124 -3 138 -12 10 -18 7 -30 -18z"/>
<path d="M4794 2720 c5 -32 -1 -61 -25 -131 -17 -49 -28 -97 -25 -105 3 -8 0
-27 -8 -42 -36 -72 -60 -262 -32 -262 20 0 32 19 49 76 8 28 23 66 31 83 9 17
14 35 12 40 -3 5 8 26 24 46 17 21 33 50 36 64 11 51 14 56 36 66 29 13 36 71
14 113 -22 43 -74 92 -98 92 -18 0 -20 -4 -14 -40z"/>
<path d="M4336 2695 c-7 -26 8 -65 24 -65 16 0 39 42 32 59 -13 37 -47 41 -56
6z"/>
<path d="M4478 2533 c-9 -10 -30 -46 -47 -80 -24 -49 -39 -66 -66 -77 -43 -18
-45 -34 -5 -47 25 -9 30 -16 30 -42 0 -40 -33 -95 -63 -106 -13 -5 -29 -16
-35 -24 -11 -13 -9 -18 14 -29 17 -8 31 -25 36 -43 10 -36 1 -102 -19 -132
-19 -28 -13 -83 10 -97 13 -8 24 -7 48 7 17 9 34 17 39 17 15 0 30 -94 27
-168 -2 -67 0 -75 22 -93 21 -17 26 -18 45 -6 23 16 32 52 42 170 3 42 10 77
14 77 5 0 14 -26 20 -57 23 -113 60 -164 60 -85 0 46 -26 228 -35 242 -3 6
-13 10 -20 10 -8 0 -22 11 -31 25 -19 29 -43 31 -85 9 -17 -8 -33 -13 -36 -10
-3 3 4 27 15 53 19 43 19 50 6 68 -27 37 -27 47 -6 109 28 78 72 263 72 299 0
32 -28 37 -52 10z"/>
<path d="M4346 2498 c-14 -19 -14 -24 -2 -36 18 -19 36 -7 36 23 0 33 -16 39
-34 13z"/>
<path d="M4670 2120 c-8 -15 -9 -25 -2 -32 17 -17 44 -1 40 24 -4 30 -24 34
-38 8z"/>
<path d="M4943 1980 c-16 -7 -23 -18 -23 -38 0 -30 43 -105 79 -137 l23 -20
24 28 c39 46 26 124 -28 161 -25 18 -42 19 -75 6z"/>
<path d="M4427 1432 c-25 -27 -74 -141 -97 -224 -20 -71 -27 -178 -12 -178 14
0 52 67 75 135 14 39 37 103 51 143 37 101 27 173 -17 124z"/>
<path d="M4696 1407 c-25 -37 -39 -163 -34 -305 4 -118 7 -136 26 -160 13 -15
36 -45 53 -67 50 -67 60 -76 72 -72 7 2 13 12 15 23 11 62 27 99 62 139 49 56
50 73 8 77 -30 3 -33 6 -40 48 -14 81 -71 127 -100 81 -7 -12 -16 -21 -20 -21
-5 0 -8 63 -8 140 0 142 -6 161 -34 117z m84 -406 c0 -26 -17 -36 -35 -21 -18
15 -8 40 16 40 12 0 19 -7 19 -19z"/>
<path d="M7755 1410 c-3 -5 -3 -25 1 -44 l6 -35 -51 -7 c-66 -9 -85 -29 -51
-56 22 -18 35 -20 105 -15 44 4 103 13 132 22 90 27 123 75 52 75 -34 0 -61
12 -102 46 -29 24 -81 32 -92 14z"/>
<path d="M7960 1169 c-58 -10 -149 -25 -203 -32 -99 -14 -126 -25 -112 -48 8
-12 29 -11 305 10 107 8 165 27 177 57 3 8 4 16 2 18 -15 14 -79 12 -169 -5z"/>
<path d="M8393 1123 c-18 -7 -16 -40 3 -47 45 -17 124 -1 124 25 0 19 -95 35
-127 22z"/>
<path d="M8150 1089 c-68 -13 -93 -27 -111 -58 -18 -32 -50 -41 -139 -41 -65
0 -97 -19 -102 -60 l-3 -25 76 3 76 4 41 -41 c24 -25 50 -41 64 -41 42 0 349
70 394 89 72 32 52 61 -42 61 -54 0 -77 25 -72 77 l3 38 -70 2 c-39 0 -90 -3
-115 -8z"/>
<path d="M6420 671 c0 -24 23 -43 44 -35 19 7 21 25 4 42 -19 19 -48 15 -48
-7z"/>
<path d="M4924 475 c-14 -43 -15 -58 -6 -67 20 -20 35 6 40 67 6 72 -12 72
-34 0z"/>
</g>
</svg>
