<?xml version="1.0" standalone="no"?>
<!DOCTYPE svg PUBLIC "-//W3C//DTD SVG 20010904//EN"
 "http://www.w3.org/TR/2001/REC-SVG-20010904/DTD/svg10.dtd">
<svg version="1.0" xmlns="http://www.w3.org/2000/svg"
 width="1125.000000pt" height="1280.000000pt" viewBox="0 0 1125.000000 1280.000000"
 preserveAspectRatio="xMidYMid meet">
<metadata>
Created by potrace 1.15, written by Peter Selinger 2001-2017
</metadata>
<g transform="translate(0.000000,1280.000000) scale(0.100000,-0.100000)"
fill="#000000" stroke="none">
<path d="M1060 12748 c-24 -56 -32 -77 -103 -283 -72 -206 -71 -197 -72 -465
l-1 -245 -37 -145 c-20 -80 -41 -188 -47 -240 -20 -168 -22 -173 -136 -290
-55 -58 -109 -120 -118 -137 -22 -43 -20 -86 4 -108 19 -17 20 -17 29 9 13 31
13 32 62 4 43 -24 78 -83 60 -101 -8 -8 -17 -5 -33 10 -34 32 -78 45 -125 38
-35 -5 -43 -3 -56 16 l-16 21 -35 -21 c-49 -31 -125 -118 -148 -170 -10 -24
-31 -60 -47 -80 -54 -69 -56 -87 -54 -441 3 -415 15 -568 54 -707 43 -153 44
-174 17 -283 -33 -135 -33 -293 1 -368 42 -92 132 -151 232 -152 43 0 60 4 74
20 28 31 52 24 139 -41 82 -62 138 -93 189 -104 17 -3 31 -15 37 -30 5 -14 17
-25 25 -25 35 0 75 -33 113 -92 21 -35 69 -98 106 -142 38 -44 86 -116 112
-167 24 -49 60 -107 79 -128 37 -41 42 -64 24 -121 -5 -19 -19 -78 -30 -130
-26 -121 -38 -462 -20 -564 12 -67 38 -136 52 -136 4 0 5 75 2 168 -5 167 -5
167 20 204 45 65 49 79 63 199 15 142 32 184 81 200 32 10 34 14 29 43 -3 17
-9 48 -12 69 -6 32 -13 40 -43 53 -51 21 -141 113 -221 225 -37 52 -88 112
-113 132 -27 22 -56 58 -71 90 -40 84 -198 225 -280 249 -55 16 -149 110 -182
182 -23 50 -24 59 -13 96 12 39 81 130 99 130 4 0 6 -17 3 -39 -5 -37 -4 -39
28 -43 18 -3 44 -2 58 1 l24 7 -29 23 -29 24 45 -7 c25 -4 65 -10 90 -13 62
-8 73 -19 65 -62 l-7 -36 25 23 c14 13 31 37 38 53 10 26 9 32 -10 53 -11 12
-21 28 -21 34 0 24 45 11 130 -39 56 -32 106 -53 137 -57 46 -7 49 -9 73 -59
14 -29 32 -59 40 -67 19 -18 284 -159 332 -176 31 -12 47 -11 105 3 41 10 153
21 272 27 222 11 238 15 334 85 27 19 67 39 90 45 101 25 187 89 272 202 119
158 151 253 165 491 15 241 20 279 33 274 6 -2 17 -23 24 -46 7 -24 28 -60 47
-81 19 -22 40 -58 47 -82 18 -62 16 -181 -5 -272 -15 -64 -16 -86 -6 -124 18
-73 82 -192 128 -240 43 -44 44 -44 96 -38 41 6 64 2 105 -13 61 -25 63 -25
59 -8 -7 40 50 95 86 81 12 -5 15 4 13 53 l-2 58 33 3 c28 3 40 -4 76 -40 41
-40 54 -69 70 -149 3 -14 21 -45 41 -70 42 -53 43 -76 11 -189 -40 -139 -49
-200 -42 -274 5 -59 4 -67 -9 -62 -8 3 -22 9 -30 12 -26 10 -17 -16 45 -145
33 -68 60 -132 60 -142 0 -19 -1 -19 -25 -3 -14 9 -28 15 -30 13 -2 -3 16 -49
40 -103 25 -54 47 -114 51 -133 4 -19 34 -74 68 -121 82 -114 83 -117 62 -109
-21 8 -17 1 40 -73 50 -67 180 -265 218 -335 l28 -50 -74 78 -73 77 4 -87 c1
-49 10 -106 18 -128 33 -90 36 -106 27 -115 -6 -6 -23 -1 -47 15 -36 25 -37
25 -37 5 0 -11 16 -62 35 -112 20 -50 34 -92 32 -94 -2 -2 -22 6 -44 17 -50
25 -116 23 -121 -3 -2 -10 21 -43 53 -78 55 -60 110 -139 133 -193 19 -43 15
-43 -21 -2 -19 22 -38 35 -44 32 -7 -4 -17 -32 -24 -62 -7 -30 -15 -55 -18
-54 -3 0 -28 28 -56 62 -48 59 -50 61 -53 35 -4 -35 13 -66 94 -168 37 -47 77
-107 90 -135 47 -100 27 -100 -79 3 -62 59 -78 71 -73 52 15 -60 19 -140 6
-155 -18 -22 -49 -18 -86 10 -18 14 -35 25 -39 25 -3 0 10 -29 30 -63 19 -35
35 -69 35 -74 0 -6 -17 -14 -37 -18 -75 -14 -81 -45 -28 -139 48 -86 47 -114
-3 -60 -20 22 -56 66 -79 97 -24 32 -48 57 -54 57 -17 0 -2 -48 33 -105 32
-53 38 -99 19 -163 -7 -25 -6 -44 7 -77 12 -33 13 -48 5 -56 -19 -19 -50 7
-78 66 -14 30 -30 55 -35 55 -17 0 -11 -77 9 -127 52 -131 93 -211 122 -236
39 -36 33 -44 -12 -14 -18 12 -61 64 -94 115 -33 50 -64 92 -69 92 -20 0 5
-92 50 -184 l48 -99 -22 -17 c-28 -23 -28 -36 3 -85 13 -22 25 -43 25 -48 0
-4 -22 4 -50 18 -27 14 -56 25 -65 25 -27 0 -17 -46 20 -92 59 -73 63 -87 35
-108 l-25 -19 34 -35 c18 -19 60 -49 92 -66 33 -17 59 -35 59 -40 0 -14 -51
-70 -64 -70 -7 0 -21 10 -32 21 -10 12 -45 44 -77 71 -102 84 -95 35 11 -83
75 -85 97 -122 111 -188 6 -29 38 -110 70 -180 68 -148 81 -183 81 -225 l0
-31 -20 25 -20 25 -19 -22 c-11 -13 -21 -23 -23 -23 -2 0 -2 27 0 59 5 75 -18
149 -64 197 -25 27 -39 35 -55 31 -29 -8 -49 2 -49 24 0 25 -14 24 -32 -3 -24
-35 -43 -16 -72 73 -15 46 -32 91 -36 100 -17 30 -82 71 -137 86 -30 8 -94 32
-141 54 -100 46 -112 48 -112 14 0 -21 -5 -25 -28 -25 -33 0 -119 29 -177 59
-21 12 -55 21 -75 21 -48 1 -104 28 -175 86 -70 58 -99 77 -140 91 -16 6 -39
15 -50 19 -13 5 3 -25 48 -89 37 -53 67 -100 67 -103 0 -4 -22 14 -49 40 -52
48 -116 85 -127 73 -10 -9 9 -43 51 -95 38 -47 44 -69 20 -78 -25 -10 -62 4
-100 37 l-35 31 0 -39 c0 -54 18 -101 41 -108 25 -8 44 -46 59 -120 14 -71 40
-135 63 -154 24 -19 47 2 47 43 0 43 10 77 21 70 12 -7 11 -60 -1 -106 -15
-52 -36 -71 -71 -63 -25 6 -30 3 -39 -22 -19 -52 -34 -75 -63 -95 l-28 -20 6
33 c4 22 -1 56 -15 99 -11 36 -25 92 -30 125 -11 71 -65 184 -114 240 -47 53
-47 28 -1 -76 41 -94 42 -99 13 -99 -38 0 -197 189 -254 302 -26 50 -54 73
-82 64 -25 -8 -121 40 -165 82 -21 20 -51 62 -67 92 -15 30 -53 98 -84 150
-91 153 -156 339 -156 445 0 45 11 89 41 175 79 223 118 345 119 373 0 34 -22
36 -48 2 -51 -65 -37 17 16 94 l37 55 -1 110 c0 61 -8 155 -18 209 -18 97 -18
97 -47 97 -45 0 -79 39 -80 92 0 63 -14 137 -27 150 -19 19 -59 -28 -72 -81
-5 -25 -15 -167 -20 -316 -20 -547 -30 -722 -46 -810 -13 -75 -14 -107 -5
-187 15 -134 59 -268 116 -348 66 -95 78 -126 72 -182 -5 -43 -3 -50 17 -64
14 -9 28 -32 35 -57 14 -56 28 -225 36 -422 18 -464 85 -850 200 -1155 43
-114 48 -136 56 -250 4 -69 24 -206 43 -305 53 -277 57 -314 54 -550 -2 -178
1 -237 15 -308 21 -101 17 -114 -44 -153 -32 -20 -40 -30 -36 -46 3 -12 -7
-44 -24 -77 -16 -31 -40 -103 -53 -161 -51 -225 -83 -260 -299 -329 -53 -17
-106 -31 -116 -31 -44 0 -185 -84 -257 -153 -77 -73 -166 -184 -183 -230 -13
-33 7 -49 98 -77 77 -24 120 -25 203 -4 80 21 224 24 258 5 14 -8 44 -29 68
-47 82 -62 189 -67 412 -20 63 13 162 31 220 40 129 20 203 41 220 61 23 28 3
27 -86 -4 -49 -17 -90 -31 -92 -31 -2 0 20 26 50 58 54 58 78 110 78 168 0 49
44 126 124 219 44 52 80 104 86 125 6 22 6 68 0 125 -16 154 -13 197 16 241
15 21 46 60 69 86 51 57 76 107 83 165 4 37 -2 57 -39 131 l-44 87 -3 215 c-7
412 -5 527 17 795 30 382 41 688 41 1161 0 305 3 413 12 422 19 19 66 15 210
-18 73 -16 178 -34 233 -40 192 -21 231 -43 311 -173 31 -50 87 -135 123 -187
86 -121 122 -187 154 -276 42 -118 50 -277 22 -443 -7 -44 2 -53 23 -21 16 27
32 25 32 -3 0 -30 -27 -67 -48 -67 -13 0 -11 -5 8 -20 l25 -19 -18 -52 c-13
-35 -15 -54 -8 -58 24 -15 42 -242 25 -309 -6 -22 -8 -22 -25 -6 -18 16 -19
16 -19 -16 0 -18 12 -53 26 -78 23 -39 25 -48 16 -86 -19 -72 -23 -140 -32
-530 -10 -417 -17 -491 -61 -634 -16 -54 -41 -160 -55 -237 -59 -333 -66 -353
-138 -424 -96 -93 -258 -168 -461 -211 -49 -10 -88 -19 -85 -20 3 -1 41 -4 85
-6 100 -6 145 -13 145 -23 0 -14 -152 -21 -435 -21 -148 0 -276 -4 -284 -9
-26 -17 25 -31 111 -31 46 0 108 -7 138 -15 69 -18 118 -18 150 0 35 20 153
18 215 -3 57 -19 66 -41 40 -91 -21 -41 -45 -46 -215 -45 -117 1 -135 -1 -95
-8 106 -20 219 -49 250 -64 21 -9 38 -27 44 -45 11 -32 32 -37 51 -14 7 8 16
51 21 95 14 126 39 186 102 246 30 28 93 72 141 99 118 67 188 131 214 197 38
97 65 230 81 410 7 72 17 113 36 155 15 32 36 83 45 113 15 45 22 55 39 53 16
-2 22 6 31 40 6 23 12 47 14 52 2 6 17 -18 35 -52 28 -57 51 -80 51 -53 0 15
43 12 67 -5 11 -8 23 -29 27 -47 4 -22 16 -38 35 -50 17 -9 31 -26 33 -40 3
-21 8 -23 72 -24 41 -1 72 -7 76 -14 9 -15 17 -218 31 -764 9 -389 8 -453 -7
-508 -9 -30 -32 -20 -44 18 -15 44 -80 114 -107 114 -11 0 -26 -7 -33 -15 -11
-13 -6 -22 29 -54 45 -42 53 -77 24 -103 -48 -40 -67 -29 -77 47 -4 28 -18 66
-31 85 -13 19 -28 62 -34 95 -11 64 -47 110 -76 99 -19 -8 -19 -59 0 -233 8
-74 13 -136 11 -138 -2 -2 -36 37 -76 87 -84 103 -62 104 -183 -7 -37 -35 -75
-63 -85 -63 -10 0 -33 16 -52 34 l-33 35 17 88 c22 106 50 170 111 243 53 64
64 95 42 117 -28 28 -64 5 -205 -131 -128 -124 -191 -173 -205 -160 -13 14
-48 -21 -76 -76 -55 -112 -51 -192 14 -249 44 -38 92 -48 133 -27 36 19 80 69
88 102 8 32 14 31 66 -11 86 -70 87 -70 353 -70 221 0 246 2 321 23 89 26 148
57 139 72 -4 6 7 23 24 39 35 33 34 29 30 301 -2 74 -3 169 -3 210 l-1 74 155
27 c85 15 207 35 270 44 270 37 330 48 330 57 0 14 -274 -9 -550 -47 -96 -14
-185 -22 -198 -19 -13 4 -25 17 -29 32 -8 35 4 368 22 597 23 279 45 405 151
850 30 126 64 272 75 325 11 52 29 124 40 160 19 67 107 659 154 1035 29 231
48 325 101 489 19 60 40 146 45 190 15 111 23 126 84 142 81 20 398 150 550
224 174 86 288 161 385 255 126 121 233 178 341 179 69 1 82 -10 74 -64 -33
-233 -46 -676 -25 -879 24 -230 81 -470 136 -571 69 -125 164 -260 184 -260
28 0 207 -176 241 -236 26 -46 32 -50 59 -46 27 4 32 0 46 -33 28 -69 36 -204
24 -419 -15 -266 -24 -330 -54 -369 -14 -18 -75 -124 -136 -237 -122 -223
-181 -318 -226 -365 -40 -43 -167 -110 -311 -165 -241 -93 -420 -239 -439
-359 -4 -22 -13 -46 -22 -53 -11 -10 -73 -13 -239 -13 -211 0 -225 1 -239 19
-8 11 -14 30 -14 43 0 67 -85 82 -188 33 -83 -39 -217 -170 -174 -170 5 0 52
31 106 70 114 81 171 104 191 76 8 -10 17 -36 20 -58 8 -48 -2 -58 -58 -58
-21 0 -54 -7 -74 -15 -53 -23 -30 -41 64 -49 92 -7 113 -21 85 -56 -24 -29
-82 -38 -257 -40 -164 -1 -392 -15 -515 -31 l-95 -13 65 -12 c100 -19 273 -34
382 -34 92 0 124 10 77 25 -12 4 -17 11 -13 15 5 5 224 12 486 17 262 5 481
12 485 16 4 5 2 12 -6 16 -10 6 -8 10 6 16 10 4 304 11 653 16 349 4 636 8
638 8 10 4 -1 21 -15 21 -45 0 -143 23 -143 34 0 7 -11 23 -25 36 -14 13 -25
27 -25 31 0 4 47 67 105 139 58 72 111 143 119 158 8 15 24 68 35 117 47 198
160 512 261 725 97 205 102 226 125 522 17 216 25 268 56 367 27 84 37 270 19
355 -7 35 -42 117 -87 205 -174 336 -198 397 -189 475 18 157 308 856 385 929
33 32 78 44 215 57 69 6 124 17 148 28 l37 19 24 -26 c42 -44 90 -127 227
-392 206 -395 285 -523 429 -689 50 -58 112 -142 138 -188 82 -142 237 -373
308 -457 37 -44 84 -105 105 -135 46 -69 178 -300 300 -530 122 -230 185 -339
285 -490 119 -180 329 -582 360 -690 l7 -25 -26 24 -26 24 0 -60 c0 -47 5 -66
23 -89 21 -27 22 -38 22 -179 0 -177 -3 -186 -99 -299 -36 -43 -66 -87 -66
-98 0 -11 11 -28 24 -39 23 -18 39 -50 51 -102 5 -25 9 -28 30 -23 14 4 25 2
25 -3 0 -18 -41 -32 -72 -26 -34 8 -48 -4 -48 -45 -1 -67 -127 -214 -179 -208
-41 5 -35 25 23 86 62 65 70 86 31 76 -58 -15 -60 -13 -57 44 5 77 -17 68 -67
-27 -41 -79 -53 -91 -95 -91 -48 0 -284 73 -374 115 -108 51 -132 54 -260 26
-48 -11 -121 -23 -162 -27 -41 -3 -79 -9 -83 -11 -9 -6 20 -40 45 -54 11 -6
30 -2 60 11 46 21 113 26 138 10 24 -15 -9 -41 -66 -51 -29 -5 -56 -17 -66
-30 -13 -15 -25 -19 -42 -15 -20 5 -23 3 -19 -18 4 -19 -1 -26 -24 -34 -26
-10 -24 -10 22 -11 70 -1 152 23 204 60 46 32 131 51 194 44 18 -3 96 -12 175
-21 78 -10 142 -20 142 -24 0 -4 -37 -11 -82 -15 -161 -13 -161 -21 -3 -28
181 -9 204 -14 225 -53 9 -16 32 -37 51 -47 50 -27 164 -19 243 17 75 33 105
33 214 -4 111 -37 134 -37 247 -2 180 57 256 111 268 189 4 24 26 69 53 108
59 86 105 185 111 239 11 95 -46 306 -242 891 -165 495 -194 597 -250 890 -57
302 -61 311 -259 688 -55 105 -62 163 -21 173 29 7 30 8 10 38 -20 30 -34 183
-35 366 0 199 -16 457 -35 561 -15 88 -60 229 -112 354 -16 39 -44 115 -62
169 -18 55 -41 111 -52 125 -33 45 -62 246 -79 546 -17 288 -45 443 -117 635
-74 199 -181 368 -345 549 -167 184 -245 279 -336 406 -47 66 -101 140 -121
164 -19 24 -36 54 -36 67 -1 12 -20 43 -42 67 -42 45 -63 96 -63 153 0 46 21
68 65 66 96 -4 355 -103 397 -153 16 -19 17 -19 32 3 24 33 20 53 -25 141 -23
45 -42 95 -42 113 -1 25 -6 34 -21 36 -15 2 -21 10 -21 27 0 36 -61 73 -185
115 -131 43 -264 69 -495 96 -102 12 -211 32 -255 45 -170 53 -396 99 -880
180 -548 91 -685 106 -1260 135 -839 43 -1462 94 -1790 146 -278 43 -623 179
-857 336 -76 51 -117 96 -128 140 -4 14 -19 37 -35 51 -19 17 -29 39 -34 71
-9 60 -46 168 -139 407 -42 107 -79 212 -82 234 -4 22 -30 87 -58 145 -86 180
-86 306 1 497 78 171 95 287 52 359 -14 24 -24 59 -25 92 -5 72 -30 111 -180
277 -70 77 -142 163 -160 191 -76 115 -96 248 -76 489 13 154 56 477 71 540 5
22 10 57 10 78 0 74 -58 42 -220 -122 -243 -245 -480 -559 -480 -635 0 -21 -4
-27 -15 -22 -20 7 -41 -16 -80 -94 -18 -37 -45 -81 -60 -98 -32 -38 -106 -67
-211 -82 -118 -17 -595 -26 -621 -12 -14 8 -25 28 -32 63 -6 28 -38 116 -71
194 -82 195 -104 289 -103 440 0 104 5 141 37 273 20 85 36 163 34 175 -6 38
-25 28 -48 -25z m616 -1213 c7 -17 -14 -75 -26 -75 -11 0 -70 68 -70 80 0 17
90 12 96 -5z m-596 -23 c0 -16 -68 -74 -79 -68 -30 19 11 76 54 76 14 0 25 -4
25 -8z m741 -43 c42 -29 37 -41 -14 -34 -35 6 -46 3 -61 -14 -19 -21 -19 -21
11 -15 25 5 31 2 36 -15 4 -18 10 -21 31 -15 22 5 26 3 26 -14 0 -12 -7 -25
-15 -29 -20 -12 -32 -83 -40 -238 -13 -255 -50 -368 -201 -623 -48 -81 -87
-154 -87 -163 2 -29 131 -288 169 -340 20 -28 69 -74 108 -103 118 -87 190
-180 221 -283 6 -23 -10 -33 -17 -11 -3 7 -9 8 -18 3 -10 -6 -12 -33 -7 -119
6 -128 16 -163 51 -172 l24 -6 -30 -27 c-34 -31 -31 -55 6 -45 16 4 25 0 30
-12 11 -28 -3 -52 -34 -59 -30 -7 -46 -36 -70 -132 -6 -23 -15 -45 -20 -48
-15 -9 -12 -53 5 -79 18 -26 12 -34 -42 -55 -18 -7 -39 -24 -48 -37 -24 -37
-90 -33 -168 9 -73 38 -177 132 -177 158 0 26 9 24 42 -8 26 -25 28 -25 28 -7
0 36 -29 121 -52 149 -18 23 -26 26 -60 22 -44 -6 -48 6 -20 63 13 27 27 38
60 48 53 17 53 32 2 97 -22 28 -40 53 -40 56 0 4 13 9 29 12 34 7 41 21 51
107 5 36 14 98 21 137 l13 73 -32 33 c-24 25 -32 42 -32 69 0 42 -4 45 -80 73
-47 17 -55 24 -58 48 -2 18 -13 32 -32 42 -65 34 -101 8 -52 -36 l31 -28 -27
-13 c-15 -7 -28 -22 -30 -33 -2 -11 -8 -24 -13 -30 -6 -6 -110 -12 -250 -15
-238 -5 -241 -5 -260 -29 -22 -27 -25 -79 -6 -104 6 -9 44 -32 82 -51 81 -39
107 -62 84 -77 -21 -13 -65 -1 -151 42 -109 55 -111 54 -106 -32 4 -79 15 -92
66 -85 46 7 37 -11 -21 -43 -40 -22 -49 -24 -67 -13 -14 9 -26 9 -39 3 -22
-12 -51 -55 -51 -75 0 -9 28 -38 62 -67 57 -48 63 -50 75 -33 7 10 13 24 13
31 0 18 37 90 50 98 7 4 9 -2 4 -19 -8 -33 12 -62 32 -45 8 6 14 18 14 26 0
29 31 80 56 92 29 13 94 15 94 3 0 -20 -40 -43 -67 -40 -27 3 -28 1 -29 -40
-4 -108 -146 -214 -291 -216 -39 -1 -75 -5 -80 -10 -4 -4 5 -18 20 -30 l28
-23 -33 -9 c-39 -11 -57 -51 -57 -131 -1 -38 -10 -68 -34 -114 -17 -34 -37
-64 -43 -66 -7 -2 -22 17 -34 42 -20 41 -22 56 -16 122 4 41 33 179 66 306 95
376 143 509 214 588 39 43 45 69 20 90 -14 11 -22 10 -55 -9 -47 -27 -61 -28
-85 -1 -10 12 -39 30 -64 41 -75 32 -104 70 -81 106 6 10 29 2 101 -33 104
-50 108 -50 183 1 48 33 117 47 117 24 0 -5 -6 -10 -14 -10 -23 0 -36 -26 -40
-79 -2 -28 -2 -51 0 -51 2 0 15 24 28 53 21 49 34 63 105 116 32 23 23 58 -10
41 -27 -15 -35 -7 -14 14 9 9 33 16 54 16 47 0 110 40 157 100 57 71 57 85 20
327 -20 132 -21 193 -2 193 29 0 27 23 -5 68 -30 41 -34 56 -39 127 -4 64 -8
80 -22 83 -9 2 -19 -5 -23 -18 -3 -11 -25 -30 -48 -41 -53 -27 -76 -56 -77
-95 0 -17 -7 -37 -15 -44 -32 -26 -97 36 -111 107 -4 20 0 36 14 52 21 27 38
22 52 -13 7 -19 10 -18 25 19 10 22 19 62 20 88 3 55 0 49 42 71 41 21 59 55
67 131 10 86 14 95 39 92 16 -1 23 4 25 21 5 31 19 28 39 -10 45 -85 55 -167
23 -189 -19 -13 -20 -15 -4 -37 25 -36 56 -25 72 23 7 22 34 61 60 88 l46 47
-46 0 c-58 0 -96 26 -80 56 6 10 25 33 43 49 32 30 32 23 -3 -27 -12 -17 -15
-29 -8 -33 13 -8 91 1 238 26 126 22 182 41 182 62 0 34 89 24 105 -12 8 -19
15 -22 43 -17 39 6 102 50 102 71 0 18 37 6 81 -26z m-411 1 c25 -15 -16 -24
-117 -25 -75 0 -96 3 -110 18 -16 16 -12 17 97 17 63 0 122 -4 130 -10z m606
-56 c56 -60 89 -69 89 -24 0 20 -7 26 -40 36 -47 13 -62 44 -20 44 38 0 78
-24 113 -67 26 -32 32 -36 46 -24 9 7 16 27 16 43 0 27 2 28 23 17 12 -7 39
-18 60 -24 l38 -11 -86 -94 c-91 -100 -103 -129 -61 -148 43 -19 55 -51 65
-168 5 -60 15 -122 20 -137 18 -47 14 -67 -13 -67 -44 0 -96 86 -96 158 0 17
-6 22 -27 22 -28 0 -73 35 -73 56 0 7 7 17 17 22 11 7 17 27 20 68 l5 59 -42
-43 c-23 -23 -46 -40 -51 -36 -5 3 -9 32 -9 65 0 48 -3 61 -17 65 -54 17 -73
48 -80 135 -6 60 12 109 40 109 6 0 35 -25 63 -56z m899 6 c24 -26 13 -68 -20
-76 -13 -3 -29 -3 -34 1 -12 7 -15 78 -4 88 12 13 40 7 58 -13z m-439 -102 c5
-7 8 -31 9 -54 0 -27 8 -50 19 -63 24 -27 12 -27 -21 -1 -33 26 -45 25 -73 -5
-26 -28 -55 -33 -63 -11 -9 22 20 119 40 133 22 17 80 17 89 1z m282 -187 c21
-11 23 -11 20 6 -2 10 -13 22 -26 28 -23 10 -29 29 -12 40 17 11 92 -39 148
-98 54 -58 64 -83 35 -94 -11 -4 -27 7 -54 38 -33 39 -42 44 -77 43 -22 -1
-54 -9 -72 -18 -70 -35 -89 -17 -97 91 l-6 78 59 -51 c32 -28 70 -57 82 -63z
m371 48 c17 -12 31 -26 31 -31 0 -9 -94 -11 -127 -2 -16 4 -23 14 -23 30 0 47
57 49 119 3z m-134 -254 c28 -27 34 -75 10 -75 -22 0 -65 45 -65 68 0 39 21
42 55 7z m-615 -147 c0 -7 -14 -33 -30 -57 -17 -24 -30 -48 -30 -54 0 -5 11
-23 25 -39 30 -35 28 -54 -5 -50 -13 1 -31 -5 -42 -14 -17 -16 -18 -15 -18 37
0 30 5 72 11 93 16 56 89 125 89 84z m104 -109 c66 -24 76 -36 43 -48 -50 -19
-137 18 -124 53 8 21 15 20 81 -5z m-1957 -25 c10 -28 -16 -92 -48 -115 -23
-16 -29 -28 -27 -48 2 -21 8 -26 30 -24 18 1 29 -4 33 -16 6 -18 47 -40 120
-62 67 -21 139 -78 120 -97 -3 -3 -43 6 -89 21 -68 23 -106 28 -202 30 -124 3
-164 14 -164 46 0 9 12 28 26 42 33 31 53 70 63 122 7 41 8 42 44 39 29 -2 39
1 43 15 20 64 38 80 51 47z m1681 -44 c-34 -26 -40 -55 -19 -81 15 -19 28 -22
89 -21 87 0 102 -11 102 -73 l0 -44 -42 19 c-45 20 -116 33 -260 49 -88 10
-128 23 -128 42 0 15 47 29 100 29 41 0 53 5 79 31 17 17 31 35 31 40 0 10 62
40 69 33 2 -2 -7 -13 -21 -24z m328 -116 c8 -20 12 -39 9 -43 -10 -9 -45 38
-45 60 0 31 20 22 36 -17z m-411 -157 c11 -15 12 -24 3 -34 -15 -19 -83 -17
-99 3 -11 14 -10 20 13 39 31 27 61 24 83 -8z m-1554 -67 c43 -24 9 -110 -44
-110 -34 0 -67 28 -67 56 0 50 62 80 111 54z m1269 -9 c0 -31 -43 -76 -65 -67
-16 6 -14 11 20 46 22 22 40 40 42 40 2 0 3 -9 3 -19z m557 -57 c9 -26 -273
-167 -330 -166 -34 1 -77 27 -77 46 0 19 52 36 109 36 61 0 119 17 156 44 69
52 132 70 142 40z m-463 -30 c11 -29 7 -76 -6 -72 -20 7 -42 53 -35 71 8 21
33 22 41 1z m-1354 -298 c0 -24 -36 -60 -53 -53 -17 6 -14 28 6 55 13 16 47
15 47 -2z m-190 -35 c15 -37 10 -75 -12 -79 -18 -4 -25 23 -19 76 4 40 15 41
31 3z m934 -37 c19 -7 22 -54 3 -54 -16 0 -40 38 -32 50 7 12 9 12 29 4z
m-979 -164 c9 -15 -14 -40 -36 -40 -21 0 -25 20 -7 38 15 15 35 15 43 2z
m1864 -12 c23 -20 23 -22 5 -35 -23 -17 -27 -17 -55 6 -20 16 -21 21 -10 35
18 22 33 20 60 -6z m-865 -7 c11 -16 -53 -58 -134 -86 -35 -12 -40 -11 -80 12
-27 16 -38 29 -32 35 29 29 233 61 246 39z m706 -130 c15 -38 10 -75 -12 -79
-15 -3 -18 5 -18 52 0 62 11 72 30 27z m-712 -30 c4 -29 -15 -43 -40 -30 -21
11 -23 30 -6 47 19 19 43 10 46 -17z m110 2 c17 -17 22 -28 14 -31 -14 -4 -72
35 -72 49 0 18 31 9 58 -18z m-289 -41 c5 -10 32 -30 59 -45 49 -27 89 -36 77
-18 -9 16 13 22 37 10 30 -15 57 -49 58 -72 0 -11 -13 -24 -35 -33 -20 -8 -40
-25 -45 -39 -5 -14 -14 -25 -20 -25 -5 0 -39 26 -74 59 -46 41 -78 62 -111 70
-55 14 -59 35 -14 80 35 35 54 39 68 13z m-199 -164 c8 -18 29 -39 45 -48 26
-14 30 -23 33 -63 2 -37 -1 -49 -13 -54 -20 -7 -35 12 -35 45 0 12 -4 22 -10
22 -5 0 -10 -4 -10 -9 0 -21 -53 -71 -75 -71 -21 0 -55 32 -55 52 0 4 20 27
45 51 34 34 45 52 45 76 0 40 11 39 30 -1z m444 -44 c7 -19 -10 -44 -31 -44
-17 0 -27 24 -19 45 7 20 42 19 50 -1z m706 -358 c0 -8 -11 -28 -25 -43 -22
-25 -24 -26 -25 -8 0 23 26 65 41 65 5 0 9 -6 9 -14z m-141 -75 c16 -10 8 -26
-20 -41 -24 -13 -38 12 -19 35 14 17 20 18 39 6z m-1469 -12 c0 -9 -58 -39
-76 -39 -4 0 3 11 16 25 24 25 60 34 60 14z m4096 -39 c172 -36 272 -70 300
-103 13 -16 21 -33 18 -39 -12 -20 -147 10 -286 62 -80 31 -208 90 -208 96 0
10 88 2 176 -16z m-576 -188 c0 -11 -13 -4 -40 23 -22 21 -40 43 -40 48 0 5
18 -6 40 -23 22 -17 40 -39 40 -48z m2069 35 c14 -6 26 -18 29 -24 6 -20 -37
-16 -114 11 l-69 25 65 0 c36 0 76 -5 89 -12z m-1402 -91 c37 -40 45 -86 15
-86 -30 0 -122 51 -139 76 -13 20 -13 27 -2 40 23 27 88 12 126 -30z m801 9
c74 -35 185 -106 198 -126 3 -6 2 -15 -3 -20 -5 -5 -25 2 -49 20 -21 16 -79
52 -129 81 -49 28 -97 58 -105 66 -26 25 9 17 88 -21z m-1148 -8 c0 -19 -21
-37 -42 -37 -21 0 -24 20 -6 38 16 16 48 15 48 -1z m1655 -25 l30 -17 -28 -3
c-30 -4 -99 26 -105 45 -4 14 57 -1 103 -25z m738 27 c55 -28 84 -77 57 -94
-23 -14 -111 80 -93 99 8 8 11 8 36 -5z m-1801 -76 c30 -29 60 -69 74 -100 17
-39 28 -53 43 -53 18 0 19 -3 9 -32 -17 -52 -23 -52 -61 -6 -45 55 -157 219
-157 230 0 23 47 3 92 -39z m983 -15 c30 -26 75 -93 75 -113 0 -27 -123 75
-149 124 -11 19 -9 21 13 21 14 0 41 -14 61 -32z m349 1 c32 -25 33 -39 3 -39
-28 0 -67 26 -67 46 0 21 33 17 64 -7z m1475 -14 c71 -18 80 -29 46 -51 -36
-23 -92 -21 -144 6 -45 22 -44 21 -35 44 8 20 60 21 133 1z m-1326 -11 c48
-24 67 -44 67 -71 0 -18 -5 -23 -26 -23 -38 0 -64 18 -80 55 -25 60 -17 67 39
39z m814 -117 c44 -23 83 -73 83 -108 0 -46 -32 -37 -103 29 -35 31 -88 75
-120 97 -31 22 -57 43 -57 47 0 8 153 -43 197 -65z m-1688 6 c55 -36 111 -96
111 -119 0 -14 -6 -24 -14 -24 -37 0 -213 160 -200 181 5 9 64 -12 103 -38z
m-312 11 c34 -13 81 -76 63 -82 -11 -4 -108 67 -132 95 -11 14 -10 15 12 8 14
-4 40 -13 57 -21z m-502 -20 c40 -43 98 -134 86 -134 -13 0 -109 108 -127 141
-21 41 1 37 41 -7z m-756 -98 c26 -27 22 -48 -4 -26 -9 7 -35 36 -58 64 l-42
51 40 -32 c22 -17 51 -43 64 -57z m2801 59 c33 -17 39 -35 12 -35 -21 0 -62
27 -62 41 0 13 17 11 50 -6z m1216 -21 c14 -10 32 -30 40 -45 14 -27 13 -29
-7 -29 -24 0 -79 51 -79 74 0 20 14 20 46 0z m580 -3 c45 -21 65 -41 39 -41
-19 0 -91 36 -100 50 -9 15 15 12 61 -9z m-218 -21 c49 -28 67 -50 41 -50 -9
0 -66 40 -103 72 -22 18 12 6 62 -22z m-1345 -19 c35 -31 93 -128 83 -138 -13
-14 -136 130 -136 159 0 16 20 8 53 -21z m841 -70 c11 -12 16 -24 13 -28 -9
-8 -38 19 -91 82 l-41 50 50 -41 c28 -23 59 -51 69 -63z m-374 68 c46 -28 90
-70 90 -86 0 -17 -10 -16 -40 4 -54 36 -115 103 -93 103 4 0 24 -10 43 -21z
m-2066 -28 c50 -40 78 -77 74 -98 -1 -10 7 -34 20 -54 38 -62 26 -77 -27 -33
-45 37 -131 156 -131 180 0 42 15 43 64 5z m987 8 c25 -25 21 -53 -9 -57 -25
-4 -49 35 -39 62 9 22 23 20 48 -5z m-789 -112 c13 -24 5 -31 -21 -18 -19 11
-71 88 -71 106 0 12 79 -64 92 -88z m890 36 c44 -50 70 -158 38 -158 -24 0
-72 79 -77 129 -6 51 10 62 39 29z m1592 -22 c20 -22 14 -41 -14 -41 -31 0
-50 11 -50 29 0 36 36 43 64 12z m366 -58 c0 -18 -39 -17 -46 2 -4 8 -3 22 0
31 6 15 8 15 26 -1 11 -10 20 -24 20 -32z m270 17 c0 -13 8 -20 28 -22 25 -3
27 -6 30 -57 3 -50 2 -53 -14 -40 -34 28 -84 163 -54 144 6 -3 10 -15 10 -25z
m-3468 -84 c41 -63 49 -87 21 -65 -20 17 -93 128 -93 142 0 18 33 -18 72 -77z
m2742 55 c9 -10 14 -25 10 -34 -3 -9 4 -32 16 -52 12 -20 20 -39 17 -42 -10
-9 -52 5 -81 28 l-27 21 22 24 c16 17 20 30 15 48 -8 31 4 33 28 7z m-2908
-62 c53 -51 68 -74 40 -63 -14 6 -111 114 -101 114 3 0 31 -23 61 -51z m2679
-4 c33 -32 36 -95 4 -95 -20 0 -119 92 -119 111 0 5 20 9 45 9 35 0 52 -6 70
-25z m-1722 -43 c42 -28 105 -99 154 -172 62 -93 83 -130 73 -130 -13 0 -228
208 -282 272 -60 72 -30 88 55 30z m2374 -11 c85 -71 206 -199 242 -255 34
-55 38 -83 16 -112 -15 -18 -16 -18 -45 15 -16 19 -36 54 -44 78 -20 59 -67
121 -165 218 -74 73 -96 105 -72 105 6 0 36 -22 68 -49z m-3463 33 c9 -4 16
-18 16 -33 0 -28 14 -53 67 -115 31 -37 44 -76 24 -76 -5 0 -27 20 -50 45 -48
52 -97 146 -88 169 7 18 9 18 31 10z m-838 -85 c3 -6 3 -13 0 -17 -7 -7 -86
67 -86 81 0 9 75 -47 86 -64z m1310 27 c47 -47 44 -103 -5 -77 -17 9 -51 77
-51 101 0 19 22 10 56 -24z m2808 -33 c44 -64 10 -65 -53 -2 -17 17 -31 39
-31 50 0 18 2 19 30 4 16 -8 41 -32 54 -52z m-3415 21 c35 -44 26 -81 -14 -62
-28 12 -50 51 -42 72 9 24 33 19 56 -10z m762 -127 c60 -91 49 -171 -15 -102
-24 25 -40 70 -55 150 -8 45 -8 46 11 28 10 -9 37 -44 59 -76z m962 45 c86
-38 130 -100 62 -89 -39 6 -105 49 -150 97 l-30 32 30 -7 c17 -4 56 -19 88
-33z m2374 16 c26 -24 31 -58 9 -58 -18 0 -46 38 -46 62 0 24 9 23 37 -4z
m-793 -40 c20 -28 21 -78 2 -78 -14 0 -66 54 -66 69 0 11 23 31 36 31 7 0 20
-10 28 -22z m-2891 -25 c20 -40 30 -96 15 -91 -16 6 -61 95 -53 108 11 17 24
11 38 -17z m-319 -64 c34 -68 40 -114 9 -73 -23 31 -63 112 -63 129 0 33 20
12 54 -56z m-191 9 c6 -8 7 -23 3 -33 -6 -18 -8 -18 -28 2 -13 13 -18 28 -14
38 7 19 25 16 39 -7z m4255 -115 c27 -35 82 -134 82 -149 0 -15 -36 25 -81 90
-47 67 -59 96 -40 96 5 0 23 -17 39 -37z m-1346 -49 c33 -43 62 -120 51 -134
-11 -13 -133 175 -133 205 0 16 47 -25 82 -71z m628 41 c42 -22 60 -53 60
-104 l0 -45 -46 44 c-25 25 -55 57 -65 72 -33 45 -6 62 51 33z m-3799 -87 c21
-17 39 -38 39 -45 0 -19 -20 -6 -59 40 -40 45 -33 47 20 5z m740 -6 c-5 -15
-18 -48 -29 -72 l-20 -45 -1 58 c-1 45 3 61 19 77 26 26 41 18 31 -18z m401
-19 c20 -45 19 -61 -2 -48 -12 7 -25 38 -36 82 -11 41 15 18 38 -34z m3637 1
c36 -46 20 -74 -21 -37 -19 17 -25 63 -9 63 5 0 19 -12 30 -26z m-3102 -16
c19 -18 23 -32 23 -83 0 -38 -6 -69 -14 -81 -14 -18 -16 -18 -31 -3 -17 16
-55 136 -55 171 0 26 48 23 77 -4z m493 -5 c50 -29 97 -142 53 -126 -30 11
-113 74 -124 95 -24 45 17 63 71 31z m2248 -71 c28 -37 63 -93 77 -124 24 -53
49 -188 35 -188 -18 0 -126 198 -148 270 -12 41 -24 110 -19 110 2 0 26 -30
55 -68z m-354 6 c8 -13 7 -21 -1 -29 -16 -16 -43 5 -43 33 0 24 28 21 44 -4z
m-2272 -59 c35 -68 36 -95 3 -54 -30 36 -61 119 -42 112 7 -2 24 -28 39 -58z
m-1327 11 c8 -16 15 -37 15 -46 0 -16 -1 -16 -20 1 -22 20 -34 50 -25 65 9 15
13 13 30 -20z m1083 8 c15 -19 39 -108 47 -173 7 -55 7 -57 -12 -46 -27 14
-61 87 -64 136 -6 86 4 113 29 83z m1258 -40 c-13 -105 -28 -178 -36 -178 -18
0 -30 62 -20 107 11 46 46 123 56 123 4 0 4 -24 0 -52z m1846 5 c24 -27 50
-84 43 -91 -10 -10 -75 68 -75 90 0 23 12 23 32 1z m-2391 -57 c19 -41 -33
-118 -62 -89 -15 15 -14 80 1 98 19 23 49 18 61 -9z m-2173 -70 c28 -28 52
-54 52 -58 0 -18 -33 9 -91 75 -66 75 -51 68 39 -17z m419 -73 c26 -51 43 -96
40 -100 -4 -4 -11 -2 -17 3 -16 16 -88 168 -95 199 -6 29 -6 29 10 10 9 -11
37 -62 62 -112z m4340 -7 c33 -66 73 -168 73 -188 0 -28 -25 3 -61 73 -24 48
-60 101 -89 130 -44 44 -47 49 -26 49 13 0 27 7 30 16 10 26 32 1 73 -80z
m-2381 -40 c-3 -14 -11 -26 -16 -26 -11 0 -14 53 -3 63 13 13 26 -12 19 -37z
m-974 10 c26 -20 48 -79 48 -131 0 -39 -3 -46 -17 -43 -20 4 -91 101 -99 135
-11 44 31 68 68 39z m3231 -58 c11 -14 16 -31 12 -37 -10 -17 -31 3 -44 40
-13 37 3 36 32 -3z m-3792 -21 c57 -38 38 -99 -25 -83 -19 5 -32 18 -42 43
-27 64 4 83 67 40z m-251 -40 c0 -12 -4 -28 -9 -35 -11 -18 -21 19 -14 48 7
25 23 16 23 -13z m4477 -6 c23 -34 31 -91 14 -91 -16 0 -71 51 -86 81 -22 42
-19 51 17 47 24 -2 38 -12 55 -37z m-519 -15 c53 -27 98 -93 87 -126 -8 -26
-40 -43 -65 -35 -23 7 -76 80 -86 118 -13 54 11 70 64 43z m-7598 -45 c0 -17
-4 -32 -9 -36 -11 -6 -19 22 -13 48 7 28 22 20 22 -12z m4970 -198 c-12 -46
-27 -70 -36 -60 -8 8 11 132 29 192 l12 40 3 -67 c2 -37 -2 -84 -8 -105z
m-726 91 c-3 -13 -10 -21 -15 -18 -11 6 -12 45 -2 70 6 15 7 15 15 -5 4 -13 5
-33 2 -47z m3841 -165 c74 -146 90 -183 74 -173 -36 22 -210 325 -209 363 1
34 73 -68 135 -190z m118 154 c18 -36 29 -93 18 -93 -11 0 -49 63 -57 95 -9
35 21 33 39 -2z m-405 -38 c13 -28 16 -55 6 -55 -13 0 -33 35 -34 58 0 30 14
28 28 -3z m-3040 -90 c0 -27 -3 -59 -8 -70 -6 -13 -8 16 -8 80 0 66 3 90 8 70
4 -16 8 -52 8 -80z m2932 50 c0 -19 -4 -35 -10 -35 -5 0 -10 16 -10 35 0 19 5
35 10 35 6 0 10 -16 10 -35z m-221 -23 c23 -32 64 -132 57 -139 -10 -10 -96
129 -96 157 0 19 18 10 39 -18z m-3321 -101 c4 -42 -6 -84 -18 -76 -13 8 -32
84 -26 102 11 27 41 10 44 -26z m222 -6 c0 -19 -4 -35 -10 -35 -5 0 -10 16
-10 35 0 19 5 35 10 35 6 0 10 -16 10 -35z m2919 -3 c10 -20 24 -57 31 -82 6
-25 13 -53 16 -62 11 -37 -14 -16 -31 25 -50 122 -61 208 -16 119z m-224 -22
c8 -16 15 -37 15 -46 0 -16 -1 -16 -20 1 -22 20 -34 50 -25 65 9 15 13 13 30
-20z m1293 -17 c61 -145 85 -263 52 -263 -18 0 -89 231 -90 288 0 36 16 25 38
-25z m-458 -74 c17 -38 34 -89 37 -112 l5 -42 -21 25 c-11 14 -34 60 -51 102
-54 138 -31 159 30 27z m-7900 28 c0 -12 -4 -28 -9 -35 -11 -18 -21 19 -14 48
7 25 23 16 23 -13z m3962 -57 c50 -100 57 -251 18 -355 -15 -39 -34 -31 -27
11 4 26 1 40 -12 53 -22 22 -30 72 -32 201 -2 137 -1 152 14 148 6 -2 24 -28
39 -58z m3177 -50 c12 -27 24 -71 27 -97 l5 -48 -20 23 c-23 26 -60 120 -68
172 -6 35 -6 35 15 17 11 -10 30 -40 41 -67z m-2736 56 c7 -18 -3 -56 -14 -56
-5 0 -9 16 -9 35 0 35 13 47 23 21z m3827 -226 c-8 -15 -5 -24 16 -43 26 -24
26 -25 9 -61 -10 -20 -21 -39 -26 -41 -26 -17 -44 120 -19 150 18 22 33 18 20
-5z m-322 -122 c15 -39 9 -128 -8 -128 -11 0 -40 100 -40 140 0 44 30 37 48
-12z m186 -10 c13 -29 26 -66 30 -83 4 -16 9 -38 12 -47 3 -10 1 -18 -4 -18
-15 0 -72 134 -72 168 0 18 2 32 6 32 3 0 15 -24 28 -52z m-2287 -73 c-8 -20
-84 -62 -167 -91 -108 -37 -115 -25 -14 25 49 24 109 57 134 72 43 27 58 25
47 -6z m2617 8 c16 -55 27 -146 22 -169 -7 -25 -8 -26 -23 -11 -20 20 -33 197
-15 197 6 0 13 -8 16 -17z m-2397 -58 c56 -17 123 -61 123 -80 0 -12 -18 -15
-97 -15 -152 0 -203 20 -203 81 0 15 6 30 13 33 17 8 112 -3 164 -19z m-2126
-239 c-23 -94 -52 -219 -66 -277 -33 -141 -184 -515 -221 -547 -31 -27 -58
-25 -62 4 -2 12 38 117 88 235 50 118 92 228 92 245 0 17 4 37 9 45 7 11 12
10 24 -8 9 -13 20 -23 24 -23 5 0 11 34 15 77 13 145 80 422 114 473 l17 25 3
-39 c2 -21 -15 -115 -37 -210z m-201 189 c0 -19 -4 -35 -10 -35 -5 0 -10 16
-10 35 0 19 5 35 10 35 6 0 10 -16 10 -35z m3770 6 c0 -17 -4 -33 -10 -36 -6
-4 -10 8 -10 29 0 20 5 36 10 36 6 0 10 -13 10 -29z m-1680 -73 c38 -63 17
-90 -36 -45 -22 19 -26 29 -20 50 9 36 32 34 56 -5z m2564 10 c28 -40 15 -107
-17 -95 -28 11 -34 117 -7 117 5 0 16 -10 24 -22z m-4594 -70 c0 -19 -31 -48
-52 -48 -22 0 -23 18 -1 42 18 20 53 24 53 6z m3759 -74 c20 -63 21 -104 1
-104 -17 0 -29 36 -36 104 -9 86 7 86 35 0z m-1485 34 c8 -13 7 -21 -1 -29
-16 -16 -43 5 -43 33 0 24 28 21 44 -4z m-3528 -73 c24 -52 26 -103 3 -90 -14
9 -57 87 -64 118 -6 23 -4 27 14 27 17 0 28 -13 47 -55z m2987 49 c14 -14 -15
-42 -60 -59 -26 -10 -56 -25 -67 -34 -39 -34 -62 -111 -32 -111 8 0 55 16 105
35 49 19 93 35 96 35 3 0 5 -8 5 -17 0 -12 10 -7 39 21 36 35 39 36 44 16 5
-18 12 -21 46 -19 63 5 60 -8 -10 -40 -86 -39 -205 -71 -262 -71 -50 0 -63
-16 -22 -26 14 -3 25 -11 25 -16 0 -6 -45 -8 -116 -6 l-116 3 -28 32 c-34 37
-48 96 -30 118 17 21 27 19 33 -6 4 -14 12 -19 24 -17 14 3 18 12 17 41 -1 37
-1 37 30 31 38 -7 109 19 180 64 47 30 85 40 99 26z m177 -4 c0 -5 -20 -10
-45 -10 -25 0 -45 5 -45 10 0 6 20 10 45 10 25 0 45 -4 45 -10z m2500 -145
c66 -169 90 -245 90 -282 0 -42 -12 -42 -44 0 -33 43 -72 166 -86 269 -6 46
-13 96 -16 113 -8 50 11 16 56 -100z m346 7 c5 -31 2 -49 -10 -67 -20 -30 -32
-32 -46 -4 -9 16 -8 39 6 97 17 77 17 77 30 47 7 -16 16 -49 20 -73z m-5558
66 c-3 -20 1 -23 32 -23 40 0 60 -28 59 -85 0 -43 -20 -102 -35 -107 -12 -4
-74 109 -94 170 -14 46 -8 67 20 67 16 0 21 -5 18 -22z m3532 -23 c47 -12 97
-25 113 -29 37 -9 34 -24 -9 -42 -56 -23 -154 4 -204 58 -25 28 -27 53 -2 42
9 -4 55 -17 102 -29z m325 -46 c18 -22 23 -35 16 -42 -12 -12 -71 38 -71 60 0
23 27 14 55 -18z m-1875 -49 c0 -11 -52 -40 -71 -40 -7 0 -2 11 11 25 23 25
60 34 60 15z m-1400 -45 c0 -25 -4 -45 -10 -45 -11 0 -14 73 -3 83 11 12 13 8
13 -38z m-352 -46 c41 -42 49 -77 24 -102 -13 -12 -27 -17 -40 -13 -31 10 -52
87 -36 130 9 23 18 20 52 -15z m3472 -39 c0 -5 -16 -10 -35 -10 -19 0 -35 5
-35 10 0 6 16 10 35 10 19 0 35 -4 35 -10z m1258 -15 c18 -16 36 -135 28 -179
-8 -41 -32 -48 -60 -17 -26 28 -86 153 -86 179 0 39 82 51 118 17z m-4424
-159 c-16 -25 -34 -35 -34 -18 0 4 10 23 22 42 16 26 23 31 26 18 2 -9 -4 -28
-14 -42z m-1154 -35 c5 -11 10 -30 10 -43 l-1 -23 -19 24 c-21 24 -27 61 -10
61 5 0 14 -9 20 -19z m6108 -25 c-4 -18 2 -30 23 -45 57 -42 98 -212 106 -438
5 -116 3 -153 -6 -153 -28 0 -85 187 -79 263 3 35 7 42 28 47 40 9 35 38 -26
140 -98 164 -111 210 -63 210 17 0 20 -5 17 -24z m-140 -56 c20 -62 53 -282
50 -324 l-4 -41 -26 55 c-40 82 -62 175 -53 229 4 26 6 66 6 91 -2 50 10 45
27 -10z m-5910 -43 c4 -20 -29 -39 -48 -27 -12 7 -11 12 5 30 21 23 38 22 43
-3z m6264 6 c51 -59 100 -364 68 -424 -20 -36 -29 -19 -29 54 1 69 -8 118 -51
276 -29 107 -25 136 12 94z m-977 -79 c17 -26 13 -44 -10 -44 -17 0 -35 31
-35 59 0 26 23 18 45 -15z m-7439 -10 c6 -16 8 -38 4 -49 -7 -19 -7 -19 -17 0
-6 11 -14 35 -18 54 -9 42 13 39 31 -5z m2199 -76 c5 -18 3 -28 -4 -28 -14 0
-43 58 -35 71 9 15 31 -9 39 -43z m944 -72 c22 -34 28 -76 12 -76 -10 0 -41
72 -41 95 0 22 6 18 29 -19z m4695 -83 c17 -66 22 -173 7 -157 -11 11 -51 205
-51 243 l1 26 14 -25 c7 -14 20 -53 29 -87z m-4794 -76 c0 -12 -4 -28 -9 -36
-12 -19 -25 21 -16 49 8 25 25 16 25 -13z m4450 -89 c22 -24 26 -43 10 -53
-13 -8 -50 31 -50 55 0 26 14 25 40 -2z m1040 -228 c0 -43 -4 -81 -9 -84 -11
-7 -41 66 -41 102 0 31 27 75 41 67 5 -4 9 -42 9 -85z m-126 -165 c7 -28 -14
-97 -31 -103 -31 -10 -40 101 -11 136 14 16 34 0 42 -33z m-714 0 c6 -8 10
-24 8 -37 -4 -22 -5 -21 -41 15 -20 21 -37 42 -37 47 0 12 56 -8 70 -25z
m-1976 -43 c38 -115 80 -422 61 -452 -33 -54 -108 313 -97 478 3 37 19 25 36
-26z m-2914 -67 c14 -89 9 -112 -23 -99 -21 8 -30 38 -28 89 1 47 20 107 30
101 4 -3 14 -44 21 -91z m-2190 -50 c0 -30 -4 -55 -10 -55 -5 0 -10 25 -10 55
0 30 5 55 10 55 6 0 10 -25 10 -55z m7920 -58 c0 -23 -5 -49 -10 -57 -7 -11
-10 4 -10 48 0 40 4 61 10 57 6 -3 10 -25 10 -48z m-204 -132 c17 -43 18 -78
2 -73 -18 6 -38 48 -38 81 0 38 18 34 36 -8z m-2480 -139 c-3 -14 -11 -26 -16
-26 -11 0 -14 53 -3 64 13 12 26 -13 19 -38z m2861 -307 c14 -27 17 -79 5 -79
-12 0 -30 35 -38 75 -5 30 -4 37 7 33 8 -3 20 -15 26 -29z m6 -321 c53 -111
57 -178 8 -178 -39 0 -52 32 -58 151 -4 76 -3 110 4 106 6 -4 26 -39 46 -79z
m-7851 -371 c-4 -73 -1 -89 24 -147 25 -61 28 -77 34 -250 5 -172 7 -187 29
-216 32 -44 21 -92 -34 -155 -24 -26 -46 -57 -50 -68 -10 -33 -23 -25 -36 22
-9 32 -9 78 1 199 11 134 11 184 -2 340 -16 195 -11 291 16 333 9 14 18 25 19
25 2 0 1 -37 -1 -83z m8113 -27 c-4 -11 -11 -20 -16 -20 -10 0 -12 53 -2 64
11 11 25 -23 18 -44z m-53 -271 c23 -73 18 -99 -12 -61 -24 29 -54 118 -46
138 11 28 34 -3 58 -77z m-32 -204 c6 -19 10 -45 8 -57 -3 -22 -5 -21 -21 9
-18 34 -23 83 -8 83 5 0 15 -16 21 -35z m-4240 -535 c0 -36 -123 -126 -157
-113 -32 12 -3 71 51 104 32 20 106 26 106 9z m4545 -63 c8 -27 17 -79 21
-116 3 -36 7 -78 9 -93 6 -54 -28 -21 -75 72 -19 38 -22 55 -17 117 3 40 8 77
12 83 12 19 34 -9 50 -63z m-8670 13 c3 -10 5 -43 4 -72 -2 -54 7 -98 20 -98
4 0 17 -9 29 -21 19 -17 21 -27 16 -56 -6 -31 -4 -35 10 -30 28 11 19 -1 -59
-74 -49 -47 -75 -79 -75 -94 0 -26 57 -115 73 -115 7 0 21 17 32 37 11 20 26
39 34 41 37 12 -17 -255 -59 -293 -20 -18 -21 -18 -48 8 -16 15 -36 27 -45 27
-20 0 -37 -29 -38 -67 l-1 -28 -10 30 c-15 42 -37 65 -63 65 -30 0 -45 -19
-45 -55 0 -17 -6 -40 -14 -50 -13 -18 -15 -18 -39 -2 -14 9 -38 34 -53 56 -37
51 -83 81 -133 88 -23 3 -41 10 -41 16 0 18 71 77 94 77 12 0 44 15 71 32 46
32 83 53 115 68 20 10 25 41 8 51 -31 20 -78 10 -113 -26 -22 -22 -48 -36 -72
-40 -76 -13 -179 -61 -188 -88 -2 -6 -6 -25 -10 -40 -7 -33 -91 -127 -113
-127 -8 0 -30 13 -49 30 -18 16 -39 30 -46 30 -7 -1 -28 -14 -47 -30 -19 -17
-42 -30 -51 -30 -17 0 -58 53 -80 103 -11 25 -10 30 17 59 36 38 170 102 244
117 171 33 215 45 264 71 30 16 75 35 100 41 53 13 60 24 71 94 8 56 33 111
63 138 11 10 53 35 94 56 68 35 87 54 102 104 7 23 23 22 31 -3z m4329 -9 c23
-25 52 -237 35 -257 -30 -37 -131 76 -135 151 -1 32 -6 41 -22 43 -16 2 -23
-3 -28 -22 -7 -28 -40 -44 -57 -27 -15 15 17 57 77 98 55 38 104 43 130 14z
m-414 -136 c11 -13 9 -20 -11 -41 -24 -26 -97 -69 -105 -62 -4 4 22 93 31 108
10 16 71 12 85 -5z m-3654 -67 c13 -40 7 -130 -10 -146 -14 -15 -19 -13 -49
16 -18 18 -43 52 -55 75 l-22 42 21 18 c13 10 38 17 64 17 36 0 45 -4 51 -22z
m3908 13 c10 -16 -114 -98 -128 -84 -13 13 -5 44 14 61 32 27 103 42 114 23z
m316 -90 c-37 -59 -50 -64 -50 -20 0 37 54 99 72 81 8 -8 2 -25 -22 -61z
m4153 41 c18 -20 56 -101 57 -119 0 -30 -32 -9 -60 40 -41 72 -40 126 3 79z
m-4722 -88 c11 -14 10 -18 -6 -30 -21 -15 -105 -19 -105 -5 0 8 77 51 91 51 4
0 13 -7 20 -16z m-181 -14 c34 -18 22 -30 -28 -30 -49 0 -97 23 -86 42 8 12
84 4 114 -12z m-250 -51 c25 -5 65 -22 89 -36 44 -26 44 -26 20 -36 -34 -13
-309 -3 -338 12 -32 18 -16 31 66 52 80 21 103 22 163 8z m640 1 c0 -5 -21
-10 -46 -10 -27 0 -43 4 -39 10 3 6 24 10 46 10 21 0 39 -4 39 -10z m225 0 c4
-6 -12 -10 -39 -10 -25 0 -46 5 -46 10 0 6 18 10 39 10 22 0 43 -4 46 -10z
m4315 -36 c0 -14 -193 -150 -269 -189 -67 -34 -114 28 -55 74 22 17 152 72
259 109 34 12 65 15 65 6z m-9701 -309 c17 -20 31 -47 31 -60 0 -28 -34 -55
-70 -55 -28 0 -101 39 -107 57 -7 19 67 93 92 93 14 0 35 -14 54 -35z m595
-16 c14 -11 33 -34 41 -49 14 -27 14 -30 -4 -40 -25 -13 -148 -13 -156 0 -6
10 19 65 43 93 20 23 43 22 76 -4z m8861 -3 c19 -8 35 -21 35 -29 0 -8 16 -27
35 -41 39 -30 52 -64 35 -95 -14 -27 -33 -27 -25 -1 10 31 -18 66 -69 85 -55
21 -103 16 -148 -16 l-31 -22 -18 22 c-20 24 -24 57 -10 79 19 31 138 42 196
18z m-23 -133 c25 -22 23 -41 -6 -54 -29 -14 -75 -4 -83 17 -7 19 25 54 50 54
11 0 29 -7 39 -17z m-7244 -415 c-5 -86 -17 -105 -52 -86 -33 17 -45 40 -46
80 0 70 41 118 84 96 16 -9 18 -19 14 -90z m505 3 c10 -10 19 -34 20 -52 2
-32 0 -34 -31 -33 -51 3 -82 28 -82 68 0 19 6 37 13 40 19 8 60 -4 80 -23z"/>
<path d="M901 11304 c-26 -33 -27 -50 -3 -63 40 -22 83 44 50 77 -17 17 -24
15 -47 -14z"/>
<path d="M1125 10027 c-33 -13 -69 -28 -79 -34 -18 -10 -17 -12 13 -27 21 -11
50 -16 84 -14 45 3 53 6 65 31 14 30 8 67 -11 66 -7 0 -39 -10 -72 -22z"/>
<path d="M892 9954 c-24 -17 -29 -43 -10 -62 20 -20 33 -14 45 19 17 44 48 36
48 -11 0 -28 4 -35 20 -35 29 0 31 44 5 78 -25 31 -72 36 -108 11z"/>
<path d="M1422 9948 c-16 -16 -15 -33 4 -48 22 -19 54 12 38 37 -14 22 -27 26
-42 11z"/>
<path d="M774 9905 c-4 -9 0 -23 9 -32 21 -21 49 -9 45 19 -4 28 -45 38 -54
13z"/>
<path d="M1094 9898 c-10 -16 26 -39 55 -36 34 4 37 22 6 36 -33 15 -52 15
-61 0z"/>
<path d="M1990 11315 c-13 -16 -6 -35 14 -35 17 0 48 35 39 43 -11 12 -40 8
-53 -8z"/>
<path d="M1202 708 c-18 -18 -15 -38 6 -38 21 0 42 18 42 37 0 16 -32 17 -48
1z"/>
<path d="M2946 6518 c-2 -7 -7 -42 -10 -78 -3 -36 -19 -105 -36 -154 -36 -106
-36 -110 -10 -136 11 -11 20 -31 20 -45 0 -38 14 -30 43 24 44 79 52 223 21
363 -6 32 -22 46 -28 26z"/>
<path d="M3014 6139 c-51 -82 -70 -163 -29 -129 18 15 75 131 75 154 0 28 -19
17 -46 -25z"/>
<path d="M3056 6034 c-20 -19 -21 -54 -3 -54 19 0 47 33 47 53 0 21 -24 22
-44 1z"/>
<path d="M3811 5986 c-16 -20 -3 -46 24 -46 13 0 26 7 29 16 7 19 -10 44 -29
44 -7 0 -18 -6 -24 -14z"/>
<path d="M2055 5657 c-4 -9 -5 -51 -3 -92 3 -68 6 -78 31 -98 21 -17 33 -43
53 -117 30 -113 83 -227 124 -268 33 -34 86 -50 103 -33 15 15 -58 156 -95
182 -16 12 -28 30 -28 43 0 28 -18 46 -37 39 -13 -5 -14 6 -8 81 l7 87 -25 -6
c-23 -6 -27 -3 -37 34 -6 23 -15 41 -20 41 -15 0 -43 49 -50 88 -5 29 -9 33
-15 19z"/>
<path d="M4292 1458 c-18 -18 -15 -36 7 -48 15 -7 23 -6 35 6 20 19 20 19 0
38 -19 19 -26 20 -42 4z"/>
<path d="M4843 1113 c14 -23 247 -53 411 -53 108 1 99 14 -22 36 -99 18 -398
31 -389 17z"/>
<path d="M6840 920 c-192 -10 -178 -8 -160 -20 8 -5 26 -10 39 -10 33 0 18
-12 -32 -27 -79 -24 704 -1 1203 35 l95 6 -105 7 c-175 11 -885 18 -1040 9z"/>
<path d="M7405 821 l-60 -6 60 -14 c67 -15 199 -11 218 8 8 8 -3 11 -45 11
-30 0 -68 2 -84 4 -16 2 -56 0 -89 -3z"/>
<path d="M575 778 c-11 -6 -43 -30 -71 -54 -29 -24 -64 -48 -80 -54 -17 -7
-96 -10 -203 -8 -173 3 -239 -4 -210 -23 8 -5 61 -9 119 -9 116 0 178 -13 258
-54 30 -15 60 -26 69 -24 8 2 23 25 34 52 29 79 87 126 154 126 38 0 87 -52
83 -87 -3 -24 -10 -30 -48 -39 -42 -11 -43 -12 -19 -19 44 -11 296 -2 310 12
17 17 -29 34 -113 40 -38 3 -68 9 -68 13 0 4 14 13 30 20 36 15 39 30 7 30
-24 0 -52 16 -105 62 -26 22 -42 28 -80 28 -26 0 -56 -6 -67 -12z"/>
<path d="M8355 769 c-38 -5 -137 -20 -220 -33 l-150 -25 205 4 c182 4 200 3
165 -9 -36 -12 -7 -14 265 -17 364 -5 362 -4 370 -89 6 -63 28 -75 45 -24 14
44 34 64 61 64 13 0 24 5 24 10 0 6 -4 10 -10 10 -14 0 -40 54 -40 83 0 33 -9
38 -35 21 -13 -8 -71 -19 -139 -26 -130 -13 -293 -1 -358 27 -40 16 -74 17
-183 4z"/>
<path d="M3010 530 c-52 -9 -100 -27 -100 -36 0 -9 131 2 198 17 29 6 52 15
52 20 0 11 -86 10 -150 -1z"/>
</g>
</svg>
